<svg id="SvgjsSvg1001" width="288" height="288" xmlns="http://www.w3.org/2000/svg" version="1.1" xmlns:xlink="http://www.w3.org/1999/xlink" xmlns:svgjs="http://svgjs.com/svgjs"><defs id="SvgjsDefs1002"></defs><g id="SvgjsG1008"><svg xmlns="http://www.w3.org/2000/svg" xmlns:svgjs="http://svgjs.com/svgjs" xmlns:xlink="http://www.w3.org/1999/xlink" viewBox="0 0 288 288" width="288" height="288"><svg xmlns="http://www.w3.org/2000/svg" viewBox="0 0 51.41 42.42" width="288" height="288"><g fill="#b2b6c1" class="color000 svgShape color0d6efd" data-name="Capa 2"><path d="M0,20.52a17.88,17.88,0,0,1,1.7-2.4c5.63-5.65,11.3-11.26,17-16.9A3.48,3.48,0,0,1,22,.08a3.23,3.23,0,0,1,2.58,2.35,3.25,3.25,0,0,1-.84,3.39c-1.48,1.51-3,3-4.47,4.47l-6.79,6.76c-.19.19-.37.4-.69.74h35.8a3.49,3.49,0,0,1,3.7,2.41,3.42,3.42,0,0,1-3,4.42c-.34,0-.68,0-1,0H11.76c.3.32.49.54.69.74L23.6,36.47A3.36,3.36,0,0,1,24.55,40,3.24,3.24,0,0,1,22,42.34a3.39,3.39,0,0,1-3.25-1.08L6.11,28.71c-1.48-1.46-3-2.89-4.41-4.41A21.73,21.73,0,0,1,0,21.89Z" class="colorff1c0b svgShape color000" data-name="Capa 1" fill="#b2b6c1"></path></g></svg></svg></g></svg>