<svg xmlns="http://www.w3.org/2000/svg" viewBox="0 0 51.41 42.42"><defs><style>.cls-1{fill:#ff1c0b;}</style></defs><title>Recurso 14</title><g id="Capa_2" data-name="Capa 2"><g id="Capa_1-2" data-name="Capa 1"><path class="cls-1" d="M51.41,21.89a15.94,15.94,0,0,1-1.7,2.4c-5.63,5.66-11.3,11.27-17,16.91a3.46,3.46,0,0,1-3.31,1.14A3.26,3.26,0,0,1,26.86,40a3.29,3.29,0,0,1,.84-3.4c1.48-1.5,3-3,4.48-4.47L39,25.37c.2-.2.38-.4.69-.74H3.86A3.5,3.5,0,0,1,.15,22.22a3.42,3.42,0,0,1,3-4.42c.34,0,.68,0,1,0H39.65c-.3-.32-.48-.54-.68-.74L27.82,6a3.32,3.32,0,0,1-.95-3.52A3.2,3.2,0,0,1,29.45.08,3.41,3.41,0,0,1,32.7,1.16Q39,7.44,45.3,13.7c1.48,1.47,3,2.9,4.41,4.42a20.36,20.36,0,0,1,1.7,2.4Z"/></g></g></svg>