<svg xmlns="http://www.w3.org/2000/svg" viewBox="0 0 60.98 81.31"><defs><style>.cls-1{fill:#eaebee;}</style></defs><title>Recurso 20</title><g id="Capa_2" data-name="Capa 2"><g id="Capa_1-2" data-name="Capa 1"><path class="cls-1" d="M29.86,81.31a24.87,24.87,0,0,1-2-1.52A114.46,114.46,0,0,1,7.77,55.06a58.21,58.21,0,0,1-7-17.4,31,31,0,0,1,17.54-35,30.28,30.28,0,0,1,36,9c6.4,8.21,8,17.46,5.67,27.49A60.32,60.32,0,0,1,51.87,57.3,116.72,116.72,0,0,1,33.13,79.79a22.87,22.87,0,0,1-2,1.52ZM47.43,31c.42-9.16-6.93-17-16.37-17.45-9.16-.44-17,6.9-17.49,16.33A17,17,0,0,0,30,47.44C39.17,47.84,47,40.46,47.43,31Z"/></g></g></svg>