<svg xmlns="http://www.w3.org/2000/svg" viewBox="0 0 81.3 57.19"><defs><style>.cls-1{fill:#eaebee;}</style></defs><title>Recurso 18</title><g id="Capa_2" data-name="Capa 2"><g id="Capa_1-2" data-name="Capa 1"><path class="cls-1" d="M0,6.2l.66-2Q13,16.41,25.22,28.53L.63,52.88,0,51Z"/><path class="cls-1" d="M4.11.58c1-.2,1.78-.39,2.6-.55a5,5,0,0,1,.87,0Q40.64,0,73.7,0A25.26,25.26,0,0,1,77,.45l.24.51a3.16,3.16,0,0,0-.78.39Q59.72,18.15,43,35c-1.56,1.56-3.06,1.57-4.61,0L4.79,1.31C4.61,1.13,4.44.93,4.11.58Z"/><path class="cls-1" d="M4.24,56.51Q16.54,44.32,28.79,32.2c2.06,2,4.24,4.23,6.44,6.4a7.46,7.46,0,0,0,8.69,1.55,9.59,9.59,0,0,0,2.27-1.69c2-1.91,3.9-3.88,5.84-5.83.2-.2.42-.39.52-.49L77.23,56.59c-1,.22-1.78.42-2.58.57a5.89,5.89,0,0,1-1,0H7.67A7.35,7.35,0,0,1,4.24,56.51Z"/><path class="cls-1" d="M80.74,53.09,56.09,28.65,80.75,4.23A14.36,14.36,0,0,1,81.28,7q0,21.59,0,43.17A16.35,16.35,0,0,1,80.74,53.09Z"/></g></g></svg>