<svg xmlns="http://www.w3.org/2000/svg" viewBox="0 0 76.11 76.23"><defs><style>.cls-1{fill:#eaebee;}</style></defs><title>Recurso 19</title><g id="Capa_2" data-name="Capa 2"><g id="Capa_1-2" data-name="Capa 1"><path class="cls-1" d="M57,76.23a38.65,38.65,0,0,1-10-2.34A70.19,70.19,0,0,1,27,62,86.09,86.09,0,0,1,6,37.3a50.15,50.15,0,0,1-5.9-16,6.25,6.25,0,0,1,.78-4.7A62.52,62.52,0,0,1,13.49,1.69c.32-.27.68-.5,1-.74,2.1-1.5,3.81-1.13,5.84.47a3.37,3.37,0,0,1,.71.75,97.08,97.08,0,0,1,9.39,15.42,21.94,21.94,0,0,1,.94,2.61,3.76,3.76,0,0,1-.82,3.85c-1.23,1.3-2.58,2.5-3.93,3.69-1.78,1.56-1.82,1.54-.88,3.73A34.69,34.69,0,0,0,45.69,50.8a1.44,1.44,0,0,0,2-.47c1.07-1.37,2.25-2.66,3.42-3.95A4.71,4.71,0,0,1,57,45.05a82.53,82.53,0,0,1,7.62,3.87c3.11,1.85,6.08,3.94,9.08,6a5.59,5.59,0,0,1,2.3,3.4,2.84,2.84,0,0,1-.27,2.3A16.22,16.22,0,0,1,74,63.07,59.94,59.94,0,0,1,58.82,75.53,10.63,10.63,0,0,1,57,76.23Z"/></g></g></svg>