<svg id="SvgjsSvg1001" width="288" height="288" xmlns="http://www.w3.org/2000/svg" version="1.1" xmlns:xlink="http://www.w3.org/1999/xlink" xmlns:svgjs="http://svgjs.com/svgjs"><defs id="SvgjsDefs1002"></defs><g id="SvgjsG1008"><svg xmlns="http://www.w3.org/2000/svg" xmlns:svgjs="http://svgjs.com/svgjs" xmlns:xlink="http://www.w3.org/1999/xlink" viewBox="0 0 288 288" width="288" height="288"><svg xmlns="http://www.w3.org/2000/svg" viewBox="0 0 226.772 58.185" width="288" height="288"><path fill="#b2b6c1" d="m 86.975937,150.91574 c -1.450071,-1.51762 -3.271228,-3.91353 -4.30583,-5.66474 -0.986105,-1.66913 -1.939389,-3.03478 -2.118406,-3.03478 -0.179021,0 -1.132947,0.53596 -2.119834,1.19102 -5.084308,3.37477 -11.348193,4.27185 -16.986037,2.43264 -7.764822,-2.53309 -12.710543,-8.87534 -13.156055,-16.87097 -0.474171,-8.50996 4.275992,-15.58868 12.67887,-18.89411 1.70835,-0.67201 2.556417,-0.77591 6.438474,-0.78876 4.313203,-0.0143 4.568122,0.0242 7.224344,1.08991 2.539451,1.01889 2.798792,1.06362 3.337903,0.57573 0.470483,-0.42579 1.400994,-0.52899 4.769379,-0.52899 3.798487,0 4.216498,0.0591 4.527685,0.64059 0.214101,0.40006 0.342832,4.30956 0.342832,10.4117 0,10.73122 0.202518,12.38755 1.999052,16.34973 1.111511,2.45138 3.354185,5.69227 5.089143,7.35433 0.655254,0.62772 1.191372,1.3255 1.191372,1.55061 0,0.55021 -5.295785,6.54999 -5.912629,6.69862 -0.273611,0.0659 -1.589453,-1.036 -3.000263,-2.51253 z M 71.712493,136.30682 c 5.62696,-2.91506 7.028512,-10.02855 2.865695,-14.54468 -2.900684,-3.14687 -7.201985,-4.08037 -11.072215,-2.403 -4.652111,2.01626 -6.970289,7.7106 -4.92335,12.09364 1.130241,2.42016 2.302419,3.64104 4.615185,4.80696 1.855041,0.93517 2.30008,1.02612 4.540494,0.92797 1.795146,-0.0787 2.897107,-0.3229 3.974191,-0.88089 z m 37.423647,10.31857 c -3.74415,-0.62036 -7.79038,-2.6436 -10.4187,-5.20966 -6.00481,-5.86257 -7.44673,-14.29091 -3.764753,-22.00581 1.399806,-2.93303 5.243243,-6.76284 8.266153,-8.23686 5.41847,-2.64214 11.62611,-2.77576 17.21703,-0.37061 0.9001,0.38721 1.74379,0.59711 1.87485,0.46644 0.13107,-0.13068 0.31283,-3.76501 0.40391,-8.0763 l 0.16559,-7.838714 4.2785,-0.09311 c 2.35318,-0.05121 4.40609,0.03448 4.56204,0.19043 0.21374,0.213728 0.34559,24.787904 0.26825,49.994054 -8.3e-4,0.31141 -1.15005,0.41398 -4.63783,0.41398 -3.58356,0 -4.63655,-0.0978 -4.63655,-0.43054 0,-1.07131 -0.72089,-1.16305 -2.59996,-0.33086 -3.2597,1.44362 -7.73062,2.06571 -10.97853,1.52756 z m 5.97399,-9.75102 c 1.90057,-0.56943 4.27738,-2.56633 5.3676,-4.50965 1.94486,-3.46674 1.50898,-7.50215 -1.13475,-10.50558 -1.9662,-2.23373 -4.17619,-3.25693 -7.06061,-3.26901 -3.05638,-0.0128 -5.30438,0.95866 -7.26529,3.13967 -4.25949,4.73757 -2.90095,11.62689 2.86049,14.50592 2.23041,1.11455 4.86706,1.34737 7.23256,0.63865 z m 37.74212,9.75102 c -5.24363,-0.86881 -10.17922,-4.01596 -13.03163,-8.30954 -3.79939,-5.71904 -4.20192,-12.44341 -1.13442,-18.95123 1.35792,-2.88089 5.20974,-6.70467 8.25017,-8.19011 5.35165,-2.61464 11.09608,-2.80767 16.71051,-0.56155 1.9924,0.79708 2.21194,0.82408 2.74906,0.338 0.46939,-0.42479 1.40191,-0.52827 4.76069,-0.52827 2.31155,0 4.26471,0.14199 4.37346,0.31795 0.14545,0.23535 0.24696,20.27281 0.17581,34.70461 -0.002,0.31138 -1.15123,0.41398 -4.6386,0.41398 -3.58357,0 -4.63656,-0.0978 -4.63656,-0.43054 0,-1.07131 -0.72088,-1.16305 -2.59996,-0.33086 -3.2597,1.44362 -7.73061,2.06571 -10.97853,1.52756 z m 5.974,-9.75102 c 2.16604,-0.64897 4.33523,-2.57423 5.56031,-4.93503 0.99401,-1.91553 1.09878,-2.37048 0.98911,-4.29516 -0.30078,-5.27861 -4.16906,-9.01533 -9.38698,-9.06772 -8.33355,-0.0837 -12.66818,9.22301 -7.27878,15.62794 1.38823,1.64982 4.54359,3.04408 6.88907,3.04408 1.08821,0 2.54049,-0.16835 3.22727,-0.37411 z m 92.75405,9.471 c -7.05296,-1.61678 -12.83949,-7.19327 -14.44619,-13.92183 -2.2074,-9.2442 2.63241,-18.46088 11.59553,-22.08193 2.54133,-1.02669 2.83191,-1.06977 7.12042,-1.05557 3.88206,0.0128 4.73013,0.11675 6.43848,0.78876 6.44007,2.53333 10.70314,7.24154 12.30982,13.5952 0.76686,3.0326 0.48469,7.67584 -0.64858,10.67237 -2.77505,7.33769 -9.28839,11.99675 -17.27176,12.35467 -1.90057,0.0852 -3.7478,-0.0422 -5.09772,-0.35167 z m 8.07836,-9.87669 c 2.41728,-1.1289 3.6429,-2.30387 4.78294,-4.58529 1.75066,-3.50338 1.21609,-7.14172 -1.49184,-10.15359 -1.94168,-2.15962 -4.18962,-3.128 -7.26529,-3.1298 -2.83521,-0.002 -4.98269,0.96768 -7.00548,3.16214 -3.22981,3.50394 -3.15781,9.07384 0.16312,12.61806 2.59961,2.77441 7.37391,3.69624 10.81655,2.08848 z m -77.58244,-8.24493 0.0857,-17.63547 h 19.20859 c 19.07373,0 19.22371,0.005 21.36129,0.74661 4.09771,1.42121 7.42038,4.77016 8.62386,8.6921 0.6153,2.00519 0.65451,2.95824 0.57211,13.90966 l -0.0885,11.75699 h -4.63656 -4.63656 l -0.16559,-11.4258 c -0.17984,-12.40902 -0.18334,-12.43177 -2.09103,-13.59497 -0.86058,-0.52474 -1.66605,-0.6427 -4.36703,-0.63957 -1.8215,0.002 -3.4963,0.12099 -3.72176,0.26419 -0.31145,0.19781 -0.43079,3.27953 -0.49677,12.82826 l -0.0868,12.56789 h -4.63656 -4.63656 l -0.16559,-12.75053 -0.16559,-12.75053 h -5.13333 -5.13334 l -0.17546,12.75053 c -0.0965,7.01279 -0.20827,12.78779 -0.24838,12.83333 -0.0401,0.0455 -2.16068,0.0828 -4.71239,0.0828 h -4.63946 z" class="color191919 svgShape color6e6e6e" transform="translate(-48.257 -95.246)"></path></svg></svg></g></svg>