<svg id="SvgjsSvg1001" width="288" height="288" xmlns="http://www.w3.org/2000/svg" version="1.1" xmlns:xlink="http://www.w3.org/1999/xlink" xmlns:svgjs="http://svgjs.com/svgjs"><defs id="SvgjsDefs1002"></defs><g id="SvgjsG1008"><svg xmlns="http://www.w3.org/2000/svg" xmlns:svgjs="http://svgjs.com/svgjs" xmlns:xlink="http://www.w3.org/1999/xlink" viewBox="0 0 288 288" width="288" height="288"><svg xmlns="http://www.w3.org/2000/svg" viewBox="0 0 226.772 69.505" width="288" height="288"><path fill="#b2b6c1" d="m 38.772928,313.50708 c -0.959293,-0.75594 -1.256799,-1.55535 -1.256799,-3.37707 v -1.81353 l 2.600305,-0.17905 c 14.400492,-0.99154 26.694006,-9.37699 30.667985,-20.91874 0.685872,-1.992 0.559761,-2.14363 -0.336198,-0.40423 -4.142595,8.04234 -15.026237,14.04168 -27.821784,15.33606 -1.444951,0.14617 -3.185887,0.26577 -3.868746,0.26577 h -1.241562 v -2.88035 -2.88035 l 3.234526,-0.17649 c 14.227999,-0.77638 25.897808,-5.60383 29.911263,-12.37339 1.318588,-2.22408 1.334289,-2.71066 0.0459,-1.42237 -4.367427,4.36708 -15.50415,7.40991 -29.196093,7.9771 l -3.995591,0.16551 v -1.82808 c 0,-2.08809 0.41881,-3.13826 1.463002,-3.66851 0.464797,-0.23603 2.156774,-0.40904 5.132894,-0.52486 14.350759,-0.55847 25.143856,-2.41928 27.45864,-4.73406 0.87424,-0.87424 0.87424,-1.11272 0,-1.98695 -2.314784,-2.31479 -13.107881,-4.17559 -27.45864,-4.73407 -2.97612,-0.11582 -4.668097,-0.28883 -5.132894,-0.52485 -1.044192,-0.53025 -1.463002,-1.58043 -1.463002,-3.66852 v -1.82808 l 3.995591,0.16552 c 13.691943,0.56718 24.828666,3.61001 29.196093,7.97709 1.288394,1.28829 1.272693,0.80171 -0.0459,-1.42237 -4.013455,-6.76956 -15.683264,-11.597 -29.911263,-12.37338 l -3.234526,-0.1765 v -2.88034 -2.88035 h 1.241562 c 0.682859,0 2.423795,0.11959 3.868746,0.26576 12.795547,1.29439 23.679189,7.29372 27.821784,15.33607 0.895959,1.73939 1.02207,1.58776 0.336198,-0.40424 -3.973979,-11.54175 -16.267493,-19.9272 -30.667985,-20.91874 l -2.600305,-0.17904 v -1.81354 c 0,-1.82171 0.297506,-2.62112 1.256799,-3.37707 0.926109,-0.72979 5.496692,-0.16087 9.673786,1.20414 4.959151,1.62058 9.375329,4.32573 13.318345,8.15823 5.259456,5.11203 8.491166,11.00408 10.035787,18.29721 0.776517,3.66644 0.776517,9.87465 0,13.54108 -1.544621,7.29314 -4.776331,13.18518 -10.035787,18.29722 -3.943016,3.83249 -8.359194,6.53765 -13.318345,8.15822 -4.177094,1.36501 -8.747677,1.93393 -9.673786,1.20414 z m 64.321622,-0.19054 c -11.830733,-2.4873 -21.659365,-11.14284 -25.718566,-22.64896 -1.422785,-4.033 -1.890439,-6.90026 -1.890439,-11.59062 0,-4.69035 0.467654,-7.55762 1.890439,-11.59061 4.078367,-11.56044 13.970493,-20.23735 25.825986,-22.65335 5.6316,-1.14765 7.1227,-0.48039 7.1227,3.18733 v 1.80995 l -2.60031,0.17813 c -14.373677,0.98468 -26.696967,9.39369 -30.66798,20.92682 -0.685872,1.992 -0.559761,2.14363 0.336198,0.40424 3.535395,-6.86354 12.252553,-12.45357 22.720822,-14.57014 2.65807,-0.53742 6.95528,-1.03169 8.96971,-1.03169 h 1.24156 v 2.88035 2.88034 l -3.23453,0.1765 c -14.254206,0.77781 -25.899727,5.59439 -29.911259,12.37127 -1.323505,2.23586 -1.332576,2.71107 -0.02683,1.40533 4.360455,-4.36046 15.461198,-7.388 29.177029,-7.95755 l 3.99559,-0.16591 v 1.82808 c 0,2.08809 -0.41881,3.13827 -1.463,3.66852 -0.4648,0.23602 -2.15678,0.40903 -5.1329,0.52485 -14.350755,0.55848 -25.143852,2.41928 -27.458636,4.73407 -0.87424,0.87423 -0.87424,1.11271 0,1.98695 2.314784,2.31478 13.107881,4.17559 27.458636,4.73406 2.97612,0.11582 4.6681,0.28883 5.1329,0.52486 1.04419,0.53025 1.463,1.58042 1.463,3.66851 v 1.82808 l -3.99559,-0.16591 c -13.715831,-0.56955 -24.816574,-3.59709 -29.177029,-7.95754 -1.305746,-1.30575 -1.296675,-0.83054 0.02683,1.40532 4.011532,6.77689 15.657053,11.59347 29.911259,12.37128 l 3.23453,0.17649 v 2.88035 2.88035 h -1.24156 c -2.01443,0 -6.31164,-0.49427 -8.96971,-1.0317 -10.468269,-2.11657 -19.185427,-7.7066 -22.720822,-14.57013 -0.895959,-1.7394 -1.02207,-1.58777 -0.336198,0.40423 3.973979,11.54175 16.267493,19.9272 30.66798,20.91874 l 2.60031,0.17905 v 1.81353 c 0,1.82172 -0.29751,2.62113 -1.2568,3.37707 -0.57221,0.45091 -3.3426,0.36254 -5.97332,-0.19054 z m 49.79707,-12.25441 c -3.34347,-0.94563 -5.15996,-3.60849 -5.13319,-7.52494 0.0118,-1.72988 0.13366,-2.40194 0.61602,-3.39813 1.61374,-3.33275 5.16569,-4.88619 8.77473,-3.83762 1.17435,0.3412 1.78844,0.7225 2.80767,1.74331 1.49836,1.50069 2.12023,3.12516 2.12023,5.53849 v 1.47608 h -5.18741 -5.18741 l 0.25447,0.72998 c 0.77496,2.22307 3.84592,2.86479 6.42563,1.34273 l 0.88212,-0.52046 1.0774,1.28683 1.0774,1.28684 -0.74928,0.59809 c -1.64943,1.31664 -5.44077,1.93995 -7.77838,1.2788 z m 5.12645,-9.32612 c 0,-0.29301 -0.38814,-0.92089 -0.86254,-1.39529 -0.75198,-0.75198 -1.02588,-0.86254 -2.13689,-0.86254 -1.4712,0 -2.60725,0.75635 -3.0519,2.03187 l -0.26448,0.7587 h 3.1579 c 3.03891,0 3.15791,-0.0201 3.15791,-0.53274 z m 11.83587,9.29548 c -1.25615,-0.44788 -2.1444,-1.27641 -2.73099,-2.54737 -0.38727,-0.83912 -0.4693,-1.66242 -0.47391,-4.75666 l -0.006,-3.7419 h -1.39528 -1.39529 v -1.76256 -1.76256 l 1.33186,-0.0767 1.33187,-0.0767 0.0737,-2.09293 0.0737,-2.09293 h 1.88214 1.88215 l 0.0737,2.09293 0.0737,2.09293 2.6003,0.0723 2.60031,0.0723 v 1.76694 1.76695 h -2.66373 -2.66372 v 2.75271 c 0,2.94481 0.28169,4.21193 1.02475,4.6096 0.67171,0.35949 2.2981,0.28863 3.03426,-0.13219 0.34882,-0.19941 0.71147,-0.3666 0.80589,-0.37155 0.0944,-0.005 0.47192,0.64684 0.83889,1.44841 l 0.66721,1.45739 -0.54699,0.44293 c -1.33723,1.08282 -4.55493,1.50322 -6.41887,0.83863 z m 39.73542,0.0173 c -4.27153,-1.39612 -6.44919,-5.27812 -5.28593,-9.42293 0.64219,-2.28817 1.8077,-3.71386 3.86281,-4.72515 1.52972,-0.75274 1.94899,-0.84594 3.75601,-0.83489 2.45173,0.015 4.03982,0.6335 5.6344,2.1944 2.9633,2.9007 2.9633,7.90692 0,10.80762 -0.58488,0.57253 -1.63239,1.2919 -2.32778,1.5986 -1.5602,0.68811 -4.16392,0.86464 -5.63951,0.38235 z m 4.28194,-3.89654 c 2.52687,-1.48721 2.4364,-5.78667 -0.14757,-7.01284 -1.18696,-0.56325 -2.88235,-0.51721 -3.90458,0.10603 -0.93356,0.56917 -1.81335,2.22779 -1.81335,3.4186 0,1.19081 0.87979,2.84943 1.81335,3.4186 1.06237,0.64771 3.01299,0.68122 4.05215,0.0696 z m 40.6329,3.88499 c -1.50818,-0.34347 -2.40537,-0.70027 -3.05734,-1.21586 -0.2362,-0.18679 -0.15425,-0.55259 0.34762,-1.55189 0.36117,-0.71913 0.69654,-1.3516 0.74528,-1.40549 0.0487,-0.0539 0.69141,0.16766 1.42819,0.49234 1.02619,0.45221 1.82,0.59383 3.39315,0.60536 2.23001,0.0163 2.89335,-0.26881 2.89335,-1.24374 0,-0.71624 -0.76075,-1.06789 -3.09318,-1.42978 -0.99212,-0.15393 -2.27904,-0.48356 -2.85983,-0.73252 -3.53246,-1.51419 -3.54135,-6.03856 -0.0154,-7.85301 1.09894,-0.56552 1.57338,-0.64815 3.67848,-0.64062 1.54166,0.006 2.92205,0.16544 3.81209,0.44166 2.20122,0.68315 2.19719,0.67704 1.53194,2.31609 -0.31686,0.78071 -0.70555,1.41799 -0.86376,1.41619 -0.1582,-0.002 -1.01131,-0.23012 -1.8958,-0.50737 -2.59597,-0.81375 -4.63659,-0.53117 -4.80972,0.66604 -0.11551,0.79874 0.4519,1.09431 2.90167,1.5115 3.62184,0.6168 5.25692,1.70498 5.58323,3.71576 0.35273,2.17367 -0.77955,4.13852 -2.93416,5.09161 -1.45781,0.64487 -4.69706,0.7994 -6.78578,0.32373 z m -123.88447,-7.3732 v -7.23012 h 2.02951 c 2.01426,0 2.02951,0.005 2.02951,0.65677 v 0.65678 l 0.7726,-0.6501 c 2.40877,-2.02685 6.64979,-1.22722 8.29001,1.56307 0.70335,1.19651 0.7045,1.20641 0.78555,6.716 l 0.0812,5.51772 h -2.04725 -2.04724 v -4.57899 c 0,-4.84104 -0.17975,-5.74696 -1.25439,-6.32209 -0.71755,-0.38402 -2.2123,-0.31817 -3.0909,0.13617 -1.27263,0.65811 -1.48954,1.59652 -1.48954,6.44406 v 4.32085 h -2.02951 -2.02951 z m 51.61713,6.91301 c -0.22562,-0.59939 -4.68479,-14.00575 -4.68479,-14.08468 0,-0.0434 0.93793,-0.0458 2.08429,-0.005 l 2.0843,0.0737 1.45645,4.78806 c 0.80105,2.63342 1.50706,4.83865 1.56891,4.90049 0.0618,0.0618 0.23146,-0.26622 0.37692,-0.72904 0.14546,-0.46281 0.85212,-2.69658 1.57035,-4.96391 l 1.30587,-4.12244 h 2.10764 2.10765 l 1.59439,4.95117 c 0.87691,2.72315 1.66519,4.86364 1.75174,4.75666 0.0865,-0.10699 0.39915,-0.99364 0.69468,-1.97034 0.29554,-0.9767 0.94978,-3.11719 1.45387,-4.75665 l 0.91652,-2.98084 h 2.03788 c 1.82573,0 2.02311,0.0462 1.89605,0.44395 -0.078,0.24418 -1.15145,3.46919 -2.38545,7.1667 l -2.24364,6.72274 h -2.34545 -2.34545 l -1.58565,-4.82008 -1.58564,-4.82008 -1.57323,4.8835 -1.57322,4.8835 h -2.28282 c -1.59346,0 -2.31886,-0.0958 -2.40217,-0.31711 z m 40.72541,-6.91301 v -7.23012 h 1.90266 c 1.87781,0 1.90267,0.009 1.90267,0.65677 v 0.65678 l 0.76894,-0.64703 c 1.18297,-0.9954 3.21637,-1.4244 4.77444,-1.00729 0.57345,0.15352 0.58962,0.22362 0.41903,1.81657 -0.2497,2.33163 -0.22259,2.29545 -1.50057,2.00301 -1.45271,-0.33243 -2.7214,-0.0653 -3.46994,0.73072 -0.59497,0.63268 -0.61348,0.77889 -0.69017,5.45041 l -0.0788,4.8003 h -2.01413 -2.01413 z m 12.68442,-3.55164 v -10.78175 h 2.0295 2.02951 v 6.08852 6.08852 l 0.69764,-0.0108 c 0.57738,-0.009 1.03757,-0.44623 2.66949,-2.53688 l 1.97185,-2.52613 h 2.44849 2.4485 l -0.5045,0.5708 c -0.67411,0.7627 -4.45028,5.27414 -4.88387,5.83481 -0.35285,0.45628 -0.29997,0.53694 4.73939,7.23014 l 0.62076,0.82449 h -2.43229 -2.4323 l -2.05602,-2.91742 c -1.65917,-2.3543 -2.17484,-2.91742 -2.67159,-2.91742 h -0.61555 v 2.91742 2.91742 h -2.02951 -2.0295 z M 135.27034,271.99776 c -0.44203,-0.11284 -1.33158,-0.51454 -1.97678,-0.89265 -5.20672,-3.05134 -4.227,-12.28204 1.48357,-13.9779 2.23525,-0.6638 4.02834,-0.40629 5.67302,0.81472 l 0.82449,0.6121 v -0.64713 c 0,-0.63619 0.0322,-0.64713 1.90266,-0.64713 h 1.90267 v 7.23012 7.23011 h -1.90267 c -1.85185,0 -1.90266,-0.0167 -1.90266,-0.62374 v -0.62374 l -1.20502,0.74436 c -1.30956,0.80895 -3.37372,1.1448 -4.79928,0.78088 z m 4.21284,-4.03926 c 2.41418,-1.29474 2.41657,-5.77868 0.004,-7.0264 -0.96513,-0.49909 -2.91038,-0.47513 -3.7938,0.0467 -2.48589,1.46845 -2.24,6.11713 0.3809,7.20121 0.88222,0.36491 2.51329,0.25892 3.40915,-0.22153 z m 34.46733,3.92947 c -2.33861,-0.66019 -4.12429,-2.29057 -4.89202,-4.46656 -0.51263,-1.45293 -0.49289,-4.42868 0.0397,-5.99186 0.6088,-1.78671 2.62959,-3.7489 4.40336,-4.27566 5.0111,-1.48813 9.30413,1.56632 9.45118,6.72443 l 0.0536,1.88001 -5.13719,0.0687 c -5.83005,0.0779 -5.90468,0.11144 -4.15228,1.86384 0.93888,0.93888 1.0604,0.98476 2.6003,0.98185 1.23133,-0.002 1.86574,-0.14621 2.66831,-0.60517 l 1.05291,-0.6021 1.20931,1.22777 1.20931,1.22777 -0.61325,0.51311 c -1.62541,1.36 -5.61972,2.09573 -7.89328,1.4539 z m 5.12274,-9.11048 c -0.002,-0.53199 -0.95374,-1.91609 -1.53043,-2.22472 -0.29908,-0.16006 -1.03696,-0.29102 -1.63973,-0.29102 -1.3637,0 -2.04414,0.35348 -2.67635,1.39033 -0.85957,1.40973 -0.79874,1.44252 2.67635,1.44252 2.36827,0 3.17087,-0.0803 3.17016,-0.31711 z m -29.93427,1.7124 v -7.23012 h 2.0295 2.02951 v 7.23012 7.23011 h -2.02951 -2.0295 z m 8.11802,0 v -7.23012 h 1.90267 c 1.89345,0 1.90266,0.003 1.90266,0.67844 v 0.67844 l 0.57426,-0.53949 c 0.85612,-0.80428 2.30238,-1.32525 3.66687,-1.32088 1.81295,0.006 1.91427,0.13648 1.71036,2.20594 l -0.175,1.77589 -1.9926,-0.0268 c -1.85567,-0.0249 -2.04108,0.0215 -2.69798,0.67602 l -0.70538,0.7028 -0.0788,4.81492 -0.0788,4.81492 h -2.01413 -2.01413 z m -6.72274,-9.69011 c -1.47159,-0.36994 -2.25907,-2.20344 -1.54195,-3.59019 0.79579,-1.5389 2.72349,-1.81325 3.97151,-0.56523 1.74218,1.74219 -0.0225,4.76051 -2.42956,4.15542 z" class="color353535 svgShape color6e6e6e" transform="translate(-37.516 -244.321)"></path></svg></svg></g></svg>