<svg id="SvgjsSvg1001" width="288" height="288" xmlns="http://www.w3.org/2000/svg" version="1.1" xmlns:xlink="http://www.w3.org/1999/xlink" xmlns:svgjs="http://svgjs.com/svgjs"><defs id="SvgjsDefs1002"></defs><g id="SvgjsG1008"><svg xmlns="http://www.w3.org/2000/svg" viewBox="0 0 226.772 72.628" width="288" height="288"><g transform="matrix(.39687 0 0 .39687 -1.031 -1.19)" fill="#b2b6c1" class="color000 svgShape"><path fill="#b2b6c1" d="m 238.34856,184.01513 c -3.9333,-1.0311 -9.4044,-2.84393 -12.15801,-4.02851 l -5.00657,-2.15376 2.50049,-5.66643 c 1.37527,-3.11654 2.62127,-5.79133 2.76889,-5.94398 0.14762,-0.15265 4.3042,1.07457 9.23684,2.72716 16.28114,5.45468 30.92249,5.03908 42.64809,-1.2106 6.4265,-3.42529 9.45846,-6.80489 12.82371,-14.29406 1.8305,-4.07367 2.29244,-7.2355 2.62175,-17.94495 l 0.39975,-13 -3.06421,4.09491 C 277.25524,145.1224 244.85332,145.271 226.82598,126.88975 216.64962,116.51361 211.75144,102.48251 211.85342,84 c 0.0933,-16.909336 4.87485,-30.603001 14.08721,-40.343709 10.99466,-11.625232 27.7728,-16.169828 44.84085,-12.145773 8.45462,1.993307 13.58535,4.761229 18.83169,10.159316 L 294,46.183552 V 39.591776 33 h 7.54476 7.54475 l -0.31477,58.75 c -0.30789,57.46697 -0.36216,58.8752 -2.48507,64.48308 -5.4469,14.38853 -15.59577,23.38003 -31.26957,27.70361 -9.86956,2.72249 -26.4502,2.75796 -36.67154,0.0784 z m 38.27118,-60.29526 c 11.4085,-5.84168 17.32112,-18.87936 17.3629,-38.286211 0.0569,-26.429753 -9.91865,-39.902335 -30.49553,-41.186081 -19.53847,-1.218962 -32.04546,9.067589 -35.55944,29.246375 -3.53423,20.295066 3.20888,40.459057 16.14815,48.287947 7.46367,4.51588 10.19532,5.19884 19.42418,4.85638 6.26945,-0.23265 9.1075,-0.86396 13.11974,-2.91841 z M 46,142.50701 C 25.825728,137.95022 10.288132,123.38091 4.4005572,103.5 2.2366784,96.193108 1.9727145,80.861837 3.8754279,73 10.389985,46.082447 34.670512,28.560635 63,30.333311 c 10.246527,0.641162 20.574403,3.949761 28.266106,9.055222 8.483869,5.631272 8.5039,5.689879 4.063857,11.890327 l -3.842554,5.366064 -3.993704,-2.949332 C 85.297167,52.07346 80.575,49.340852 77,47.62313 70.934654,44.708843 69.764432,44.5 59.5,44.5 49.564159,44.5 47.926309,44.768666 42.569866,47.277145 26.650548,54.732329 18,68.712218 18,86.983759 c 0,19.613091 11.778777,36.309451 29.282239,41.507421 14.534257,4.31621 32.336045,0.15461 43.875489,-10.25696 l 3.657729,-3.30022 3.247229,5.67556 c 3.886824,6.79347 3.720964,7.21756 -5.151018,13.17073 C 80.395881,142.17848 60.736599,145.83559 46,142.50701 Z m 93,-0.0606 C 113.63772,137.00479 94.034727,112.61448 94.034727,86.5 c 0,-24.818758 17.706783,-47.759497 42.517553,-55.08535 8.3899,-2.477279 22.91193,-2.265703 31.44772,0.458171 18.05443,5.761386 32.41856,20.121801 38.13702,38.127179 2.71474,8.547738 2.91937,23.063597 0.44405,31.5 -3.08098,10.50062 -8.18767,18.87205 -16.09299,26.38133 C 176.2111,141.44307 158.14419,146.55388 139,142.44639 Z m 221.25058,0.44502 c -20.93007,-3.48789 -38.84012,-20.32778 -43.74501,-41.13114 -1.91501,-8.122254 -1.91045,-22.747297 0.009,-30.300171 C 320.30163,56.56373 330.1939,42.92231 341.70141,36.728148 348.16479,33.249097 360.67669,30 367.61074,30 c 20.2204,0 35.93153,10.886273 42.44127,29.407641 2.53338,7.207934 4.27054,19.723741 3.42897,24.704942 L 412.8242,88 h -41.47337 -41.47338 l 0.64223,4.75 c 0.91072,6.735799 2.28175,10.91294 5.74988,17.51834 3.78566,7.21015 9.08887,12.05747 17.60706,16.09345 6.2357,2.95453 7.29649,3.13763 18.12338,3.12833 10.64016,-0.009 11.98587,-0.2333 17.99828,-2.99799 3.57406,-1.64346 8.39891,-4.43888 10.72189,-6.21205 l 4.22361,-3.22395 3.42571,5.72193 3.42572,5.72194 -2.64761,2.28717 c -4.47931,3.86952 -18.27808,10.17154 -25.6476,11.71348 -7.68639,1.60824 -15.18708,1.7343 -23.24942,0.39076 z M 397.67727,69.922824 C 396.45226,59.57957 390.35292,50.374583 381.63445,45.711376 378.15922,43.852597 375.90553,43.5 367.5,43.5 c -8.72704,0 -10.71896,0.337074 -15.64796,2.647962 -3.10638,1.456378 -7.4808,4.480797 -9.72093,6.72093 C 337.84152,57.158475 332.72978,66.27534 331.54464,71.75 L 330.84109,75 h 33.71875 33.71874 z m 156.0003,70.109206 C 543.10353,136.65335 536.34699,130.14032 532.3779,119.5 c -1.65838,-4.44579 -1.89901,-8.74091 -2.17093,-38.75 L 529.90116,47 H 522.95058 516 V 40.5 34 h 7 7 V 18.5 3 h 7.5 7.5 V 18.5 34 h 13.54772 13.54771 l -0.29771,6.25 -0.29772,6.25 -13.30116,0.279381 -13.30117,0.279382 0.30117,32.220618 L 545.5,111.5 l 2.76453,5.24543 c 1.63973,3.11122 4.29388,6.2575 6.52336,7.7329 4.17032,2.75979 13.10893,4.83665 16.81409,3.90672 2.36224,-0.59289 2.39802,-0.4958 2.39802,6.50654 V 142 l -7.25,-0.0538 c -4.16869,-0.0309 -9.72458,-0.84447 -13.07243,-1.91419 z M 420,87 V 33 h 7.64714 7.64714 l -0.56105,12.177295 c -0.54049,11.731211 -0.50177,12.054919 1.05689,8.836626 2.66825,-5.509329 11.73689,-14.483171 18.0209,-17.832513 11.9111,-6.34855 27.69222,-7.770542 39.68049,-3.575496 7.65326,2.678097 14.74659,10.320759 17.62653,18.991588 2.21325,6.663577 2.3052,8.330326 2.65647,48.1525 L 514.13837,141 H 506.56919 499 l -0.008,-35.25 C 498.98821,85.966766 498.5242,67.647972 497.93494,64 495.43508,48.523909 485.51061,42.016313 468.9599,45.000704 455.72103,47.387912 444.72727,56.0217 438.68498,68.776671 L 435.5,75.5 435.18805,108.25 434.87611,141 H 427.43805 420 Z" class="color828282 svgShape"></path><path fill="#d3d5dc" d="m 143.40211,143.04065 c -12.57089,-1.93609 -22.73615,-7.15318 -32.01286,-16.4299 C 100.28742,115.50893 94.736194,102.52096 94.672798,87.5 94.604282,71.266078 100.11339,57.763267 111.36725,46.58196 c 29.35699,-29.16775 78.44245,-18.620113 93.26289,20.040621 3.49371,9.113737 4.36705,23.888443 1.97332,33.383759 -4.89327,19.4104 -19.57882,35.17439 -38.10346,40.90162 -7.31496,2.26155 -18.23577,3.18955 -25.09789,2.13269 z" class="color646464 svgShape"></path></g></svg></g></svg>