<svg id="SvgjsSvg1001" width="288" height="288" xmlns="http://www.w3.org/2000/svg" version="1.1" xmlns:xlink="http://www.w3.org/1999/xlink" xmlns:svgjs="http://svgjs.com/svgjs"><defs id="SvgjsDefs1002"></defs><g id="SvgjsG1008"><svg xmlns="http://www.w3.org/2000/svg" viewBox="0 0 226.772 88.076" width="288" height="288"><path fill="#b2b6c1" d="M 55.557122,117.10011 C 43.716988,114.95767 33.606554,107.10982 28.934854,96.435575 26.4884,90.845739 25.573873,85.911354 25.844392,79.760807 26.580617,63.021906 37.968242,49.610225 54.46746,46.050231 c 3.330441,-0.7186 9.475074,-0.847757 13.35681,-0.280749 6.997795,1.022171 13.787458,4.112239 19.017766,8.65524 3.420355,2.970896 7.69586,8.612515 7.69586,10.154861 0,0.377224 -0.409262,0.796431 -1.207797,1.237147 -0.664289,0.366623 -3.550932,1.998862 -6.414759,3.627197 -2.863832,1.628334 -5.377432,2.895193 -5.585781,2.815242 -0.208345,-0.07995 -0.804738,-0.953303 -1.325317,-1.940786 -1.330163,-2.523188 -4.918744,-6.052571 -7.547578,-7.423082 -6.582694,-3.431801 -15.327596,-3.127042 -21.149097,0.737053 -2.876913,1.909584 -4.984722,4.312632 -6.530599,7.44533 -6.159101,12.481323 -0.517861,26.967602 11.911997,30.589106 2.647006,0.77122 7.01268,0.96711 9.856462,0.44228 3.095618,-0.57131 5.183737,-1.40747 7.673588,-3.072787 2.37067,-1.585602 3.9141,-3.205204 5.71987,-6.002153 0.779766,-1.207776 1.423361,-1.911709 1.737663,-1.900562 0.274555,0.0097 3.248706,1.588968 6.609222,3.509405 4.424584,2.528517 6.133624,3.649219 6.195567,4.062733 0.127682,0.852435 -2.997256,5.334074 -5.542813,7.949244 -5.329775,5.47552 -12.275009,9.14115 -19.801589,10.45109 -3.144559,0.54729 -10.540311,0.54406 -13.579813,-0.006 z m 76.919808,0.24953 c -10.22247,-1.32498 -18.73612,-6.09577 -24.46297,-13.7083 -4.00635,-5.325523 -6.36165,-11.394095 -7.26244,-18.712103 -0.848082,-6.889765 1.1001,-15.569072 4.97527,-22.165229 5.12524,-8.723984 13.1125,-14.360044 23.50326,-16.584638 4.24356,-0.908518 12.17287,-0.913883 16.38591,-0.01108 9.57474,2.051738 17.28231,7.138853 22.35029,14.751548 4.30004,6.459179 6.16464,12.709001 6.17306,20.691175 0.007,6.238453 -1.06494,10.992205 -3.64781,16.183266 -5.26195,10.575461 -14.8989,17.531861 -26.78917,19.337661 -2.44145,0.37078 -9.0548,0.49904 -11.2254,0.2177 z m 11.3675,-16.127 c 5.38405,-1.824442 9.35441,-5.280573 11.77376,-10.248868 1.60506,-3.296081 2.11214,-5.612141 2.11551,-9.662376 0.005,-6.061193 -1.86766,-10.731607 -5.92547,-14.777749 -2.5388,-2.531499 -4.53378,-3.824891 -7.48011,-4.849522 -5.45186,-1.895969 -10.88652,-1.532206 -16.2561,1.088083 -3.27461,1.597968 -6.73586,5.005839 -8.44648,8.316218 -6.55224,12.679851 -0.0287,27.648518 13.38149,30.704564 2.85468,0.65055 8.03971,0.37767 10.8374,-0.57035 z m 52.29049,14.02845 c -5.9533,-0.99903 -9.97916,-5.02505 -11.34635,-11.34679 -0.41396,-1.91406 -0.45303,-5.811774 -0.38315,-38.223215 l 0.0778,-36.091811 7.81515,-0.07588 c 7.09516,-0.06889 7.84789,-0.03116 8.17039,0.409552 0.27958,0.382033 0.35533,7.843449 0.35568,35.030937 6.4e-4,39.066967 -0.18993,35.937697 2.26223,37.174247 1.1223,0.56595 1.69542,0.63942 4.98749,0.63942 2.51401,0 3.83,0.11053 4.0605,0.34103 0.48201,0.48201 0.48201,11.62437 0,12.10638 -0.40043,0.40044 -13.65056,0.43036 -15.99976,0.0361 z m 37.51275,0 c -4.6119,-0.77393 -7.96652,-3.29959 -9.98852,-7.52025 -1.95444,-4.07964 -1.87543,-2.38368 -1.93913,-41.623474 -0.0316,-19.459739 0.0471,-35.67111 0.17498,-36.02527 l 0.23244,-0.643926 7.87882,0.07555 7.87884,0.07555 0.19751,0.710468 c 0.10862,0.390757 0.21024,4.693173 0.22583,9.560923 0.025,7.791432 0.0821,8.871094 0.47786,9.022952 0.24724,0.09488 3.03512,0.172499 6.19529,0.172499 4.09,0 5.84402,0.09827 6.08679,0.341025 0.24261,0.242621 0.34102,1.989312 0.34102,6.053194 0,4.063882 -0.0984,5.810574 -0.34102,6.053194 -0.24318,0.243168 -2.0209,0.341025 -6.1953,0.341025 -4.1744,0 -5.95212,0.09786 -6.19529,0.341025 -0.25833,0.258326 -0.34077,4.858404 -0.33996,18.969515 0.002,17.974741 0.0205,18.660418 0.5558,19.53831 1.02881,1.68731 1.84226,1.90637 7.68458,2.06947 2.89161,0.0807 5.41733,0.25024 5.61269,0.37669 0.49668,0.32145 0.50992,11.5797 0.0143,12.0754 -0.40113,0.40114 -16.19907,0.4319 -18.55745,0.0361 z" transform="translate(-25.799 -29.438)" class="color6c6c6c svgShape"></path></svg></g></svg>