<svg id="SvgjsSvg1001" width="288" height="288" xmlns="http://www.w3.org/2000/svg" version="1.1" xmlns:xlink="http://www.w3.org/1999/xlink" xmlns:svgjs="http://svgjs.com/svgjs"><defs id="SvgjsDefs1002"></defs><g id="SvgjsG1008"><svg xmlns="http://www.w3.org/2000/svg" xmlns:svgjs="http://svgjs.com/svgjs" xmlns:xlink="http://www.w3.org/1999/xlink" viewBox="0 0 288 288" width="288" height="288"><svg xmlns="http://www.w3.org/2000/svg" viewBox="0 0 226.772 79.12" width="288" height="288"><path fill="#b2b6c1" d="m 325.52957,285.08936 c -1.36419,-0.13482 -3.60225,-0.45465 -4.60897,-0.65864 -17.08158,-3.46129 -29.8863,-17.64061 -31.60908,-35.00237 -0.18077,-1.82182 -0.18285,-5.94457 -0.004,-7.66165 1.25682,-12.05648 7.57541,-22.53989 17.60649,-29.21156 9.15117,-6.08644 20.67626,-8.05593 31.42475,-5.37008 7.80116,1.94937 14.80803,6.21995 20.10729,12.25511 9.15102,10.42178 12.17071,24.64956 8.06695,38.00897 -1.39876,4.55354 -3.82972,9.08177 -7.00517,13.04875 -1.22034,1.52453 -3.95347,4.30969 -5.42676,5.53007 -5.77343,4.78231 -12.55448,7.75581 -20.1717,8.84531 -1.2548,0.17947 -7.19939,0.33277 -8.37994,0.21609 z m 5.44695,-4.96174 c 10.11132,-0.92609 18.69361,-8 21.4891,-17.7123 0.71304,-2.4773 0.9389,-4.127 0.94217,-6.88159 0.005,-4.22567 -0.75243,-7.45857 -2.62247,-11.1932 -3.70074,-7.39068 -10.94531,-12.44153 -19.24516,-13.41752 -1.55913,-0.18334 -5.55646,-0.0818 -6.9683,0.17698 -5.0356,0.92304 -9.32133,3.08112 -12.85723,6.47428 -4.16087,3.9929 -6.70517,8.92934 -7.48536,14.52305 -0.21721,1.55734 -0.24979,4.86024 -0.0628,6.37253 0.5477,4.43081 2.35761,8.81219 5.06387,12.25847 0.30633,0.3901 0.55697,0.67636 0.55697,0.63612 0,-0.0402 -0.13025,-0.61108 -0.28945,-1.26855 -0.15919,-0.65746 -0.35544,-1.71968 -0.4361,-2.36047 -0.19718,-1.56658 -0.0794,-4.66015 0.23358,-6.13327 l 0.23674,-1.11438 -0.25537,-1.22003 c -0.21448,-1.02471 -0.25564,-1.63209 -0.25706,-3.79387 -0.001,-2.22814 0.0345,-2.74035 0.26814,-3.81365 1.743,-8.00874 7.62127,-13.89234 15.5834,-15.59756 1.0634,-0.22775 1.63495,-0.27016 3.71112,-0.27541 2.84194,-0.007 3.98087,0.15751 6.28495,0.90888 3.05806,0.99726 5.41866,2.46739 7.84966,4.88862 3.05143,3.03916 4.85657,6.55569 5.56938,10.84948 0.28831,1.73669 0.26096,4.62348 -0.061,6.44318 -1.45395,8.2168 -7.92439,14.68585 -16.11971,16.11627 -1.85225,0.3233 -4.31469,0.35511 -5.49851,0.071 -3.76227,-0.9028 -6.54378,-3.62208 -7.48226,-7.31485 -0.27218,-1.07099 -0.33459,-3.15799 -0.12656,-4.23184 0.34596,-1.78584 1.22214,-3.48086 2.49889,-4.83429 1.34459,-1.42533 2.65846,-2.23919 4.5344,-2.80876 0.92069,-0.27954 1.25929,-0.31998 2.67051,-0.31902 1.94568,0.001 2.94595,0.23369 4.53172,1.0527 1.92828,0.99592 3.44311,2.53699 4.3785,4.45432 0.64619,1.32454 0.91318,2.41469 0.97455,3.9791 0.0295,0.75231 0.0731,1.38734 0.097,1.41117 0.0806,0.0806 1.65889,-1.6958 2.24049,-2.52162 0.75436,-1.07111 1.71065,-3.02975 1.71163,-3.50567 8.9e-4,-0.2154 -0.26681,-0.90694 -0.62754,-1.62389 -2.18799,-4.34852 -6.29818,-7.34119 -11.09163,-8.07592 -1.43221,-0.21952 -3.8629,-0.159 -5.19054,0.12925 -5.21472,1.13218 -9.45192,4.91732 -11.07374,9.8923 -0.57395,1.76061 -0.72862,2.78852 -0.71956,4.7821 0.009,2.03357 0.33108,3.68784 1.06167,5.45699 1.52046,3.68186 4.57451,6.72555 8.20065,8.17285 2.40072,0.95818 4.72778,1.24767 7.78137,0.96799 z m -0.23736,-10.24711 c 1.07,-0.50564 1.7937,-1.18662 2.31466,-2.17802 0.73799,-1.4044 0.78063,-3.07443 0.11353,-4.44725 -0.41926,-0.8628 -1.4723,-1.90342 -2.3704,-2.34243 -0.66185,-0.32353 -0.82172,-0.35112 -2.03512,-0.35112 -1.22917,0 -1.36867,0.0249 -2.09499,0.37419 -0.98899,0.47559 -1.63089,1.04013 -2.13284,1.87579 -1.33975,2.23048 -0.79552,4.98931 1.29394,6.55931 1.36414,1.02499 3.37828,1.23396 4.91122,0.50953 z m -30.19129,-4.99853 c -0.5133,-1.50674 -1.07354,-3.94138 -1.31094,-5.697 -0.20882,-1.54423 -0.20732,-5.85682 0.003,-7.34294 0.14197,-1.00531 0.14195,-1.39087 -9e-5,-2.6337 -0.20685,-1.80946 -0.20744,-5.74612 -0.001,-7.26207 1.56974,-11.53221 9.26321,-20.92166 20.09979,-24.5307 3.07927,-1.02552 5.93643,-1.47752 9.36391,-1.48135 4.67193,-0.005 8.79266,0.92046 12.86305,2.88957 9.40658,4.55054 15.67513,13.51097 16.71461,23.89226 0.16315,1.62938 0.0876,5.67236 -0.12874,6.89187 -0.10809,0.60925 -0.10352,1.02498 0.021,1.91541 0.24355,1.74106 0.20727,6.65728 -0.0616,8.35565 -0.26201,1.65464 -0.78218,3.79507 -1.26916,5.22248 -0.20042,0.58743 -0.34676,1.0857 -0.3252,1.10726 0.0216,0.0216 0.36342,-0.43214 0.75971,-1.00822 3.29752,-4.79352 5.382,-10.51207 5.91186,-16.21857 0.18381,-1.97953 0.0813,-6.79266 -0.1788,-8.39118 -1.3018,-8.00204 -4.61625,-14.42801 -10.26098,-19.89369 -5.55094,-5.37487 -12.37499,-8.60284 -20.15507,-9.53393 -1.89932,-0.2273 -6.33658,-0.19459 -8.20036,0.0605 -6.75594,0.92449 -12.3802,3.3554 -17.71757,7.65786 -1.23345,0.99428 -3.82044,3.61249 -4.93443,4.99397 -2.94938,3.65759 -5.3682,8.44599 -6.50297,12.87358 -2.37312,9.25926 -1.0239,18.64374 3.84735,26.76022 0.69873,1.16423 1.78301,2.73885 1.88595,2.73885 0.0235,0 -0.16678,-0.61474 -0.42275,-1.36609 z m 16.89328,-15.73956 c 2.61999,-1.79055 5.46806,-2.91049 8.56727,-3.36889 1.56219,-0.23106 4.44415,-0.17703 6.09708,0.1143 3.60466,0.63533 7.05218,2.3106 9.86677,4.79461 l 1.08024,0.95337 -0.18229,-0.62488 c -0.25509,-0.87442 -1.11479,-2.66573 -1.74563,-3.63728 -1.8235,-2.8083 -4.57495,-4.91121 -7.80215,-5.96309 -1.71254,-0.55818 -2.76334,-0.71797 -4.68033,-0.71172 -3.06389,0.01 -5.62948,0.798 -8.24402,2.53213 -0.99665,0.66104 -2.63395,2.19331 -3.38536,3.16818 -1.05492,1.36865 -2.24809,3.69853 -2.49859,4.87896 -0.0868,0.40924 -0.0781,0.40434 0.907,-0.51087 0.54708,-0.50825 1.45608,-1.23941 2.02001,-1.62482 z m -9.0692,-15.2721 c 4.54337,-4.28151 10.26143,-6.98682 16.61891,-7.8627 1.47537,-0.20326 5.94132,-0.20376 7.42222,-8.9e-4 7.33527,1.00516 13.33453,4.16221 18.47246,9.72096 l 0.93445,1.01099 -0.24286,-0.62471 c -1.64638,-4.23495 -5.32006,-8.62285 -9.48871,-11.33346 -2.04825,-1.33186 -4.72637,-2.50606 -7.1015,-3.11361 -2.4465,-0.62582 -3.2877,-0.7233 -6.22509,-0.72143 -2.86961,0.002 -3.96745,0.12103 -6.10465,0.66284 -6.16328,1.5625 -11.70989,5.64461 -15.02804,11.06012 -0.58655,0.95729 -1.91073,3.63436 -1.91157,3.86458 -3.6e-4,0.0844 0.34569,-0.24355 0.76889,-0.72878 0.4232,-0.48525 1.27167,-1.35552 1.88549,-1.93396 z m 104.09985,41.89355 c -4.01787,-0.76201 -6.10237,-3.537 -6.38368,-8.49824 -0.12711,-2.24188 0.23334,-4.209 1.10417,-6.02568 0.93434,-1.94922 2.61554,-3.34967 4.71044,-3.92382 1.2184,-0.33393 3.74375,-0.30994 4.87721,0.0463 2.49797,0.78518 4.01306,2.53274 4.75232,5.4815 0.18958,0.7562 0.4236,3.00706 0.42536,4.09134 l 10e-4,0.6274 -6.0156,0.031 -6.01559,0.031 0.0309,0.65843 c 0.0959,2.04159 0.96863,3.58535 2.37987,4.20961 0.7455,0.32977 2.03668,0.45641 3.36859,0.33041 1.4419,-0.13642 2.6686,-0.46961 3.96403,-1.07666 0.55477,-0.25997 1.02744,-0.45393 1.05035,-0.43101 0.0229,0.0229 0.18739,0.67453 0.36547,1.44804 l 0.32379,1.40637 -0.29455,0.22684 c -0.47289,0.36417 -1.9638,0.94449 -3.08674,1.20149 -1.40745,0.32212 -4.28066,0.40773 -5.55739,0.16558 z m 5.95324,-11.52099 c -0.27067,-2.0093 -0.96856,-3.16508 -2.27249,-3.76347 -0.50488,-0.23171 -0.79528,-0.27432 -1.85556,-0.27233 -1.09467,0.002 -1.342,0.042 -1.91541,0.30899 -0.36213,0.16865 -0.82251,0.44546 -1.02307,0.61515 -0.68976,0.58357 -1.36644,2.17991 -1.36977,3.23137 l -0.001,0.44892 h 4.25716 4.25715 z m 21.17459,11.53343 c -1.14606,-0.21899 -1.63359,-0.38368 -2.56322,-0.86586 -0.91883,-0.47659 -2.00135,-1.50532 -2.57157,-2.44377 -0.96835,-1.59373 -1.46028,-4.05538 -1.33625,-6.68687 0.13811,-2.9308 0.90874,-4.91941 2.53242,-6.53497 1.04129,-1.03608 1.94887,-1.56811 3.316,-1.94386 1.07303,-0.29491 3.71405,-0.28789 4.70961,0.0125 1.86969,0.56418 3.25842,1.72566 4.09903,3.4283 0.73566,1.49005 0.99632,2.68785 1.07454,4.93764 l 0.0655,1.88548 h -6.00144 -6.00147 l 0.002,0.44893 c 0.003,0.64457 0.30186,1.96533 0.59537,2.6309 0.33186,0.75252 1.09187,1.51374 1.82717,1.83007 1.70382,0.73296 5.00929,0.40331 7.37307,-0.73531 0.54933,-0.2646 1.0144,-0.46367 1.0335,-0.44236 0.10027,0.11188 0.67196,2.8576 0.61438,2.95076 -0.16281,0.26344 -1.91282,0.99464 -3.06565,1.28091 -1.56251,0.38801 -4.33751,0.50843 -5.70311,0.24749 z m 5.80161,-11.713 c -0.20432,-1.50877 -0.80481,-2.715 -1.61843,-3.251 -1.30705,-0.86104 -3.43453,-0.87594 -4.83737,-0.0339 -1.08078,0.64874 -1.70536,1.75589 -1.95441,3.46445 l -0.0829,0.56863 h 4.29719 4.29721 z m 12.58422,11.64851 c -3.00495,-0.63408 -5.16031,-2.76677 -5.99525,-5.93221 -0.36053,-1.36686 -0.44498,-4.2644 -0.16737,-5.74328 0.39387,-2.09831 1.36954,-3.96154 2.65935,-5.0785 0.69867,-0.60505 2.21108,-1.37158 3.27074,-1.65772 1.16784,-0.31533 4.14487,-0.27472 5.44696,0.0743 0.82462,0.22106 2.53118,0.95624 3.03254,1.30643 0.13041,0.0911 0.0991,0.39212 -0.17218,1.65452 -0.18239,0.84874 -0.34426,1.56148 -0.35973,1.58386 -0.0155,0.0224 -0.56654,-0.22885 -1.2246,-0.55828 -1.58978,-0.79588 -2.60969,-1.01703 -4.42085,-0.95862 -1.19923,0.0387 -1.50123,0.0904 -2.06817,0.35386 -1.91307,0.88917 -2.50497,2.24342 -2.50497,5.73131 0,3.44044 0.60617,4.86754 2.41924,5.69543 0.65837,0.30064 0.92054,0.34795 2.1539,0.38866 1.8006,0.0594 2.83571,-0.16251 4.38317,-0.93988 0.63575,-0.31938 1.19006,-0.54352 1.23178,-0.49811 0.0417,0.0454 0.21709,0.74983 0.38968,1.56535 0.36045,1.70317 0.42366,1.53825 -0.82468,2.15195 -2.09248,1.0287 -4.88366,1.36017 -7.24956,0.86092 z m 17.24562,0.061 c -1.77976,-0.3759 -3.07637,-1.09511 -4.25617,-2.36086 -1.12539,-1.20738 -1.7429,-2.44061 -2.17155,-4.33681 -0.29876,-1.32155 -0.26923,-4.041 0.0583,-5.36702 0.50549,-2.0468 1.22976,-3.34527 2.55844,-4.58674 0.91395,-0.85395 1.86632,-1.38271 3.1568,-1.7526 1.25897,-0.36087 3.99031,-0.38947 5.19903,-0.0544 3.02932,0.83966 5.12531,3.12614 5.8849,6.41974 0.38644,1.67563 0.34783,4.28253 -0.0876,5.91407 -0.10715,0.40151 -0.43546,1.23529 -0.72957,1.85284 -0.44197,0.92803 -0.70431,1.29388 -1.51218,2.10886 -1.04931,1.05856 -2.03904,1.63577 -3.49142,2.03619 -0.98172,0.27066 -3.58826,0.34236 -4.60896,0.12677 z m 4.00668,-3.3047 c 0.83888,-0.31838 1.79181,-1.20178 2.18986,-2.03008 0.52246,-1.08718 0.67477,-1.97896 0.67477,-3.95054 0,-2.70885 -0.37823,-3.94572 -1.5617,-5.10705 -0.91624,-0.89909 -1.6727,-1.16767 -3.27448,-1.16263 -1.00807,0.003 -1.39216,0.0567 -1.93955,0.27013 -1.28159,0.49978 -2.20223,1.59147 -2.68705,3.18628 -0.31591,1.03919 -0.31565,4.59045 0,5.62293 0.56873,1.85786 1.55327,2.89123 3.19252,3.3509 0.91331,0.2561 2.47352,0.17365 3.40522,-0.17994 z m -83.61604,-7.59675 v -10.71434 h -4.0104 -4.0104 v -1.73585 -1.73584 h 9.93621 9.9362 v 1.73584 1.73585 h -4.01039 -4.0104 v 10.71434 10.71434 h -1.91541 -1.91541 z m 30.04804,-2.09499 v -12.80932 h 1.85556 1.85555 v 12.80932 12.80933 h -1.85555 -1.85556 z m 63.68749,3.71112 v -9.09822 h 1.85252 1.85251 l 0.033,1.87989 0.033,1.87988 0.45279,-0.91675 c 1.12734,-2.28251 2.94555,-3.33381 5.47302,-3.16448 1.16198,0.0778 2.15859,0.38724 2.90788,0.90276 0.97306,0.66948 1.82044,1.80819 2.12866,2.86047 0.082,0.27982 0.18374,0.50877 0.22614,0.50877 0.0424,0 0.174,-0.26939 0.29241,-0.59866 0.4619,-1.2845 1.53572,-2.56879 2.61157,-3.12341 1.09245,-0.56318 2.97199,-0.73805 4.37561,-0.40712 2.06128,0.48599 3.41398,1.84217 4.05886,4.06934 0.18417,0.63601 0.21274,1.49638 0.24957,7.51201 l 0.0416,6.79373 h -1.85621 -1.85622 l -0.0414,-6.5543 c -0.0454,-7.1764 -0.0346,-7.06498 -0.77035,-7.92458 -0.57349,-0.67 -1.27103,-0.90515 -2.67128,-0.90053 -1.97674,0.007 -3.11075,0.6423 -3.82866,2.14654 l -0.3613,0.75706 v 6.23791 6.2379 h -1.85556 -1.85556 l -10e-4,-6.01559 c -0.001,-6.20806 -0.0593,-7.17037 -0.48613,-8.00693 -0.50864,-0.99699 -1.78998,-1.51614 -3.40364,-1.37903 -1.73469,0.1474 -2.74161,0.79384 -3.43737,2.20676 l -0.39346,0.79906 -0.033,6.19787 -0.0331,6.19786 h -1.85244 -1.85244 v -9.09821 z m -91.58266,-25.25481 c -5.12678,-0.65205 -8.26682,-3.80909 -9.29206,-9.34234 -0.29646,-1.60001 -0.29895,-5.49403 -0.004,-7.00323 0.94039,-4.81959 3.3974,-7.68433 7.56267,-8.81765 1.33503,-0.36325 4.80987,-0.3949 6.16523,-0.0562 1.59282,0.39809 3.53642,1.31259 4.58391,2.15681 l 0.33408,0.26925 -0.54666,1.541 c -0.30067,0.84754 -0.56807,1.56239 -0.59421,1.58854 -0.0262,0.0262 -0.382,-0.17956 -0.79077,-0.45715 -1.0016,-0.68017 -2.53326,-1.3844 -3.53794,-1.62666 -1.0894,-0.2627 -3.30397,-0.26524 -4.38193,-0.005 -2.66901,0.64427 -4.34752,2.47054 -4.9215,5.35475 -0.39814,2.00064 -0.34743,5.79783 0.10092,7.55638 0.6574,2.57849 2.29357,4.35863 4.66629,5.07688 1.11692,0.33811 3.76603,0.31569 5.00299,-0.0423 0.98629,-0.28548 2.24911,-0.87649 3.28066,-1.53539 l 0.622,-0.39731 0.23436,0.62286 c 0.1289,0.34257 0.37424,0.9929 0.54521,1.44518 0.17096,0.45227 0.31083,0.8947 0.31083,0.98317 0,0.34685 -2.12077,1.57473 -3.59139,2.07935 -1.60794,0.55173 -4.11259,0.81713 -5.74822,0.60911 z m 18.91667,-0.0147 c -3.72833,-0.55681 -6.14992,-2.96393 -6.96915,-6.92749 -0.19379,-0.93752 -0.226,-1.45543 -0.17909,-2.87901 0.0999,-3.03169 0.81977,-4.9202 2.53735,-6.65648 1.6167,-1.63431 3.42549,-2.32202 6.10731,-2.32202 4.42491,0 7.30389,2.28203 8.40418,6.66164 0.15345,0.61072 0.20622,1.32537 0.20653,2.79571 0,2.3059 -0.20977,3.32454 -1.03761,5.02796 -0.65519,1.34814 -2.13272,2.8632 -3.36903,3.4546 -1.61264,0.77141 -3.91166,1.11224 -5.70049,0.84509 z m 2.30788,-3.10493 c 2.02571,-0.2929 3.40738,-1.65608 3.86451,-3.81276 0.0982,-0.46323 0.16913,-1.49631 0.17034,-2.4806 0.002,-1.81372 -0.21259,-3.01245 -0.71708,-4.00132 -0.3663,-0.71803 -1.2217,-1.52349 -2.01072,-1.89333 -0.6203,-0.29075 -0.81184,-0.31966 -2.11851,-0.31966 -1.30197,0 -1.4996,0.0296 -2.10935,0.31546 -0.90094,0.42244 -1.54776,1.02991 -1.99992,1.87825 -0.56955,1.0686 -0.73533,1.97738 -0.73735,4.04216 -0.003,2.7472 0.41426,4.07776 1.62857,5.19707 0.78384,0.72252 1.57669,1.02444 3.09833,1.17985 0.0658,0.007 0.48488,-0.0406 0.93118,-0.10512 z m 43.37139,3.10228 c -0.52198,-0.0635 -1.35108,-0.25039 -1.8424,-0.41533 -2.80837,-0.94274 -4.40545,-2.99281 -5.00241,-6.42123 -0.2379,-1.36638 -0.16984,-4.4062 0.12506,-5.58554 0.62163,-2.48595 1.83506,-4.26966 3.60407,-5.29788 1.37815,-0.80104 2.44839,-1.06237 4.35079,-1.06237 2.31681,0 3.79552,0.548 5.16412,1.91381 1.59016,1.58691 2.38856,4.03653 2.39036,7.33404 l 10e-4,1.28692 h -5.98566 -5.98567 l 0.002,0.50878 c 0.003,0.76893 0.30204,2.02428 0.64145,2.69408 0.3753,0.74063 1.2245,1.50365 1.96688,1.76726 0.76924,0.27314 2.53975,0.35937 3.75152,0.18269 1.21386,-0.17697 2.92899,-0.71794 3.7902,-1.19547 0.42293,-0.2345 0.64984,-0.30441 0.6796,-0.20935 0.0246,0.0785 0.18378,0.73528 0.35379,1.45954 l 0.30909,1.31684 -0.33028,0.27038 c -0.46651,0.38191 -2.05895,0.97677 -3.29803,1.23201 -1.31906,0.2717 -3.44376,0.37184 -4.68527,0.22082 z m 5.27132,-11.78521 c -0.15346,-1.49785 -0.73025,-2.621 -1.67051,-3.25288 -0.73717,-0.49539 -1.24155,-0.63022 -2.36066,-0.63105 -1.65133,-0.001 -2.86886,0.56213 -3.56733,1.6506 -0.35842,0.55854 -0.85386,2.1469 -0.85386,2.73742 v 0.28013 h 4.26636 4.26636 z m 13.39533,11.79175 c -3.69217,-0.57746 -6.12797,-2.98972 -6.94453,-6.87742 -0.26642,-1.26842 -0.2667,-3.74389 0,-5.01453 0.61027,-2.91358 2.09701,-4.95261 4.43111,-6.07714 1.39834,-0.67369 2.40525,-0.853 4.4294,-0.78877 1.43297,0.0454 1.82095,0.10202 2.67585,0.39011 1.65647,0.55822 2.88799,1.46659 3.85486,2.84337 1.21401,1.72869 1.707,3.51363 1.7104,6.19284 0.003,2.1171 -0.25846,3.3368 -1.07425,5.01736 -0.98731,2.0339 -2.80942,3.51753 -5.01184,4.08081 -1.08094,0.27646 -3.06694,0.39032 -4.07044,0.23337 z m 3.18497,-3.30048 c 2.15463,-0.67544 3.22112,-2.66213 3.21878,-5.99608 -10e-4,-2.12673 -0.31538,-3.45729 -1.09236,-4.63032 -0.73299,-1.1066 -2.13413,-1.74946 -3.81304,-1.74946 -2.40072,0 -3.97239,1.22026 -4.62565,3.5914 -0.29527,1.07178 -0.30236,4.27273 -0.0118,5.35533 0.42583,1.58688 1.18461,2.60456 2.37689,3.1879 1.10183,0.53907 2.68795,0.636 3.94724,0.24123 z m 14.23332,3.31062 c -1.38462,-0.17676 -2.90997,-0.60062 -3.92062,-1.08946 -0.54319,-0.26272 -0.98694,-0.54349 -0.9861,-0.62391 0.002,-0.19561 0.67172,-2.71495 0.73974,-2.78296 0.0294,-0.0294 0.50763,0.1316 1.06273,0.35779 1.2901,0.52569 2.17332,0.75393 3.54701,0.91665 1.3639,0.16155 2.82584,-0.005 3.53206,-0.40159 1.10419,-0.62059 1.27169,-2.29356 0.3163,-3.15933 -0.45704,-0.41417 -0.72195,-0.51012 -3.1112,-1.12675 -1.33457,-0.34443 -2.64297,-0.7629 -3.15422,-1.0088 -1.59339,-0.76639 -2.4869,-1.94555 -2.68804,-3.54735 -0.29448,-2.34527 0.77204,-4.50413 2.70201,-5.46938 1.4736,-0.73701 1.82786,-0.80468 4.17502,-0.79747 1.99147,0.006 2.2346,0.0311 3.20692,0.33002 1.06307,0.32678 2.71848,1.08836 2.71938,1.25107 0.001,0.14351 -0.62739,2.95713 -0.67158,3.00792 -0.0223,0.0256 -0.40561,-0.14454 -0.85189,-0.37806 -1.51567,-0.79311 -2.3745,-0.9853 -4.40283,-0.9853 -1.64603,0 -1.84361,0.0236 -2.37054,0.28303 -0.88903,0.43774 -1.24503,1.20485 -1.02132,2.20075 0.2243,0.99854 0.78265,1.29455 3.91218,2.07399 4.02102,1.00147 5.27359,2.00369 5.66703,4.5344 0.2767,1.77985 -0.24909,3.54635 -1.39147,4.67485 -0.7537,0.74456 -1.58187,1.19492 -2.74386,1.49211 -1.04766,0.26794 -3.15164,0.39012 -4.26671,0.24778 z m -68.2366,-9.32887 c 0,-7.35089 0.0298,-9.09682 0.15585,-9.14521 0.19853,-0.0762 3.04072,-0.0724 3.33456,0.004 0.20322,0.0531 0.22082,0.21538 0.22217,2.04895 l 0.001,1.99124 0.40736,-0.93306 c 0.44562,-1.02073 0.85798,-1.64099 1.4316,-2.15337 0.87713,-0.7835 2.34969,-1.27813 3.81457,-1.28134 l 0.80809,-0.002 v 1.73585 1.73584 l -0.62849,0.002 c -1.17815,0.004 -2.82217,0.23286 -3.52173,0.49048 -0.90905,0.33477 -1.71363,1.14325 -2.06057,2.07054 -0.24593,0.65732 -0.25373,0.86002 -0.25373,6.59947 v 5.92132 h -1.85556 -1.85555 v -9.08541 z m 13.16846,-0.007 v -9.09906 l 0.28737,-0.0721 c 0.15803,-0.0397 0.97956,-0.0542 1.82562,-0.0322 l 1.53827,0.0399 0.0644,1.97527 c 0.0354,1.0864 0.0758,1.88824 0.0898,1.78186 0.0525,-0.39946 0.88049,-1.88725 1.34225,-2.41184 0.26375,-0.29964 0.72161,-0.68664 1.01746,-0.86004 0.70777,-0.41477 2.18381,-0.78453 3.13182,-0.78453 h 0.75898 v 1.71785 1.71785 l -1.34453,0.0816 c -2.43102,0.14766 -3.53576,0.54926 -4.25114,1.5454 -0.70961,0.98811 -0.68458,0.74339 -0.74913,7.32758 l -0.0599,6.10538 -1.82562,0.0331 -1.82564,0.033 z" class="color323232 svgShape color6e6e6e" transform="translate(-289.175 -206.01)"></path></svg></svg></g></svg>