<svg id="SvgjsSvg1001" width="288" height="288" xmlns="http://www.w3.org/2000/svg" version="1.1" xmlns:xlink="http://www.w3.org/1999/xlink" xmlns:svgjs="http://svgjs.com/svgjs"><defs id="SvgjsDefs1002"></defs><g id="SvgjsG1008"><svg xmlns="http://www.w3.org/2000/svg" viewBox="0 0 226.772 163.71" width="288" height="288"><g transform="matrix(.0886 0 0 .0886 -.017 -.01)" fill="#b2b6c1" class="color000 svgShape"><path fill="#d3d5dc" d="m 327.8125,1847.3169 c 0.72187,-0.2889 1.58438,-0.2534 1.91667,0.079 0.33229,0.3323 -0.25834,0.5687 -1.3125,0.5253 -1.16495,-0.048 -1.4019,-0.285 -0.60417,-0.6042 z M 995.232,1836 c 0,-1.925 0.2058,-2.7125 0.45733,-1.75 0.25152,0.9625 0.25152,2.5375 0,3.5 -0.25153,0.9625 -0.45733,0.175 -0.45733,-1.75 z m -1.15305,-14.5833 c 0.048,-1.165 0.28494,-1.4019 0.60416,-0.6042 0.28887,0.7219 0.25335,1.5844 -0.0789,1.9167 -0.33229,0.3323 -0.56864,-0.2584 -0.52522,-1.3125 z M 120.87244,1760.25 c -1.24387,-1.5861 -1.2085,-1.6214 0.37756,-0.3776 1.66575,1.3064 2.19548,2.1276 1.37244,2.1276 -0.20765,0 -0.99515,-0.7875 -1.75,-1.75 z M 104,1744.5 c -4.09747,-4.125 -7.224945,-7.5 -6.949945,-7.5 0.275,0 3.852475,3.375 7.949945,7.5 4.09747,4.125 7.22494,7.5 6.94994,7.5 -0.275,0 -3.85247,-3.375 -7.94994,-7.5 z m 812.94617,-92.25 -3.44617,-3.75 3.75,3.4462 c 2.0625,1.8954 3.75,3.5829 3.75,3.75 0,0.7636 -0.84622,0.044 -4.05383,-3.4462 z m -10,-10 -3.44617,-3.75 3.75,3.4462 c 2.0625,1.8954 3.75,3.5829 3.75,3.75 0,0.7636 -0.84622,0.044 -4.05383,-3.4462 z M 727.8125,1564.3169 c 0.72187,-0.2889 1.58438,-0.2534 1.91667,0.079 0.33229,0.3323 -0.25834,0.5687 -1.3125,0.5253 -1.16495,-0.048 -1.4019,-0.285 -0.60417,-0.6042 z M 304.87244,1543.25 c -1.24387,-1.5861 -1.2085,-1.6214 0.37756,-0.3776 0.9625,0.7549 1.75,1.5424 1.75,1.75 0,0.8231 -0.82119,0.2933 -2.12756,-1.3724 z M 0.19494872,1510.5 c 0.0203797,-1.65 0.24449859,-2.2039 0.498042,-1.231 0.25354341,0.973 0.23686912,2.323 -0.037054,3 -0.2739231,0.6771 -0.48136771,-0.119 -0.460988,-1.769 z m 284.00000128,-17 c 0.0204,-1.65 0.2445,-2.2039 0.49804,-1.231 0.25354,0.973 0.23687,2.323 -0.0371,3 -0.27393,0.6771 -0.48137,-0.119 -0.46099,-1.769 z m -284.00000128,-18 c 0.0203797,-1.65 0.24449859,-2.2039 0.498042,-1.231 0.25354341,0.973 0.23686912,2.323 -0.037054,3 -0.2739231,0.6771 -0.48136771,-0.119 -0.460988,-1.769 z M 348.8125,1422.3169 c 0.72187,-0.2889 1.58438,-0.2534 1.91667,0.079 0.33229,0.3323 -0.25834,0.5687 -1.3125,0.5253 -1.16495,-0.048 -1.4019,-0.285 -0.60417,-0.6042 z m 1688.4565,-0.01 c 0.973,-0.2535 2.323,-0.2369 3,0.037 0.6771,0.2739 -0.119,0.4813 -1.769,0.461 -1.65,-0.02 -2.2039,-0.2445 -1.231,-0.4981 z m 44,0 c 0.973,-0.2535 2.323,-0.2369 3,0.037 0.6771,0.2739 -0.119,0.4813 -1.769,0.461 -1.65,-0.02 -2.2039,-0.2445 -1.231,-0.4981 z m -760.4565,-0.9901 c 0.7219,-0.2889 1.5844,-0.2534 1.9167,0.079 0.3323,0.3323 -0.2584,0.5687 -1.3125,0.5253 -1.165,-0.048 -1.4019,-0.285 -0.6042,-0.6042 z m 700,0 c 0.7219,-0.2889 1.5844,-0.2534 1.9167,0.079 0.3323,0.3323 -0.2584,0.5687 -1.3125,0.5253 -1.165,-0.048 -1.4019,-0.285 -0.6042,-0.6042 z m 78,0 c 0.7219,-0.2889 1.5844,-0.2534 1.9167,0.079 0.3323,0.3323 -0.2584,0.5687 -1.3125,0.5253 -1.165,-0.048 -1.4019,-0.285 -0.6042,-0.6042 z m -89,-1 c 0.7219,-0.2889 1.5844,-0.2534 1.9167,0.079 0.3323,0.3323 -0.2584,0.5687 -1.3125,0.5253 -1.165,-0.048 -1.4019,-0.285 -0.6042,-0.6042 z m 100,0 c 0.7219,-0.2889 1.5844,-0.2534 1.9167,0.079 0.3323,0.3323 -0.2584,0.5687 -1.3125,0.5253 -1.165,-0.048 -1.4019,-0.285 -0.6042,-0.6042 z M 1202.8724,1371.25 c -1.2438,-1.5861 -1.2085,-1.6214 0.3776,-0.3776 1.6657,1.3064 2.1955,2.1276 1.3724,2.1276 -0.2076,0 -0.9951,-0.7875 -1.75,-1.75 z m 523,-77 c -1.2438,-1.5861 -1.2085,-1.6214 0.3776,-0.3776 0.9625,0.7549 1.75,1.5424 1.75,1.75 0,0.8231 -0.8212,0.2933 -2.1276,-1.3724 z m -17.9262,-17 -3.4462,-3.75 3.75,3.4462 c 3.4904,3.2076 4.2098,4.0538 3.4462,4.0538 -0.1671,0 -1.8546,-1.6875 -3.75,-3.75 z M 849.5,1277 c 0.99549,-1.1 2.03498,-2 2.30998,-2 0.275,0 -0.31449,0.9 -1.30998,2 -0.99549,1.1 -2.03498,2 -2.30998,2 -0.275,0 0.31449,-0.9 1.30998,-2 z M 86,1260.6224 c 0,-0.2076 0.7875,-0.9951 1.75,-1.75 1.586056,-1.2438 1.621426,-1.2085 0.377555,0.3776 C 86.821186,1260.9157 86,1261.4455 86,1260.6224 Z m 1603.8724,-2.3724 c -1.2438,-1.5861 -1.2085,-1.6214 0.3776,-0.3776 0.9625,0.7549 1.75,1.5424 1.75,1.75 0,0.8231 -0.8212,0.2933 -2.1276,-1.3724 z M 98,1247.5 c 1.865783,-1.925 3.61733,-3.5 3.89233,-3.5 0.275,0 -1.02655,1.575 -2.89233,3.5 -1.865783,1.925 -3.617334,3.5 -3.892334,3.5 -0.275,0 1.026551,-1.575 2.892334,-3.5 z m 781,-2.8776 c 0,-0.2076 0.7875,-0.9951 1.75,-1.75 1.58606,-1.2438 1.62143,-1.2085 0.37756,0.3776 -1.30637,1.6657 -2.12756,2.1955 -2.12756,1.3724 z m -772,-6 c 0,-0.2076 0.7875,-0.9951 1.75,-1.75 1.58606,-1.2438 1.62143,-1.2085 0.37756,0.3776 -1.30637,1.6657 -2.12756,2.1955 -2.12756,1.3724 z M 1137.2724,1230 c 0,-2.475 0.195,-3.4875 0.4333,-2.25 0.2384,1.2375 0.2384,3.2625 0,4.5 -0.2383,1.2375 -0.4333,0.225 -0.4333,-2.25 z m 921.4776,-92.6623 c 0.6875,-0.2774 1.8125,-0.2774 2.5,0 0.6875,0.2774 0.125,0.5044 -1.25,0.5044 -1.375,0 -1.9375,-0.227 -1.25,-0.5044 z m -1576.9375,-1.0208 c 0.72187,-0.2889 1.58438,-0.2534 1.91667,0.079 0.33229,0.3323 -0.25834,0.5687 -1.3125,0.5253 -1.16495,-0.048 -1.4019,-0.285 -0.60417,-0.6042 z m 21.45653,-0.01 c 0.97297,-0.2535 2.32297,-0.2369 3,0.037 0.67703,0.2739 -0.11903,0.4813 -1.76903,0.461 -1.65,-0.02 -2.20394,-0.2445 -1.23097,-0.4981 z M 1422.4601,1092.5 c 3e-4,-24.75 0.1303,-34.7318 0.2891,-22.1817 0.1588,12.55 0.1586,32.8 -4e-4,45 -0.159,12.1999 -0.2889,1.9317 -0.2887,-22.8183 z m 617.3524,43.8169 c 0.7219,-0.2889 1.5844,-0.2534 1.9167,0.079 0.3323,0.3323 -0.2584,0.5687 -1.3125,0.5253 -1.165,-0.048 -1.4019,-0.285 -0.6042,-0.6042 z m 39,0 c 0.7219,-0.2889 1.5844,-0.2534 1.9167,0.079 0.3323,0.3323 -0.2584,0.5687 -1.3125,0.5253 -1.165,-0.048 -1.4019,-0.285 -0.6042,-0.6042 z M 648.5,1074 c 2.14824,-2.2 4.1309,-4 4.4059,-4 0.275,0 -1.25766,1.8 -3.4059,4 -2.14824,2.2 -4.1309,4 -4.4059,4 -0.275,0 1.25766,-1.8 3.4059,-4 z m 1259.4462,0.25 -3.4462,-3.75 3.75,3.4462 c 3.4904,3.2076 4.2098,4.0538 3.4462,4.0538 -0.1671,0 -1.8546,-1.6875 -3.75,-3.75 z m -11.0738,-12 c -1.2438,-1.5861 -1.2085,-1.6214 0.3776,-0.3776 0.9625,0.7549 1.75,1.5424 1.75,1.75 0,0.8231 -0.8212,0.2933 -2.1276,-1.3724 z M 2.0789474,971.41667 c 0.047984,-1.16495 0.2849403,-1.4019 0.6041666,-0.60417 0.2888706,0.72187 0.2533443,1.58438 -0.078947,1.91667 -0.3322917,0.33229 -0.5686404,-0.25834 -0.5252196,-1.3125 z m -1,-12 c 0.047984,-1.16495 0.2849403,-1.4019 0.6041666,-0.60417 0.2888706,0.72187 0.2533443,1.58438 -0.078947,1.91667 -0.3322917,0.33229 -0.5686404,-0.25834 -0.5252196,-1.3125 z M 1562.232,948 c 0,-1.925 0.2058,-2.7125 0.4573,-1.75 0.2516,0.9625 0.2516,2.5375 0,3.5 -0.2515,0.9625 -0.4573,0.175 -0.4573,-1.75 z m -567,-6 c 0,-1.925 0.2058,-2.7125 0.45733,-1.75 0.25152,0.9625 0.25152,2.5375 0,3.5 -0.25153,0.9625 -0.45733,0.175 -0.45733,-1.75 z m 851.8469,1.41667 c 0.048,-1.16495 0.285,-1.4019 0.6042,-0.60417 0.2889,0.72187 0.2534,1.58438 -0.079,1.91667 -0.3323,0.33229 -0.5687,-0.25834 -0.5253,-1.3125 z M 0.2320027,940 c 0,-1.925 0.20579527,-2.7125 0.45732281,-1.75 0.25152755,0.9625 0.25152755,2.5375 0,3.5 C 0.43779797,942.7125 0.2320027,941.925 0.2320027,940 Z m 284.8469473,0.41667 c 0.048,-1.16495 0.28494,-1.4019 0.60416,-0.60417 0.28887,0.72187 0.25335,1.58438 -0.0789,1.91667 -0.33229,0.33229 -0.56864,-0.25834 -0.52522,-1.3125 z m 1986.99995,-30 c 0.048,-1.16495 0.285,-1.4019 0.6042,-0.60417 0.2889,0.72187 0.2534,1.58438 -0.079,1.91667 -0.3323,0.33229 -0.5687,-0.25834 -0.5253,-1.3125 z M 0.2320027,908 c 0,-1.925 0.20579527,-2.7125 0.45732281,-1.75 0.25152755,0.9625 0.25152755,2.5375 0,3.5 C 0.43779797,910.7125 0.2320027,909.925 0.2320027,908 Z m 709.8469473,1.41667 c 0.048,-1.16495 0.28494,-1.4019 0.60416,-0.60417 0.28887,0.72187 0.25335,1.58438 -0.0789,1.91667 -0.33229,0.33229 -0.56864,-0.25834 -0.52522,-1.3125 z m -425,-2 c 0.048,-1.16495 0.28494,-1.4019 0.60416,-0.60417 0.28887,0.72187 0.25335,1.58438 -0.0789,1.91667 -0.33229,0.33229 -0.56864,-0.25834 -0.52522,-1.3125 z m 1561.99995,-3 c 0.048,-1.16495 0.285,-1.4019 0.6042,-0.60417 0.2889,0.72187 0.2534,1.58438 -0.079,1.91667 -0.3323,0.33229 -0.5687,-0.25834 -0.5253,-1.3125 z M 1562.1949,900.5 c 0.02,-1.65 0.2445,-2.20394 0.4981,-1.23097 0.2535,0.97297 0.2369,2.32297 -0.037,3 -0.2739,0.67703 -0.4813,-0.11903 -0.461,-1.76903 z M 1.1578947,888 c 0,-1.375 0.2269737,-1.9375 0.504386,-1.25 0.2774123,0.6875 0.2774123,1.8125 0,2.5 -0.2774123,0.6875 -0.504386,0.125 -0.504386,-1.25 z M 1563.0789,884.41667 c 0.048,-1.16495 0.285,-1.4019 0.6042,-0.60417 0.2889,0.72187 0.2534,1.58438 -0.079,1.91667 -0.3323,0.33229 -0.5687,-0.25834 -0.5253,-1.3125 z m 1,-11 c 0.048,-1.16495 0.285,-1.4019 0.6042,-0.60417 0.2889,0.72187 0.2534,1.58438 -0.079,1.91667 -0.3323,0.33229 -0.5687,-0.25834 -0.5253,-1.3125 z M 338,782.62244 c 0,-0.20765 0.7875,-0.99515 1.75,-1.75 1.58606,-1.24387 1.62143,-1.2085 0.37756,0.37756 C 338.82119,782.91575 338,783.44548 338,782.62244 Z m 1562,0 c 0,-0.20765 0.7875,-0.99515 1.75,-1.75 1.5861,-1.24387 1.6214,-1.2085 0.3776,0.37756 -1.3064,1.66575 -2.1276,2.19548 -2.1276,1.37244 z M 653.40499,778.75 651.5,776.5 l 2.25,1.90499 c 2.11444,1.79022 2.70524,2.59501 1.90499,2.59501 -0.18976,0 -1.20226,-1.0125 -2.25,-2.25 z m 1561.51931,-0.5 -2.4243,-2.75 2.75,2.42431 c 1.5125,1.33338 2.75,2.57088 2.75,2.75 0,0.78428 -0.8098,0.14598 -3.0757,-2.42431 z m -1572.99999,-11 -2.42431,-2.75 2.75,2.42431 c 1.5125,1.33338 2.75,2.57088 2.75,2.75 0,0.78428 -0.8098,0.14598 -3.07569,-2.42431 z m 1562.48069,0.5 -1.905,-2.25 2.25,1.90499 c 2.1144,1.79022 2.7052,2.59501 1.905,2.59501 -0.1898,0 -1.2023,-1.0125 -2.25,-2.25 z M 354.5,766 c 0.99549,-1.1 2.03498,-2 2.30998,-2 0.275,0 -0.31449,0.9 -1.30998,2 -0.99549,1.1 -2.03498,2 -2.30998,2 -0.275,0 0.31449,-0.9 1.30998,-2 z m 1560.5,1.62244 c 0,-0.20765 0.7875,-0.99515 1.75,-1.75 1.5861,-1.24387 1.6214,-1.2085 0.3776,0.37756 -1.3064,1.66575 -2.1276,2.19548 -2.1276,1.37244 z M 482.8125,711.31689 c 0.72187,-0.28887 1.58438,-0.25335 1.91667,0.0789 0.33229,0.33229 -0.25834,0.56864 -1.3125,0.52522 -1.16495,-0.048 -1.4019,-0.28494 -0.60417,-0.60416 z m 29,0 c 0.72187,-0.28887 1.58438,-0.25335 1.91667,0.0789 0.33229,0.33229 -0.25834,0.56864 -1.3125,0.52522 -1.16495,-0.048 -1.4019,-0.28494 -0.60417,-0.60416 z m 1535,0 c 0.7219,-0.28887 1.5844,-0.25335 1.9167,0.0789 0.3323,0.33229 -0.2584,0.56864 -1.3125,0.52522 -1.165,-0.048 -1.4019,-0.28494 -0.6042,-0.60416 z m 28,0 c 0.7219,-0.28887 1.5844,-0.25335 1.9167,0.0789 0.3323,0.33229 -0.2584,0.56864 -1.3125,0.52522 -1.165,-0.048 -1.4019,-0.28494 -0.6042,-0.60416 z M 1610,568.5 c 0,-78.00833 0.222,-141.61137 0.4933,-141.34008 0.6583,0.65833 0.6786,282.00154 0.02,282.65977 C 1610.2311,710.1022 1610,646.50833 1610,568.5 Z m 78,24.12244 c 0,-0.20765 0.7875,-0.99515 1.75,-1.75 1.5861,-1.24387 1.6214,-1.2085 0.3776,0.37756 -1.3064,1.66575 -2.1276,2.19548 -2.1276,1.37244 z M 146,571.5 c 5.20327,-5.225 9.6855,-9.5 9.9605,-9.5 0.275,0 -3.75723,4.275 -8.9605,9.5 -5.20327,5.225 -9.6855,9.5 -9.9605,9.5 -0.275,0 3.75723,-4.275 8.9605,-9.5 z m 1561.5,0.5 c 4.9271,-4.95 9.1833,-9 9.4583,-9 0.275,0 -3.5312,4.05 -8.4583,9 -4.9271,4.95 -9.1833,9 -9.4583,9 -0.275,0 3.5312,-4.05 8.4583,-9 z m 18.5,-17.37756 c 0,-0.20765 0.7875,-0.99515 1.75,-1.75 1.5861,-1.24387 1.6214,-1.2085 0.3776,0.37756 -1.3064,1.66575 -2.1276,2.19548 -2.1276,1.37244 z m -1561,-1 c 0,-0.20765 0.7875,-0.99515 1.75,-1.75 1.58606,-1.24387 1.62143,-1.2085 0.37756,0.37756 C 165.82119,553.91575 165,554.44548 165,553.62244 Z M 794.5,510 c 3.8205,-3.85 7.17136,-7 7.44636,-7 0.275,0 -2.62586,3.15 -6.44636,7 -3.8205,3.85 -7.17136,7 -7.44636,7 -0.275,0 2.62586,-3.15 6.44636,-7 z M 447.8125,428.31689 c 0.72187,-0.28887 1.58438,-0.25335 1.91667,0.0789 0.33229,0.33229 -0.25834,0.56864 -1.3125,0.52522 -1.16495,-0.048 -1.4019,-0.28494 -0.60417,-0.60416 z m 99,0 c 0.72187,-0.28887 1.58438,-0.25335 1.91667,0.0789 0.33229,0.33229 -0.25834,0.56864 -1.3125,0.52522 -1.16495,-0.048 -1.4019,-0.28494 -0.60417,-0.60416 z m 1565,0 c 0.7219,-0.28887 1.5844,-0.25335 1.9167,0.0789 0.3323,0.33229 -0.2584,0.56864 -1.3125,0.52522 -1.165,-0.048 -1.4019,-0.28494 -0.6042,-0.60416 z m -1653,-1 c 0.72187,-0.28887 1.58438,-0.25335 1.91667,0.0789 0.33229,0.33229 -0.25834,0.56864 -1.3125,0.52522 -1.16495,-0.048 -1.4019,-0.28494 -0.60417,-0.60416 z m 77,0 c 0.72187,-0.28887 1.58438,-0.25335 1.91667,0.0789 0.33229,0.33229 -0.25834,0.56864 -1.3125,0.52522 -1.16495,-0.048 -1.4019,-0.28494 -0.60417,-0.60416 z m 440.9375,0.0208 c 0.6875,-0.27741 1.8125,-0.27741 2.5,0 0.6875,0.27741 0.125,0.50439 -1.25,0.50439 -1.375,0 -1.9375,-0.22698 -1.25,-0.50439 z m 1043.0625,-0.0208 c 0.7219,-0.28887 1.5844,-0.25335 1.9167,0.0789 0.3323,0.33229 -0.2584,0.56864 -1.3125,0.52522 -1.165,-0.048 -1.4019,-0.28494 -0.6042,-0.60416 z m 81,0 c 0.7219,-0.28887 1.5844,-0.25335 1.9167,0.0789 0.3323,0.33229 -0.2584,0.56864 -1.3125,0.52522 -1.165,-0.048 -1.4019,-0.28494 -0.6042,-0.60416 z M 476.26903,426.30701 c 0.97297,-0.25354 2.32297,-0.23687 3,0.0371 0.67703,0.27393 -0.11903,0.48137 -1.76903,0.46099 -1.65,-0.0204 -2.20394,-0.2445 -1.23097,-0.49804 z m 41,0 c 0.97297,-0.25354 2.32297,-0.23687 3,0.0371 0.67703,0.27393 -0.11903,0.48137 -1.76903,0.46099 -1.65,-0.0204 -2.20394,-0.2445 -1.23097,-0.49804 z m 1517.99997,0 c 0.973,-0.25354 2.323,-0.23687 3,0.0371 0.6771,0.27393 -0.119,0.48137 -1.769,0.46099 -1.65,-0.0204 -2.2039,-0.2445 -1.231,-0.49804 z m 49,0 c 0.973,-0.25354 2.323,-0.23687 3,0.0371 0.6771,0.27393 -0.119,0.48137 -1.769,0.46099 -1.65,-0.0204 -2.2039,-0.2445 -1.231,-0.49804 z M 2559.2522,191.5 c 0.011,-2.2 0.2159,-2.98225 0.4551,-1.73834 0.2392,1.24391 0.2301,3.04391 -0.02,4 -0.2503,0.95609 -0.446,-0.0617 -0.4349,-2.26166 z M 2500.8724,58.25 c -1.2438,-1.586056 -1.2085,-1.621426 0.3776,-0.377555 0.9625,0.754844 1.75,1.542344 1.75,1.75 0,0.823034 -0.8212,0.293303 -2.1276,-1.372445 z m -1146,-8 c -1.2438,-1.586056 -1.2085,-1.621426 0.3776,-0.377555 0.9625,0.754844 1.75,1.542344 1.75,1.75 0,0.823034 -0.8212,0.293303 -2.1276,-1.372445 z M 1230.7617,0.29273913 c 1.2439,-0.23919321 3.0439,-0.2301119 4,0.0201807 0.956,0.2502926 -0.062,0.44599614 -2.2617,0.43489676 -2.2,-0.0110994 -2.9823,-0.21588425 -1.7383,-0.45507746 z m 1137,0 c 1.2439,-0.23919321 3.0439,-0.2301119 4,0.0201807 0.956,0.2502926 -0.062,0.44599614 -2.2617,0.43489676 -2.2,-0.0110994 -2.9823,-0.21588425 -1.7383,-0.45507746 z" class="colord8d8d8 svgShape"></path><path fill="#d3d5dc" d="m 330.8125,1847.3169 c 0.72187,-0.2889 1.58438,-0.2534 1.91667,0.079 0.33229,0.3323 -0.25834,0.5687 -1.3125,0.5253 -1.16495,-0.048 -1.4019,-0.285 -0.60417,-0.6042 z M 995.28601,1843.5 c 0.008,-2.75 0.20172,-3.7563 0.43157,-2.2363 0.22986,1.5201 0.22371,3.7701 -0.0136,5 -0.23736,1.23 -0.42542,-0.014 -0.41792,-2.7637 z m -83.41357,-196.25 c -1.24387,-1.5861 -1.2085,-1.6214 0.37756,-0.3776 1.66575,1.3064 2.19548,2.1276 1.37244,2.1276 -0.20765,0 -0.99515,-0.7875 -1.75,-1.75 z M 723.75,1564.3377 c 0.6875,-0.2774 1.8125,-0.2774 2.5,0 0.6875,0.2774 0.125,0.5044 -1.25,0.5044 -1.375,0 -1.9375,-0.227 -1.25,-0.5044 z M 0.19494872,1505.5 c 0.0203797,-1.65 0.24449859,-2.2039 0.498042,-1.231 0.25354341,0.973 0.23686912,2.323 -0.037054,3 -0.2739231,0.6771 -0.48136771,-0.119 -0.460988,-1.769 z M 284.07895,1497.4167 c 0.048,-1.165 0.28494,-1.4019 0.60416,-0.6042 0.28887,0.7219 0.25335,1.5844 -0.0789,1.9167 -0.33229,0.3323 -0.56864,-0.2584 -0.52522,-1.3125 z m 0,-8 c 0.048,-1.165 0.28494,-1.4019 0.60416,-0.6042 0.28887,0.7219 0.25335,1.5844 -0.0789,1.9167 -0.33229,0.3323 -0.56864,-0.2584 -0.52522,-1.3125 z M 0.19494872,1480.5 c 0.0203797,-1.65 0.24449859,-2.2039 0.498042,-1.231 0.25354341,0.973 0.23686912,2.323 -0.037054,3 -0.2739231,0.6771 -0.48136771,-0.119 -0.460988,-1.769 z M 2042.25,1422.3107 c 0.9625,-0.2516 2.5375,-0.2516 3.5,0 0.9625,0.2515 0.175,0.4573 -1.75,0.4573 -1.925,0 -2.7125,-0.2058 -1.75,-0.4573 z m 34.019,0 c 0.973,-0.2535 2.323,-0.2369 3,0.037 0.6771,0.2739 -0.119,0.4813 -1.769,0.461 -1.65,-0.02 -2.2039,-0.2445 -1.231,-0.4981 z m -752.519,-0.9693 c 0.6875,-0.2774 1.8125,-0.2774 2.5,0 0.6875,0.2774 0.125,0.5044 -1.25,0.5044 -1.375,0 -1.9375,-0.227 -1.25,-0.5044 z m 700.0625,-0.021 c 0.7219,-0.2889 1.5844,-0.2534 1.9167,0.079 0.3323,0.3323 -0.2584,0.5687 -1.3125,0.5253 -1.165,-0.048 -1.4019,-0.285 -0.6042,-0.6042 z m 72,0 c 0.7219,-0.2889 1.5844,-0.2534 1.9167,0.079 0.3323,0.3323 -0.2584,0.5687 -1.3125,0.5253 -1.165,-0.048 -1.4019,-0.285 -0.6042,-0.6042 z M 2559.4968,808.5 c 0,-337.7 0.1139,-475.70055 0.2532,-306.66788 0.1393,169.03267 0.1393,445.33267 0,613.99998 -0.1393,168.6674 -0.2532,30.3679 -0.2532,-307.3321 z M 1610.4864,1280 c 0,-77.825 0.1186,-109.6625 0.2635,-70.75 0.1449,38.9125 0.1449,102.5875 0,141.5 -0.1449,38.9125 -0.2635,7.075 -0.2635,-70.75 z m -410.614,88.25 c -1.2438,-1.5861 -1.2085,-1.6214 0.3776,-0.3776 0.9625,0.7549 1.75,1.5424 1.75,1.75 0,0.8231 -0.8212,0.2933 -2.1276,-1.3724 z m -9.4674,-9.5 -1.905,-2.25 2.25,1.905 c 2.1144,1.7902 2.7052,2.595 1.905,2.595 -0.1898,0 -1.2023,-1.0125 -2.25,-2.25 z m 532.4674,-67.5 c -1.2438,-1.5861 -1.2085,-1.6214 0.3776,-0.3776 1.6657,1.3064 2.1955,2.1276 1.3724,2.1276 -0.2076,0 -0.9951,-0.7875 -1.75,-1.75 z M 863,1262.6224 c 0,-0.2076 0.7875,-0.9951 1.75,-1.75 1.58606,-1.2438 1.62143,-1.2085 0.37756,0.3776 -1.30637,1.6657 -2.12756,2.1955 -2.12756,1.3724 z M 104,1241.5 c 1.29175,-1.375 2.57363,-2.5 2.84863,-2.5 0.275,0 -0.55688,1.125 -1.84863,2.5 -1.29175,1.375 -2.57363,2.5 -2.84863,2.5 -0.275,0 0.55688,-1.125 1.84863,-2.5 z m 1033.4924,-273 c 0,-141.9 0.1159,-199.80128 0.2576,-128.66952 0.1416,71.13176 0.1416,187.23172 0,258.00002 -0.1417,70.7682 -0.2576,12.5695 -0.2576,-129.3305 z m 915.2693,168.7927 c 1.2439,-0.2392 3.0439,-0.2301 4,0.02 0.956,0.2503 -0.062,0.446 -2.2617,0.4349 -2.2,-0.011 -2.9823,-0.2159 -1.7383,-0.4551 z m 11,0 c 1.2439,-0.2392 3.0439,-0.2301 4,0.02 0.956,0.2503 -0.062,0.446 -2.2617,0.4349 -2.2,-0.011 -2.9823,-0.2159 -1.7383,-0.4551 z m -150.3567,-57.5427 -1.905,-2.25 2.25,1.905 c 2.1144,1.7902 2.7052,2.595 1.905,2.595 -0.1898,0 -1.2023,-1.0125 -2.25,-2.25 z m -10.5326,-10.5 c -1.2438,-1.5861 -1.2085,-1.6214 0.3776,-0.3776 0.9625,0.7549 1.75,1.5424 1.75,1.75 0,0.8231 -0.8212,0.2933 -2.1276,-1.3724 z M 1563.0789,961.41667 c 0.048,-1.16495 0.285,-1.4019 0.6042,-0.60417 0.2889,0.72187 0.2534,1.58438 -0.079,1.91667 -0.3323,0.33229 -0.5687,-0.25834 -0.5253,-1.3125 z m -1561.9999526,-5 c 0.047984,-1.16495 0.2849403,-1.4019 0.6041666,-0.60417 0.2888706,0.72187 0.2533443,1.58438 -0.078947,1.91667 -0.3322917,0.33229 -0.5686404,-0.25834 -0.5252196,-1.3125 z M 1562.1579,943 c 0,-1.375 0.227,-1.9375 0.5044,-1.25 0.2774,0.6875 0.2774,1.8125 0,2.5 -0.2774,0.6875 -0.5044,0.125 -0.5044,-1.25 z m 709.921,-2.58333 c 0.048,-1.16495 0.285,-1.4019 0.6042,-0.60417 0.2889,0.72187 0.2534,1.58438 -0.079,1.91667 -0.3323,0.33229 -0.5687,-0.25834 -0.5253,-1.3125 z m -1276.99995,-3 c 0.048,-1.16495 0.28494,-1.4019 0.60416,-0.60417 0.28887,0.72187 0.25335,1.58438 -0.0789,1.91667 -0.33229,0.33229 -0.56864,-0.25834 -0.52522,-1.3125 z M 0.39172076,924 c 0,-7.425 0.15742329,-10.4625 0.34982953,-6.75 0.19240624,3.7125 0.19240624,9.7875 0,13.5 -0.19240624,3.7125 -0.34982953,0.675 -0.34982953,-6.75 z M 1846.2522,928.5 c 0.011,-2.2 0.2159,-2.98225 0.4551,-1.73834 0.2392,1.24391 0.2301,3.04391 -0.02,4 -0.2503,0.95609 -0.446,-0.0617 -0.4349,-2.26166 z m 0,-9 c 0.011,-2.2 0.2159,-2.98225 0.4551,-1.73834 0.2392,1.24391 0.2301,3.04391 -0.02,4 -0.2503,0.95609 -0.446,-0.0617 -0.4349,-2.26166 z m -850.77139,-110 c 5e-5,-54.45 0.12111,-76.57825 0.26902,-49.17389 0.14791,27.40436 0.14787,71.95436 -9e-5,99 -0.14796,27.04564 -0.26898,4.62389 -0.26893,-49.82611 z m 566.71409,96 c 0.02,-1.65 0.2445,-2.20394 0.4981,-1.23097 0.2535,0.97297 0.2369,2.32297 -0.037,3 -0.2739,0.67703 -0.4813,-0.11903 -0.461,-1.76903 z M 1.0789474,891.41667 c 0.047984,-1.16495 0.2849403,-1.4019 0.6041666,-0.60417 0.2888706,0.72187 0.2533443,1.58438 -0.078947,1.91667 -0.3322917,0.33229 -0.5686404,-0.25834 -0.5252196,-1.3125 z M 461.8125,427.31689 c 0.72187,-0.28887 1.58438,-0.25335 1.91667,0.0789 0.33229,0.33229 -0.25834,0.56864 -1.3125,0.52522 -1.16495,-0.048 -1.4019,-0.28494 -0.60417,-0.60416 z m 71,0 c 0.72187,-0.28887 1.58438,-0.25335 1.91667,0.0789 0.33229,0.33229 -0.25834,0.56864 -1.3125,0.52522 -1.16495,-0.048 -1.4019,-0.28494 -0.60417,-0.60416 z m 448,0 c 0.72187,-0.28887 1.58438,-0.25335 1.91667,0.0789 0.33229,0.33229 -0.25834,0.56864 -1.3125,0.52522 -1.16495,-0.048 -1.4019,-0.28494 -0.60417,-0.60416 z m -499.54347,-1.00988 c 0.97297,-0.25354 2.32297,-0.23687 3,0.0371 0.67703,0.27393 -0.11903,0.48137 -1.76903,0.46099 -1.65,-0.0204 -2.20394,-0.2445 -1.23097,-0.49804 z m 31,0 c 0.97297,-0.25354 2.32297,-0.23687 3,0.0371 0.67703,0.27393 -0.11903,0.48137 -1.76903,0.46099 -1.65,-0.0204 -2.20394,-0.2445 -1.23097,-0.49804 z m 1527.48097,0.0307 c 0.6875,-0.27741 1.8125,-0.27741 2.5,0 0.6875,0.27741 0.125,0.50439 -1.25,0.50439 -1.375,0 -1.9375,-0.22698 -1.25,-0.50439 z m 39.519,-0.0307 c 0.973,-0.25354 2.323,-0.23687 3,0.0371 0.6771,0.27393 -0.119,0.48137 -1.769,0.46099 -1.65,-0.0204 -2.2039,-0.2445 -1.231,-0.49804 z M 1421.1949,188.5 c 0.02,-1.65 0.2445,-2.20394 0.4981,-1.23097 0.2535,0.97297 0.2369,2.32297 -0.037,3 -0.2739,0.67703 -0.4813,-0.11903 -0.461,-1.76903 z m 1136.884,-9.08333 c 0.048,-1.16495 0.285,-1.4019 0.6042,-0.60417 0.2889,0.72187 0.2534,1.58437 -0.079,1.91667 -0.3323,0.33229 -0.5687,-0.25834 -0.5253,-1.3125 z M 1368.8724,64.25 c -1.2438,-1.586056 -1.2085,-1.621426 0.3776,-0.377555 1.6657,1.306369 2.1955,2.127555 1.3724,2.127555 -0.2076,0 -0.9951,-0.7875 -1.75,-1.75 z m -11,-11 c -1.2438,-1.586056 -1.2085,-1.621426 0.3776,-0.377555 0.9625,0.754844 1.75,1.542344 1.75,1.75 0,0.823034 -0.8212,0.293303 -2.1276,-1.372445 z M 1160.8186,0.25075208 c 12.8252,-0.15837247 33.5252,-0.15820034 46,3.8252e-4 12.4748,0.15858285 1.9814,0.28816033 -23.3186,0.28794994 -25.3,-2.1038e-4 -35.5066,-0.12995998 -22.6814,-0.28833246 z m 1137,0 c 12.8252,-0.15837247 33.5252,-0.15820034 46,3.8252e-4 12.4748,0.15858285 1.9814,0.28816033 -23.3186,0.28794994 -25.3,-2.1038e-4 -35.5066,-0.12995998 -22.6814,-0.28833246 z" class="colorc8c8c8 svgShape"></path><path fill="#d3d5dc" d="m 333.8125,1847.3169 c 0.72187,-0.2889 1.58438,-0.2534 1.91667,0.079 0.33229,0.3323 -0.25834,0.5687 -1.3125,0.5253 -1.16495,-0.048 -1.4019,-0.285 -0.60417,-0.6042 z M 116.87244,1756.25 c -1.24387,-1.5861 -1.2085,-1.6214 0.37756,-0.3776 1.66575,1.3064 2.19548,2.1276 1.37244,2.1276 -0.20765,0 -0.99515,-0.7875 -1.75,-1.75 z M 716.75,1564.2943 c 1.2375,-0.2384 3.2625,-0.2384 4.5,0 1.2375,0.2383 0.225,0.4333 -2.25,0.4333 -2.475,0 -3.4875,-0.195 -2.25,-0.4333 z M 1.0789474,1520.4167 c 0.047984,-1.165 0.2849403,-1.4019 0.6041666,-0.6042 0.2888706,0.7219 0.2533443,1.5844 -0.078947,1.9167 -0.3322917,0.3323 -0.5686404,-0.2584 -0.5252196,-1.3125 z M 0.36996468,1493 c 0,-5.775 0.16527476,-8.1375 0.36727724,-5.25 0.20200248,2.8875 0.20200248,7.6125 0,10.5 -0.20200248,2.8875 -0.36727724,0.525 -0.36727724,-5.25 z M 284.07895,1486.4167 c 0.048,-1.165 0.28494,-1.4019 0.60416,-0.6042 0.28887,0.7219 0.25335,1.5844 -0.0789,1.9167 -0.33229,0.3323 -0.56864,-0.2584 -0.52522,-1.3125 z M 302,1445.6224 c 0,-0.2076 0.7875,-0.9951 1.75,-1.75 1.58606,-1.2438 1.62143,-1.2085 0.37756,0.3776 -1.30637,1.6657 -2.12756,2.1955 -2.12756,1.3724 z m 4,-4 c 0,-0.2076 0.7875,-0.9951 1.75,-1.75 1.58606,-1.2438 1.62143,-1.2085 0.37756,0.3776 -1.30637,1.6657 -2.12756,2.1955 -2.12756,1.3724 z m 1743.7277,-19.3441 c 1.7752,-0.2209 4.9252,-0.2246 7,-0.01 2.0748,0.2165 0.6223,0.3972 -3.2277,0.4017 -3.85,0 -5.5475,-0.1727 -3.7723,-0.3936 z m 16.0223,0 c 1.7875,-0.2218 4.7125,-0.2218 6.5,0 1.7875,0.2218 0.325,0.4033 -3.25,0.4033 -3.575,0 -5.0375,-0.1815 -3.25,-0.4033 z m -1544.5,-0.9659 c 0.9625,-0.2516 2.5375,-0.2516 3.5,0 0.9625,0.2515 0.175,0.4573 -1.75,0.4573 -1.925,0 -2.7125,-0.2058 -1.75,-0.4573 z m 807.019,0 c 0.973,-0.2535 2.323,-0.2369 3,0.037 0.6771,0.2739 -0.119,0.4813 -1.769,0.461 -1.65,-0.02 -2.2039,-0.2445 -1.231,-0.4981 z m 698.5435,0.01 c 0.7219,-0.2889 1.5844,-0.2534 1.9167,0.079 0.3323,0.3323 -0.2584,0.5687 -1.3125,0.5253 -1.165,-0.048 -1.4019,-0.285 -0.6042,-0.6042 z m 66,0 c 0.7219,-0.2889 1.5844,-0.2534 1.9167,0.079 0.3323,0.3323 -0.2584,0.5687 -1.3125,0.5253 -1.165,-0.048 -1.4019,-0.285 -0.6042,-0.6042 z m -897.3754,-57.5669 -2.9371,-3.25 3.25,2.9371 c 1.7875,1.6154 3.25,3.0779 3.25,3.25 0,0.7726 -0.8251,0.092 -3.5629,-2.9371 z M 836.5,1289 c 0.99549,-1.1 2.03498,-2 2.30998,-2 0.275,0 -0.31449,0.9 -1.30998,2 -0.99549,1.1 -2.03498,2 -2.30998,2 -0.275,0 0.31449,-0.9 1.30998,-2 z m 883.3724,-0.75 c -1.2438,-1.5861 -1.2085,-1.6214 0.3776,-0.3776 1.6657,1.3064 2.1955,2.1276 1.3724,2.1276 -0.2076,0 -0.9951,-0.7875 -1.75,-1.75 z m -24.4674,-24.5 -1.905,-2.25 2.25,1.905 c 2.1144,1.7902 2.7052,2.595 1.905,2.595 -0.1898,0 -1.2023,-1.0125 -2.25,-2.25 z m 352.345,-126.4123 c 0.6875,-0.2774 1.8125,-0.2774 2.5,0 0.6875,0.2774 0.125,0.5044 -1.25,0.5044 -1.375,0 -1.9375,-0.227 -1.25,-0.5044 z m 22.0625,-0.021 c 0.7219,-0.2889 1.5844,-0.2534 1.9167,0.079 0.3323,0.3323 -0.2584,0.5687 -1.3125,0.5253 -1.165,-0.048 -1.4019,-0.285 -0.6042,-0.6042 z m -1593,-1 c 0.72187,-0.2889 1.58438,-0.2534 1.91667,0.079 0.33229,0.3323 -0.25834,0.5687 -1.3125,0.5253 -1.16495,-0.048 -1.4019,-0.285 -0.60417,-0.6042 z M 2210,1075.5 c 1.8658,-1.925 3.6173,-3.5 3.8923,-3.5 0.275,0 -1.0265,1.575 -2.8923,3.5 -1.8658,1.925 -3.6173,3.5 -3.8923,3.5 -0.275,0 1.0265,-1.575 2.8923,-3.5 z m -1864.12756,-1.25 c -1.24387,-1.5861 -1.2085,-1.6214 0.37756,-0.3776 0.9625,0.7549 1.75,1.5424 1.75,1.75 0,0.8231 -0.82119,0.2933 -2.12756,-1.3724 z M 1563.0789,958.41667 c 0.048,-1.16495 0.285,-1.4019 0.6042,-0.60417 0.2889,0.72187 0.2534,1.58438 -0.079,1.91667 -0.3323,0.33229 -0.5687,-0.25834 -0.5253,-1.3125 z m -1561.9999526,-5 c 0.047984,-1.16495 0.2849403,-1.4019 0.6041666,-0.60417 0.2888706,0.72187 0.2533443,1.58438 -0.078947,1.91667 -0.3322917,0.33229 -0.5686404,-0.25834 -0.5252196,-1.3125 z M 1562.2724,937 c 0,-2.475 0.195,-3.4875 0.4333,-2.25 0.2384,1.2375 0.2384,3.2625 0,4.5 -0.2383,1.2375 -0.4333,0.225 -0.4333,-2.25 z m 283.9225,-2.5 c 0.02,-1.65 0.2445,-2.20394 0.4981,-1.23097 0.2535,0.97297 0.2369,2.32297 -0.037,3 -0.2739,0.67703 -0.4813,-0.11903 -0.461,-1.76903 z M 995.39739,922 c 0,-7.975 0.1553,-11.2375 0.34512,-7.25 0.18981,3.9875 0.18981,10.5125 0,14.5 -0.18982,3.9875 -0.34512,0.725 -0.34512,-7.25 z m -711.06118,2 c 0,-4.125 0.17651,-5.8125 0.39226,-3.75 0.21574,2.0625 0.21574,5.4375 0,7.5 -0.21575,2.0625 -0.39226,0.375 -0.39226,-3.75 z M 1562.2724,912 c 0,-2.475 0.195,-3.4875 0.4333,-2.25 0.2384,1.2375 0.2384,3.2625 0,4.5 -0.2383,1.2375 -0.4333,0.225 -0.4333,-2.25 z m 283.8855,2 c 0,-1.375 0.227,-1.9375 0.5044,-1.25 0.2774,0.6875 0.2774,1.8125 0,2.5 -0.2774,0.6875 -0.5044,0.125 -0.5044,-1.25 z m 425.921,-8.58333 c 0.048,-1.16495 0.285,-1.4019 0.6042,-0.60417 0.2889,0.72187 0.2534,1.58438 -0.079,1.91667 -0.3323,0.33229 -0.5687,-0.25834 -0.5253,-1.3125 z m -1561.99995,-1 c 0.048,-1.16495 0.28494,-1.4019 0.60416,-0.60417 0.28887,0.72187 0.25335,1.58438 -0.0789,1.91667 -0.33229,0.33229 -0.56864,-0.25834 -0.52522,-1.3125 z m 852.99995,-15 c 0.048,-1.16495 0.285,-1.4019 0.6042,-0.60417 0.2889,0.72187 0.2534,1.58438 -0.079,1.91667 -0.3323,0.33229 -0.5687,-0.25834 -0.5253,-1.3125 z M 477.8125,711.31689 c 0.72187,-0.28887 1.58438,-0.25335 1.91667,0.0789 0.33229,0.33229 -0.25834,0.56864 -1.3125,0.52522 -1.16495,-0.048 -1.4019,-0.28494 -0.60417,-0.60416 z m 1564,0 c 0.7219,-0.28887 1.5844,-0.25335 1.9167,0.0789 0.3323,0.33229 -0.2584,0.56864 -1.3125,0.52522 -1.165,-0.048 -1.4019,-0.28494 -0.6042,-0.60416 z m -572.4867,-1.0667 c 26.3042,-0.14832 69.0542,-0.14828 95,9e-5 25.9458,0.14838 4.4242,0.26973 -47.8258,0.26968 -52.25,-6e-5 -73.4784,-0.12145 -47.1742,-0.26977 z m 591.4242,0.0875 c 0.6875,-0.27741 1.8125,-0.27741 2.5,0 0.6875,0.27741 0.125,0.50439 -1.25,0.50439 -1.375,0 -1.9375,-0.22698 -1.25,-0.50439 z M 130,588.62244 c 0,-0.20765 0.7875,-0.99515 1.75,-1.75 1.58606,-1.24387 1.62143,-1.2085 0.37756,0.37756 C 130.82119,588.91575 130,589.44548 130,588.62244 Z m 1563,-1 c 0,-0.20765 0.7875,-0.99515 1.75,-1.75 1.5861,-1.24387 1.6214,-1.2085 0.3776,0.37756 -1.3064,1.66575 -2.1276,2.19548 -2.1276,1.37244 z m 28,-28 c 0,-0.20765 0.7875,-0.99515 1.75,-1.75 1.5861,-1.24387 1.6214,-1.2085 0.3776,0.37756 -1.3064,1.66575 -2.1276,2.19548 -2.1276,1.37244 z m -1561,-1 c 0,-0.20765 0.7875,-0.99515 1.75,-1.75 1.58606,-1.24387 1.62143,-1.2085 0.37756,0.37756 C 160.82119,558.91575 160,559.44548 160,558.62244 Z M 2107.8125,428.31689 c 0.7219,-0.28887 1.5844,-0.25335 1.9167,0.0789 0.3323,0.33229 -0.2584,0.56864 -1.3125,0.52522 -1.165,-0.048 -1.4019,-0.28494 -0.6042,-0.60416 z m -1643,-1 c 0.72187,-0.28887 1.58438,-0.25335 1.91667,0.0789 0.33229,0.33229 -0.25834,0.56864 -1.3125,0.52522 -1.16495,-0.048 -1.4019,-0.28494 -0.60417,-0.60416 z m 65,0 c 0.72187,-0.28887 1.58438,-0.25335 1.91667,0.0789 0.33229,0.33229 -0.25834,0.56864 -1.3125,0.52522 -1.16495,-0.048 -1.4019,-0.28494 -0.60417,-0.60416 z m 454.94916,-0.0242 c 1.24391,-0.23919 3.04391,-0.23011 4,0.0202 0.95609,0.25029 -0.0617,0.446 -2.26166,0.4349 -2.2,-0.0111 -2.98225,-0.21589 -1.73834,-0.45508 z m 1040.05084,0.0242 c 0.7219,-0.28887 1.5844,-0.25335 1.9167,0.0789 0.3323,0.33229 -0.2584,0.56864 -1.3125,0.52522 -1.165,-0.048 -1.4019,-0.28494 -0.6042,-0.60416 z m 71,0 c 0.7219,-0.28887 1.5844,-0.25335 1.9167,0.0789 0.3323,0.33229 -0.2584,0.56864 -1.3125,0.52522 -1.165,-0.048 -1.4019,-0.28494 -0.6042,-0.60416 z M 491.25,426.25845 c 3.7125,-0.19241 9.7875,-0.19241 13.5,0 3.7125,0.19241 0.675,0.34983 -6.75,0.34983 -7.425,0 -10.4625,-0.15742 -6.75,-0.34983 z m 977.5,-0.008 c 25.9875,-0.1484 68.5125,-0.1484 94.5,0 25.9875,0.1484 4.725,0.26982 -47.25,0.26982 -51.975,0 -73.2375,-0.12142 -47.25,-0.26982 z m 576,0.044 c 1.2375,-0.23836 3.2625,-0.23836 4.5,0 1.2375,0.23835 0.225,0.43337 -2.25,0.43337 -2.475,0 -3.4875,-0.19502 -2.25,-0.43337 z m 28.5,0.0164 c 0.9625,-0.25152 2.5375,-0.25152 3.5,0 0.9625,0.25153 0.175,0.45733 -1.75,0.45733 -1.925,0 -2.7125,-0.2058 -1.75,-0.45733 z M 1421.232,194 c 0,-1.925 0.2058,-2.7125 0.4573,-1.75 0.2516,0.9625 0.2516,2.5375 0,3.5 -0.2515,0.9625 -0.4573,0.175 -0.4573,-1.75 z M 1363.4529,58.75 1359.5,54.5 l 4.25,3.952948 c 2.3375,2.174121 4.25,4.086621 4.25,4.25 0,0.756577 -0.8709,-4.9e-4 -4.5471,-3.952948 z" class="colorb0b0b0 svgShape"></path><path fill="#d3d5dc" d="m 113.87244,1753.25 c -1.24387,-1.5861 -1.2085,-1.6214 0.37756,-0.3776 1.66575,1.3064 2.19548,2.1276 1.37244,2.1276 -0.20765,0 -0.99515,-0.7875 -1.75,-1.75 z M 94.404988,1733.75 92.5,1731.5 l 2.25,1.905 c 2.114445,1.7902 2.705241,2.595 1.904988,2.595 -0.189757,0 -1.202257,-1.0125 -2.25,-2.25 z M 442.82932,1564.2501 c 50.23112,-0.1434 132.13112,-0.1434 182,0 49.86887,0.1433 8.77068,0.2606 -91.32932,0.2606 -100.1,0 -140.90181,-0.1173 -90.67068,-0.2606 z M 1.0789474,1467.4167 c 0.047984,-1.165 0.2849403,-1.4019 0.6041666,-0.6042 0.2888706,0.7219 0.2533443,1.5844 -0.078947,1.9167 -0.3322917,0.3323 -0.5686404,-0.2584 -0.5252196,-1.3125 z M 2060.8125,1422.3169 c 0.7219,-0.2889 1.5844,-0.2534 1.9167,0.079 0.3323,0.3323 -0.2584,0.5687 -1.3125,0.5253 -1.165,-0.048 -1.4019,-0.285 -0.6042,-0.6042 z M 516.26903,1421.307 c 0.97297,-0.2535 2.32297,-0.2369 3,0.037 0.67703,0.2739 -0.11903,0.4813 -1.76903,0.461 -1.65,-0.02 -2.20394,-0.2445 -1.23097,-0.4981 z M 1401.25,1421.25 c 38.3625,-0.145 101.1375,-0.145 139.5,0 38.3625,0.1451 6.975,0.2637 -69.75,0.2637 -76.725,0 -108.1125,-0.1186 -69.75,-0.2637 z M 2275.4324,1398 c 0,-13.475 0.1416,-18.9875 0.3146,-12.25 0.173,6.7375 0.173,17.7625 0,24.5 -0.173,6.7375 -0.3146,1.225 -0.3146,-12.25 z m -559.5081,-113.75 -2.4243,-2.75 2.75,2.4243 c 1.5125,1.3334 2.75,2.5709 2.75,2.75 0,0.7843 -0.8098,0.146 -3.0757,-2.4243 z m -16,-16 -2.4243,-2.75 2.75,2.4243 c 2.5703,2.2659 3.2086,3.0757 2.4243,3.0757 -0.1791,0 -1.4166,-1.2375 -2.75,-2.75 z M 92,1254.6224 c 0,-0.2076 0.7875,-0.9951 1.75,-1.75 1.586056,-1.2438 1.621426,-1.2085 0.377555,0.3776 C 92.821186,1254.9157 92,1255.4455 92,1254.6224 Z M 2204.5,1081 c 0.9955,-1.1 2.035,-2 2.31,-2 0.275,0 -0.3145,0.9 -1.31,2 -0.9955,1.1 -2.035,2 -2.31,2 -0.275,0 0.3145,-0.9 1.31,-2 z m -1854.06291,-2.25 -2.93709,-3.25 3.25,2.9371 c 3.02946,2.7378 3.70965,3.5629 2.93709,3.5629 -0.1721,0 -1.6346,-1.4625 -3.25,-3.25 z m -8.51278,-8.5 -2.42431,-2.75 2.75,2.4243 c 2.57029,2.2659 3.20859,3.0757 2.42431,3.0757 -0.17912,0 -1.41662,-1.2375 -2.75,-2.75 z M 2215.5,1070 c 0.9955,-1.1 2.035,-2 2.31,-2 0.275,0 -0.3145,0.9 -1.31,2 -0.9955,1.1 -2.035,2 -2.31,2 -0.275,0 0.3145,-0.9 1.31,-2 z M 284.19495,933.5 c 0.0204,-1.65 0.2445,-2.20394 0.49804,-1.23097 0.25354,0.97297 0.23687,2.32297 -0.0371,3 -0.27393,0.67703 -0.48137,-0.11903 -0.46099,-1.76903 z m 1278.16005,-9 c 0,-4.95 0.166,-7.10108 0.3757,-4.78017 0.2098,2.3209 0.2122,6.3709 0.01,9 -0.2067,2.62909 -0.3783,0.73017 -0.3813,-4.21983 z m 710.931,0 c 0.01,-2.75 0.2017,-3.75631 0.4316,-2.23625 0.2298,1.52006 0.2237,3.77006 -0.014,5 -0.2373,1.22994 -0.4254,-0.0137 -0.4179,-2.76375 z m -1989.09105,-10 c 0.0204,-1.65 0.2445,-2.20394 0.49804,-1.23097 0.25354,0.97297 0.23687,2.32297 -0.0371,3 -0.27393,0.67703 -0.48137,-0.11903 -0.46099,-1.76903 z M 1.0789474,896.41667 c 0.047984,-1.16495 0.2849403,-1.4019 0.6041666,-0.60417 0.2888706,0.72187 0.2533443,1.58438 -0.078947,1.91667 -0.3322917,0.33229 -0.5686404,-0.25834 -0.5252196,-1.3125 z m 1561.9999526,-4 c 0.048,-1.16495 0.285,-1.4019 0.6042,-0.60417 0.2889,0.72187 0.2534,1.58438 -0.079,1.91667 -0.3323,0.33229 -0.5687,-0.25834 -0.5253,-1.3125 z M 1421.4644,761.5 c -2e-4,-28.05 0.1279,-39.66895 0.2847,-25.8199 0.1567,13.84906 0.1568,36.79906 3e-4,51 -0.1566,14.20095 -0.2848,2.8699 -0.285,-25.1801 z M 1908,773.5 c 2.9874,-3.025 5.6567,-5.5 5.9317,-5.5 0.275,0 -1.9443,2.475 -4.9317,5.5 -2.9874,3.025 -5.6567,5.5 -5.9317,5.5 -0.275,0 1.9443,-2.475 4.9317,-5.5 z M 346.5,773 c 2.70865,-2.75 5.14982,-5 5.42482,-5 0.275,0 -1.71617,2.25 -4.42482,5 -2.70865,2.75 -5.14982,5 -5.42482,5 -0.275,0 1.71617,-2.25 4.42482,-5 z m 301.90499,-0.25 -1.90499,-2.25 2.25,1.90499 c 2.11444,1.79022 2.70524,2.59501 1.90499,2.59501 -0.18976,0 -1.20226,-1.0125 -2.25,-2.25 z m 1562.00001,0 -1.905,-2.25 2.25,1.90499 c 1.2375,1.04774 2.25,2.06024 2.25,2.25 0,0.80025 -0.8048,0.20945 -2.595,-1.90499 z M 493.26903,710.30701 c 0.97297,-0.25354 2.32297,-0.23687 3,0.0371 0.67703,0.27393 -0.11903,0.48137 -1.76903,0.46099 -1.65,-0.0204 -2.20394,-0.2445 -1.23097,-0.49804 z m 7,0 c 0.97297,-0.25354 2.32297,-0.23687 3,0.0371 0.67703,0.27393 -0.11903,0.48137 -1.76903,0.46099 -1.65,-0.0204 -2.20394,-0.2445 -1.23097,-0.49804 z m 1564.99997,0 c 0.973,-0.25354 2.323,-0.23687 3,0.0371 0.6771,0.27393 -0.119,0.48137 -1.769,0.46099 -1.65,-0.0204 -2.2039,-0.2445 -1.231,-0.49804 z M 134.5,584 c 0.99549,-1.1 2.03498,-2 2.30998,-2 0.275,0 -0.31449,0.9 -1.30998,2 -0.99549,1.1 -2.03498,2 -2.30998,2 -0.275,0 0.31449,-0.9 1.30998,-2 z m 1561.5,0.62244 c 0,-0.20765 0.7875,-0.99515 1.75,-1.75 1.5861,-1.24387 1.6214,-1.2085 0.3776,0.37756 -1.3064,1.66575 -2.1276,2.19548 -2.1276,1.37244 z m 22,-22 c 0,-0.20765 0.7875,-0.99515 1.75,-1.75 1.5861,-1.24387 1.6214,-1.2085 0.3776,0.37756 -1.3064,1.66575 -2.1276,2.19548 -2.1276,1.37244 z m -1561,-1 c 0,-0.20765 0.7875,-0.99515 1.75,-1.75 1.58606,-1.24387 1.62143,-1.2085 0.37756,0.37756 C 157.82119,561.91575 157,562.44548 157,561.62244 Z M 2275.4917,237.5 c 10e-5,-130.35 0.1163,-183.526396 0.2583,-118.16977 0.142,65.35663 0.142,172.00663 0,237 -0.1421,64.99337 -0.2583,11.51977 -0.2583,-118.83023 z M 1026.75,427.25037 c 20.4875,-0.15109 54.0125,-0.15109 74.5,0 20.4875,0.1511 3.725,0.27472 -37.25,0.27472 -40.975,0 -57.7375,-0.12362 -37.25,-0.27472 z m 1066.0625,0.0665 c 0.7219,-0.28887 1.5844,-0.25335 1.9167,0.0789 0.3323,0.33229 -0.2584,0.56864 -1.3125,0.52522 -1.165,-0.048 -1.4019,-0.28494 -0.6042,-0.60416 z m -36.526,-1.05697 c 3.1826,-0.19905 8.1326,-0.1972 11,0.004 2.8674,0.20131 0.2635,0.36417 -5.7865,0.36191 -6.05,-0.002 -8.3961,-0.16696 -5.2135,-0.36601 z M 1421.4834,311.5 c 0,-63.25 0.1199,-88.97782 0.2665,-57.17293 0.1465,31.80489 0.1465,83.55489 -10e-5,115 -0.1466,31.44511 -0.2665,5.42293 -0.2664,-57.82707 z M 2504.9243,63.25 2502.5,60.5 l 2.75,2.424314 c 1.5125,1.333373 2.75,2.570873 2.75,2.75 0,0.784274 -0.8098,0.145975 -3.0757,-2.424314 z m -9,-9 -2.4243,-2.75 2.75,2.424314 c 1.5125,1.333373 2.75,2.570873 2.75,2.75 0,0.784274 -0.8098,0.145975 -3.0757,-2.424314 z" class="color9b9b9b svgShape"></path><path fill="#d3d5dc" d="m 109.43709,1748.75 -2.93709,-3.25 3.25,2.9371 c 3.02946,2.7378 3.70965,3.5629 2.93709,3.5629 -0.1721,0 -1.6346,-1.4625 -3.25,-3.25 z m -9.999999,-10 -2.937091,-3.25 3.25,2.9371 c 3.02946,2.7378 3.70965,3.5629 2.93709,3.5629 -0.1721,0 -1.6346,-1.4625 -3.249999,-3.25 z m 818.967899,-84 -1.90499,-2.25 2.25,1.905 c 2.11444,1.7902 2.70524,2.595 1.90499,2.595 -0.18976,0 -1.20226,-1.0125 -2.25,-2.25 z m -14,-14 -1.90499,-2.25 2.25,1.905 c 1.2375,1.0477 2.25,2.0602 2.25,2.25 0,0.8002 -0.80479,0.2094 -2.59501,-1.905 z M 512.8125,1421.3169 c 0.72187,-0.2889 1.58438,-0.2534 1.91667,0.079 0.33229,0.3323 -0.25834,0.5687 -1.3125,0.5253 -1.16495,-0.048 -1.4019,-0.285 -0.60417,-0.6042 z m 1833.3593,-0.067 c 38.8695,-0.1449 102.7695,-0.1449 142,0 39.2305,0.1449 7.4282,0.2635 -70.6718,0.2635 -78.1,0 -110.1977,-0.1185 -71.3282,-0.2635 z m -638.206,-145.0001 -5.4658,-5.75 5.75,5.4658 c 5.3419,5.078 6.2081,6.0342 5.4658,6.0342 -0.1562,0 -2.7437,-2.5875 -5.75,-5.75 z M 96.5,1250 c 0.995486,-1.1 2.034975,-2 2.309975,-2 0.275,0 -0.314489,0.9 -1.309975,2 -0.995486,1.1 -2.034975,2 -2.309975,2 -0.275,0 0.314489,-0.9 1.309975,-2 z M 2273.0789,930.41667 c 0.048,-1.16495 0.285,-1.4019 0.6042,-0.60417 0.2889,0.72187 0.2534,1.58438 -0.079,1.91667 -0.3323,0.33229 -0.5687,-0.25834 -0.5253,-1.3125 z M 2273.1579,918 c 0,-1.375 0.227,-1.9375 0.5044,-1.25 0.2774,0.6875 0.2774,1.8125 0,2.5 -0.2774,0.6875 -0.5044,0.125 -0.5044,-1.25 z m -851.7037,-68 c 0,-21.175 0.1325,-29.8375 0.2945,-19.25 0.162,10.5875 0.162,27.9125 0,38.5 -0.162,10.5875 -0.2945,1.925 -0.2945,-19.25 z M 1900,781.62244 c 0,-0.20765 0.7875,-0.99515 1.75,-1.75 1.5861,-1.24387 1.6214,-1.2085 0.3776,0.37756 -1.3064,1.66575 -2.1276,2.19548 -2.1276,1.37244 z m -1561,-1 c 0,-0.20765 0.7875,-0.99515 1.75,-1.75 1.58606,-1.24387 1.62143,-1.2085 0.37756,0.37756 C 339.82119,780.91575 339,781.44548 339,780.62244 Z M 652.92431,777.25 650.5,774.5 l 2.75,2.42431 c 1.5125,1.33338 2.75,2.57088 2.75,2.75 0,0.78428 -0.8098,0.14598 -3.07569,-2.42431 z m 1561.99999,0 -2.4243,-2.75 2.75,2.42431 c 1.5125,1.33338 2.75,2.57088 2.75,2.75 0,0.78428 -0.8098,0.14598 -3.0757,-2.42431 z m -1570.99999,-9 -2.42431,-2.75 2.75,2.42431 c 1.5125,1.33338 2.75,2.57088 2.75,2.75 0,0.78428 -0.8098,0.14598 -3.07569,-2.42431 z m 1561.99999,0 -2.4243,-2.75 2.75,2.42431 c 1.5125,1.33338 2.75,2.57088 2.75,2.75 0,0.78428 -0.8098,0.14598 -3.0757,-2.42431 z M 352,767.62244 c 0,-0.20765 0.7875,-0.99515 1.75,-1.75 1.58606,-1.24387 1.62143,-1.2085 0.37756,0.37756 C 352.82119,767.91575 352,768.44548 352,767.62244 Z m 1562,0 c 0,-0.20765 0.7875,-0.99515 1.75,-1.75 1.5861,-1.24387 1.6214,-1.2085 0.3776,0.37756 -1.3064,1.66575 -2.1276,2.19548 -2.1276,1.37244 z M 489.8125,710.31689 c 0.72187,-0.28887 1.58438,-0.25335 1.91667,0.0789 0.33229,0.33229 -0.25834,0.56864 -1.3125,0.52522 -1.16495,-0.048 -1.4019,-0.28494 -0.60417,-0.60416 z m 15,0 c 0.72187,-0.28887 1.58438,-0.25335 1.91667,0.0789 0.33229,0.33229 -0.25834,0.56864 -1.3125,0.52522 -1.16495,-0.048 -1.4019,-0.28494 -0.60417,-0.60416 z m 526.0111,-0.0666 c 19.9779,-0.15148 52.3779,-0.15141 72,1.7e-4 19.622,0.15157 3.2764,0.27551 -36.3236,0.27542 -39.6,-10e-5 -55.6544,-0.12411 -35.6764,-0.27559 z m 1026.9889,0.0666 c 0.7219,-0.28887 1.5844,-0.25335 1.9167,0.0789 0.3323,0.33229 -0.2584,0.56864 -1.3125,0.52522 -1.165,-0.048 -1.4019,-0.28494 -0.6042,-0.60416 z M 140.5,578 c 2.14824,-2.2 4.1309,-4 4.4059,-4 0.275,0 -1.25766,1.8 -3.4059,4 -2.14824,2.2 -4.1309,4 -4.4059,4 -0.275,0 1.25766,-1.8 3.4059,-4 z m 1562.4582,-0.25 c 4.144,-4.41519 5.0418,-5.20909 5.0418,-4.45821 0,0.16049 -2.1375,2.29799 -4.75,4.75 L 1698.5,582.5 Z m 10,-10 c 4.144,-4.41519 5.0418,-5.20909 5.0418,-4.45821 0,0.16049 -2.1375,2.29799 -4.75,4.75 L 1708.5,572.5 Z M 152.5,566 c 2.14824,-2.2 4.1309,-4 4.4059,-4 0.275,0 -1.25766,1.8 -3.4059,4 -2.14824,2.2 -4.1309,4 -4.4059,4 -0.275,0 1.25766,-1.8 3.4059,-4 z M 790,515.5 c 1.86578,-1.925 3.61733,-3.5 3.89233,-3.5 0.275,0 -1.02655,1.575 -2.89233,3.5 -1.86578,1.925 -3.61733,3.5 -3.89233,3.5 -0.275,0 1.02655,-1.575 2.89233,-3.5 z m 9,-9 c 1.86578,-1.925 3.61733,-3.5 3.89233,-3.5 0.275,0 -1.02655,1.575 -2.89233,3.5 -1.86578,1.925 -3.61733,3.5 -3.89233,3.5 -0.275,0 1.02655,-1.575 2.89233,-3.5 z M 2500.405,58.75 2498.5,56.5 l 2.25,1.904988 c 1.2375,1.047743 2.25,2.060243 2.25,2.25 0,0.800253 -0.8048,0.209457 -2.595,-1.904988 z" class="color8d8d8d svgShape"></path><path fill="#d3d5dc" d="M 335,1847.3056 C 206.23859,1839.7104 91.496062,1762.4478 35.484266,1645.6248 18.912875,1611.0621 8.6666827,1576.1586 3.3030696,1536 c -2.50447293,-18.7516 -2.49490134,-67.7206 0.016884,-86.3815 5.3260826,-39.5692 15.7367104,-75.1324 31.7544414,-108.4746 17.64629,-36.7322 36.846516,-64.4174 66.610015,-96.0466 l 8.84807,-9.4027 11.12735,12.9027 c 76.0181,88.1465 180.28201,146.7911 294.84017,165.8366 23.51784,3.9099 43.0266,5.7538 69,6.5217 16.84668,0.498 -0.46733,0.7594 -58.09004,0.8769 -78.07152,0.1593 -82.46681,0.2639 -89.78672,2.136 -19.71966,5.0434 -37.35196,19.2744 -45.94278,37.0802 -10.35356,21.4594 -10.17217,44.4834 0.51468,65.3274 6.01666,11.7351 19.0721,24.6095 30.80486,30.3776 16.96271,8.3392 -2.90436,7.5944 220,8.2479 l 198.5,0.5819 13,2.2184 c 30.28321,5.1676 55.64655,13.2709 82,26.198 92.29378,45.2729 153.2344,137.8506 158.1482,240.2501 l 0.65981,13.75 -327.404,-0.185 C 487.8318,1847.7133 338.025,1847.484 335,1847.3056 Z m 1687.5,-426.4294 c -69.5248,-5.3213 -139.1287,-25.9245 -199.6253,-59.0904 -45.4336,-24.908 -81.7703,-52.5077 -118.3891,-89.9231 -35.8195,-36.5986 -62.6441,-73.7043 -87.3744,-120.8627 l -7.0795,-13.5 -0.016,141.7752 -0.016,141.7751 -149.25,-0.2906 -149.25,-0.2906 -11.0242,-2.2061 c -88.6544,-17.741 -151.9517,-86.5407 -161.4398,-175.4736 -0.6872,-6.4414 -1.036,-97.5917 -1.036,-270.74999 L 1138,711 h 141.3346 141.3346 l 0.665,132.75 c 0.3657,73.0125 0.6652,168.8625 0.6654,213 L 1422,1137 h 94 c 51.7,0 94,-0.1621 94,-0.3602 0,-0.198 -1.7427,-4.1355 -3.8726,-8.75 -17.4398,-37.7829 -31.2836,-85.1244 -37.9828,-129.8898 -4.0565,-27.10562 -4.6453,-36.6144 -4.6138,-74.5 0.033,-39.60308 0.8715,-50.84337 6.1162,-82 20.4523,-121.49693 84.798,-229.96327 182.6212,-307.8411 42.5067,-33.84 94.5226,-62.23859 146.7903,-80.14165 34.5462,-11.83297 68.623,-19.43308 108.4415,-24.18555 21.5435,-2.5713 85.4085,-2.5746 107,-0.006 54.5791,6.49408 108.7582,21.32717 152.25,41.68282 l 8.25,3.86128 v 448.56487 c 0,246.71063 0.3002,448.56483 0.6671,448.56483 1.4135,0 30.4317,-15.617 42.3329,-22.7827 81.7102,-49.1978 148.439,-121.8768 190.0266,-206.9715 28.2603,-57.8251 45.3525,-121.1799 49.8415,-184.74576 0.4995,-7.07261 0.9058,85.62376 0.9897,225.74996 L 2559,1421 H 2417.5 2276 v -23.5 c 0,-12.925 -0.2111,-23.5 -0.4692,-23.5 -0.258,0 -6.4455,2.6386 -13.75,5.8635 -51.8752,22.9028 -107.062,36.6729 -164.7307,41.1032 -15.5339,1.1934 -58.4563,1.1413 -74.5501,-0.091 z m 59.2894,-283.9307 c 80.5021,-8.7421 148.0696,-60.3671 177.5868,-135.6855 4.6107,-11.76489 10.0528,-32.6154 12.2047,-46.76 2.2638,-14.87987 2.266,-46.13212 0,-60.5 -7.5508,-47.96703 -27.5604,-87.93298 -60.5851,-121.00893 -33.8632,-33.91568 -74.2234,-53.80724 -124,-61.1134 -11.7888,-1.73035 -42.8932,-1.3946 -56.5,0.60987 -47.8884,7.05464 -88.418,27.30959 -122.0105,60.97564 -56.092,56.21469 -76.2189,137.36176 -53.0332,213.81796 22.2596,73.40256 84.604,130.35696 160.057,146.21916 19.8363,4.1701 46.7279,5.568 66.2761,3.4452 z M 844,1281.5 c 1.29175,-1.375 2.57363,-2.5 2.84863,-2.5 0.275,0 -0.55688,1.125 -1.84863,2.5 -1.29175,1.375 -2.57363,2.5 -2.84863,2.5 -0.275,0 0.55688,-1.125 1.84863,-2.5 z m 10.5,-10.5 c 0.99549,-1.1 2.03498,-2 2.30998,-2 0.275,0 -0.31449,0.9 -1.30998,2 -0.99549,1.1 -2.03498,2 -2.30998,2 -0.275,0 0.31449,-0.9 1.30998,-2 z M 100.7722,1222.25 C 18.280758,1111.8652 -14.773645,975.53903 8.0897396,840 23.026263,751.4531 62.332411,668.17731 121.83155,599.02146 132.30198,586.85168 156.62734,562.35534 169.5,551.01795 246.36574,483.31968 339.26395,442.03464 442,429.9158 c 22.40162,-2.64252 67.01951,-3.63827 89.5,-1.9974 88.97448,6.49432 170.59298,34.42036 243.73387,83.39436 5.90364,3.95298 10.7349,7.41224 10.73615,7.68724 10e-4,0.275 -2.50264,3.425 -5.5642,7 -37.25842,43.50688 -60.28109,96.03153 -66.90206,152.63253 -1.2478,10.66705 -1.53244,33.11197 -1.67228,131.86134 C 711.7388,875.94724 711.35277,922.075 710.97363,913 709.73909,883.44988 703.67742,859.2536 690.55618,831.5 670.15574,788.34965 633.83202,752.0154 590.5,731.41481 560.17995,717.00028 532.11534,710.72208 498,710.72208 c -36.0767,0 -66.87407,7.37222 -98.5,23.57878 -76.44032,39.17146 -122.74896,123.8579 -114.43702,209.27546 4.90145,50.36978 25.99477,95.34668 61.43498,130.99678 32.49467,32.6871 72.18732,53.1043 117.34233,60.3588 l 10.65971,1.7126 -70.5,0.6829 c -73.47709,0.7118 -85.36045,1.3283 -110,5.7067 -64.81807,11.5178 -124.36086,40.2684 -173.7243,83.8838 -5.03102,4.4451 -9.33361,8.0821 -9.56131,8.0821 -0.22771,0 -4.70169,-5.7375 -9.94219,-12.75 z m 413.0403,-85.9331 c 0.72187,-0.2889 1.58438,-0.2534 1.91667,0.079 0.33229,0.3323 -0.25834,0.5687 -1.3125,0.5253 -1.16495,-0.048 -1.4019,-0.285 -0.60417,-0.6042 z M 710.07895,944.41667 c 0.048,-1.16495 0.28494,-1.4019 0.60416,-0.60417 0.28887,0.72187 0.25335,1.58438 -0.0789,1.91667 -0.33229,0.33229 -0.56864,-0.25834 -0.52522,-1.3125 z M 994.22445,896.5 c -0.14602,-3.85 -0.90384,-13.525 -1.68405,-21.5 -8.84883,-90.44926 -42.81795,-177.91315 -97.25056,-250.40128 -26.42018,-35.18385 -65.1592,-73.94247 -98.53984,-98.58969 -4.8125,-3.5534 -8.75,-6.74575 -8.75,-7.0941 0,-0.34836 4.6125,-5.17476 10.25,-10.72535 42.2896,-41.63764 94.06242,-67.33952 156.75,-77.81631 9.31035,-1.55602 20.27209,-1.79566 96.75,-2.11516 L 1138,427.89778 V 568.94889 710 h -71.495 -71.49505 l -0.26001,96.75 c -0.143,53.2125 -0.37947,93.6 -0.52549,89.75 z m 1564.01235,-1 c -0.7255,-18.25406 -4.7175,-48.94341 -9.292,-71.43352 -16.4758,-81.00242 -52.8617,-156.18112 -107.0167,-221.11272 -13.6557,-16.37318 -44.1243,-46.80965 -60.4281,-60.36437 -29.2024,-24.27847 -59.9245,-44.576 -93.7689,-61.95132 L 2275.5,474.35875 2275.7521,237.67937 2276.0042,1 h 47.754 c 52.9788,0 64.2817,0.7877628 84.4632,5.8866966 35.2779,8.9131254 63.6454,24.6093754 89.6033,49.5791164 30.8989,29.722695 49.6733,64.765747 58.4153,109.034187 l 2.1722,11 0.3082,324.5 c 0.2824,297.36537 0.144,410.29204 -0.4836,394.5 z M 1422,568.5 V 427 h 94 94 V 568.5 710 h -94 -94 z M 1138,214 V 1 h 48.2561 c 53.4324,0 64.7971,0.7833598 84.7439,5.8413265 76.135,19.3057875 131.6193,78.3228005 147.2585,156.6344535 2.1884,10.95864 2.2033,11.77522 2.5009,137.27422 L 1421.0588,427 H 1279.5294 1138 Z" class="color858585 svgShape"></path><path fill="#b2b6c1" d="m 466,1420.3242 c -136.75612,-9.9175 -260.09682,-72.1321 -347.46085,-175.2636 l -7.96084,-9.3976 6.46084,-5.9121 c 48.34921,-44.2426 111.1674,-75.0257 176.96085,-86.7168 26.47854,-4.7051 34.74467,-5.0678 127.5,-5.5938 51.21159,-0.2904 92.56781,-0.9486 98.92646,-1.5743 62.51488,-6.152 120.58032,-41.3685 155.89596,-94.5503 16.53316,-24.8973 27.82504,-54.01872 32.88745,-84.8157 2.07978,-12.65221 2.1541,-16.51803 2.77818,-144.5 0.6932,-142.15531 0.44954,-135.73546 6.12957,-161.5 8.38198,-38.02053 25.71882,-76.42601 48.21506,-106.80858 6.72079,-9.07684 19.72236,-24.69511 20.54506,-24.67997 1.04056,0.0191 18.92364,13.70392 31.12226,23.81586 14.64426,12.13924 47.71279,45.22374 60.14366,60.17269 65.35154,78.58965 104.21477,170.95426 114.44641,272 2.1582,21.31391 2.9395,66.32736 1.47536,85 -9.59396,122.3545 -59.25794,230.9083 -144.79448,316.4868 -82.48216,82.5226 -190.17944,132.7387 -307.77095,143.5045 -9.89595,0.906 -64.2905,1.1459 -75.5,0.3329 z M 2275,923.43261 V 474.86522 l 2.25,0.67249 c 1.2375,0.36987 6.975,3.16853 12.75,6.21925 49.0297,25.90058 85.6099,52.71906 123.0206,90.19175 40.8453,40.91292 71.5323,83.91558 96.0165,134.55129 42.3527,87.5895 58.0843,183.38418 45.9001,279.5 -12.4661,98.3399 -54.0932,190.3621 -120.3273,266 -32.5511,37.1725 -73.281,71.1289 -116.6099,97.2173 C 2306.0988,1356.383 2277.0806,1372 2275.6671,1372 2275.3002,1372 2275,1170.1447 2275,923.43261 Z M 1138,569 V 427 h 142 142 v 142 142 h -142 -142 z" class="color6a6a6a svgShape"></path></g></svg></g></svg>