<svg id="SvgjsSvg1001" width="288" height="288" xmlns="http://www.w3.org/2000/svg" version="1.1" xmlns:xlink="http://www.w3.org/1999/xlink" xmlns:svgjs="http://svgjs.com/svgjs"><defs id="SvgjsDefs1002"></defs><g id="SvgjsG1008"><svg xmlns="http://www.w3.org/2000/svg" xmlns:svgjs="http://svgjs.com/svgjs" xmlns:xlink="http://www.w3.org/1999/xlink" viewBox="0 0 288 288" width="288" height="288"><svg xmlns="http://www.w3.org/2000/svg" viewBox="0 0 226.772 83.534" width="288" height="288"><g fill="#b2b6c1" class="color000 svgShape color6e6e6e" transform="translate(-48.631 -120.27) scale(.32405)"><path fill="#b2b6c1" d="m 377.75,628.33772 c 0.6875,-0.27741 1.8125,-0.27741 2.5,0 0.6875,0.27741 0.125,0.50439 -1.25,0.50439 -1.375,0 -1.9375,-0.22698 -1.25,-0.50439 z m 319.0625,-0.0208 c 0.72187,-0.28887 1.58438,-0.25335 1.91667,0.0789 0.33229,0.33229 -0.25834,0.56864 -1.3125,0.52522 -1.16495,-0.048 -1.4019,-0.28494 -0.60417,-0.60416 z M 252.36523,618.5 c 0.003,-5.5 0.17053,-7.62242 0.37317,-4.71648 0.20265,2.90594 0.20052,7.40594 -0.005,10 -0.20525,2.59406 -0.37104,0.21648 -0.36844,-5.28352 z m 225,0 c 0.003,-5.5 0.17053,-7.62242 0.37317,-4.71648 0.20265,2.90594 0.20052,7.40594 -0.005,10 -0.20525,2.59406 -0.37104,0.21648 -0.36844,-5.28352 z m 59,0 c 0.003,-5.5 0.17053,-7.62242 0.37317,-4.71648 0.20265,2.90594 0.20052,7.40594 -0.005,10 -0.20525,2.59406 -0.37104,0.21648 -0.36844,-5.28352 z m 51.71372,7.81037 c -0.064,-1.7755 -0.78822,-2.26383 -3.82895,-2.5819 l -3.75,-0.39226 3.78138,-0.16811 c 3.83832,-0.17063 5.47923,1.34212 4.3919,4.04891 -0.28346,0.70564 -0.55091,0.29765 -0.59433,-0.90664 z M 727.36523,618.5 c 0.003,-5.5 0.17053,-7.62242 0.37317,-4.71648 0.20265,2.90594 0.20052,7.40594 -0.005,10 -0.20525,2.59406 -0.37104,0.21648 -0.36844,-5.28352 z m 40.88695,6 c 0.0111,-2.2 0.21589,-2.98225 0.45508,-1.73834 0.23919,1.24391 0.23011,3.04391 -0.0202,4 -0.25029,0.95609 -0.446,-0.0617 -0.4349,-2.26166 z M 321.75,623.29427 c 1.2375,-0.23836 3.2625,-0.23836 4.5,0 1.2375,0.23835 0.225,0.43337 -2.25,0.43337 -2.475,0 -3.4875,-0.19502 -2.25,-0.43337 z m 126.0625,-2.97738 c 0.72187,-0.28887 1.58438,-0.25335 1.91667,0.0789 0.33229,0.33229 -0.25834,0.56864 -1.3125,0.52522 -1.16495,-0.048 -1.4019,-0.28494 -0.60417,-0.60416 z M 231.15789,618 c 0,-1.375 0.22698,-1.9375 0.50439,-1.25 0.27741,0.6875 0.27741,1.8125 0,2.5 -0.27741,0.6875 -0.50439,0.125 -0.50439,-1.25 z m 95,0 c 0,-1.375 0.22698,-1.9375 0.50439,-1.25 0.27741,0.6875 0.27741,1.8125 0,2.5 -0.27741,0.6875 -0.50439,0.125 -0.50439,-1.25 z m 366.92106,0.41667 c 0.048,-1.16495 0.28494,-1.4019 0.60416,-0.60417 0.28887,0.72187 0.25335,1.58438 -0.0789,1.91667 -0.33229,0.33229 -0.56864,-0.25834 -0.52522,-1.3125 z M 768.25218,612.5 c 0.0111,-2.2 0.21589,-2.98225 0.45508,-1.73834 0.23919,1.24391 0.23011,3.04391 -0.0202,4 -0.25029,0.95609 -0.446,-0.0617 -0.4349,-2.26166 z M 588.15789,611 c 0,-1.375 0.22698,-1.9375 0.50439,-1.25 0.27741,0.6875 0.27741,1.8125 0,2.5 -0.27741,0.6875 -0.50439,0.125 -0.50439,-1.25 z M 191.46979,533.77758 C 191.20106,533.07491 191.10153,505.5 191.24861,472.5 l 0.26743,-60 0.24198,60.75 L 192,534 h 13.98283 13.98283 l 0.29345,-25.00047 0.29345,-25.00047 -0.0263,25.25047 L 220.5,534.5 l -14.2708,0.27758 c -10.86491,0.21134 -14.38741,-0.0273 -14.75941,-1 z m 86.78021,0.47911 c 4.2625,-0.18745 11.2375,-0.18745 15.5,0 4.2625,0.18745 0.775,0.34082 -7.75,0.34082 -8.525,0 -12.0125,-0.15337 -7.75,-0.34082 z m 68,-0.006 c 11.4125,-0.16044 30.0875,-0.16044 41.5,0 11.4125,0.16044 2.075,0.29172 -20.75,0.29172 -22.825,0 -32.1625,-0.13128 -20.75,-0.29172 z m 76.5,0.006 c 3.9875,-0.18981 10.5125,-0.18981 14.5,0 3.9875,0.18982 0.725,0.34512 -7.25,0.34512 -7.975,0 -11.2375,-0.1553 -7.25,-0.34512 z m 89.5,-8e-4 c 4.2625,-0.18745 11.2375,-0.18745 15.5,0 4.2625,0.18745 0.775,0.34082 -7.75,0.34082 -8.525,0 -12.0125,-0.15337 -7.75,-0.34082 z m 48.72906,0.008 14.98132,-0.31636 0.26981,-21.22406 L 576.5,491.5 l 4.5,-0.0817 4.5,-0.0817 -4.23027,0.38566 -4.23027,0.38567 -0.26973,21.19602 L 576.5,534.5 l -15.25113,0.0404 -15.25113,0.0404 14.98132,-0.31635 z m 107.81842,-0.009 c 4.56362,-0.18572 11.76362,-0.18468 16,0.002 4.23639,0.18698 0.50252,0.33893 -8.29748,0.33766 -8.8,-10e-4 -12.26613,-0.15425 -7.70252,-0.33996 z M 717.45921,533.75 c -0.26291,-0.6875 -0.35768,-28.25 -0.2106,-61.25 l 0.26743,-60 0.24198,60.72395 0.24198,60.72396 15.25,0.30411 15.25,0.3041 -15.28138,0.22194 c -11.47132,0.1666 -15.40057,-0.0897 -15.75941,-1.02806 z m 34.31722,-35.4835 c 2.35204,-0.21124 5.95204,-0.20827 8,0.007 2.04796,0.21487 0.12357,0.38771 -4.27643,0.38408 -4.4,-0.004 -6.07561,-0.17944 -3.72357,-0.39069 z M 272.19495,487.5 c 0.0204,-1.65 0.2445,-2.20394 0.49804,-1.23097 0.25354,0.97297 0.23687,2.32297 -0.0371,3 -0.27393,0.67703 -0.48137,-0.11903 -0.46099,-1.76903 z M 366.75,486.25412 c 5.6375,-0.17825 14.8625,-0.17825 20.5,0 5.6375,0.17825 1.025,0.32409 -10.25,0.32409 -11.275,0 -15.8875,-0.14584 -10.25,-0.32409 z M 797,486.62244 c 0,-0.20765 0.7875,-0.99515 1.75,-1.75 1.58606,-1.24387 1.62143,-1.2085 0.37756,0.37756 C 797.82119,486.91575 797,487.44548 797,486.62244 Z m -171,-12 c 0,-0.20765 0.7875,-0.99515 1.75,-1.75 1.58606,-1.24387 1.62143,-1.2085 0.37756,0.37756 C 626.82119,474.91575 626,475.44548 626,474.62244 Z M 576.39456,452.5 c 0.002,-7.7 0.15853,-10.71781 0.34883,-6.70625 0.1903,4.01156 0.18902,10.31156 -0.003,14 C 576.5487,463.48219 576.393,460.2 576.39456,452.5 Z M 366.75,460.25412 c 5.6375,-0.17825 14.8625,-0.17825 20.5,0 5.6375,0.17825 1.025,0.32409 -10.25,0.32409 -11.275,0 -15.8875,-0.14584 -10.25,-0.32409 z M 777.232,456 c 0,-1.925 0.2058,-2.7125 0.45733,-1.75 0.25152,0.9625 0.25152,2.5375 0,3.5 -0.25153,0.9625 -0.45733,0.175 -0.45733,-1.75 z M 406.39172,426 c 0,-7.425 0.15742,-10.4625 0.34983,-6.75 0.19241,3.7125 0.19241,9.7875 0,13.5 -0.19241,3.7125 -0.34983,0.675 -0.34983,-6.75 z m 222.53259,-1.75 -2.42431,-2.75 2.75,2.42431 c 2.57029,2.26589 3.20859,3.07569 2.42431,3.07569 -0.17912,0 -1.41662,-1.2375 -2.75,-2.75 z m 169.94813,1 c -1.24387,-1.58606 -1.2085,-1.62143 0.37756,-0.37756 0.9625,0.75485 1.75,1.54235 1.75,1.75 0,0.82304 -0.82119,0.29331 -2.12756,-1.37244 z M 596.75,413.33772 c 0.6875,-0.27741 1.8125,-0.27741 2.5,0 0.6875,0.27741 0.125,0.50439 -1.25,0.50439 -1.375,0 -1.9375,-0.22698 -1.25,-0.50439 z m 170.0625,-0.0208 c 0.72187,-0.28887 1.58438,-0.25335 1.91667,0.0789 0.33229,0.33229 -0.25834,0.56864 -1.3125,0.52522 -1.16495,-0.048 -1.4019,-0.28494 -0.60417,-0.60416 z M 334.75,371.25002 c 90.8875,-0.14076 239.6125,-0.14076 330.5,0 90.8875,0.14077 16.525,0.25594 -165.25,0.25594 -181.775,0 -256.1375,-0.11517 -165.25,-0.25594 z" class="color838383 svgShape"></path><path fill="#b2b6c1" d="m 482.25218,624.5 c 0.0111,-2.2 0.21589,-2.98225 0.45508,-1.73834 0.23919,1.24391 0.23011,3.04391 -0.0202,4 -0.25029,0.95609 -0.446,-0.0617 -0.4349,-2.26166 z m 59.06789,-2.5 c 0,-3.575 0.1815,-5.0375 0.40333,-3.25 0.22182,1.7875 0.22182,4.7125 0,6.5 -0.22183,1.7875 -0.40333,0.325 -0.40333,-3.25 z m 34.04516,-3.5 c 0.003,-5.5 0.17053,-7.62242 0.37317,-4.71648 0.20265,2.90594 0.20052,7.40594 -0.005,10 -0.20525,2.59406 -0.37104,0.21648 -0.36844,-5.28352 z m 156.88695,6 c 0.0111,-2.2 0.21589,-2.98225 0.45508,-1.73834 0.23919,1.24391 0.23011,3.04391 -0.0202,4 -0.25029,0.95609 -0.446,-0.0617 -0.4349,-2.26166 z m 31.11305,-6 c 0.003,-5.5 0.17053,-7.62242 0.37317,-4.71648 0.20265,2.90594 0.20052,7.40594 -0.005,10 -0.20525,2.59406 -0.37104,0.21648 -0.36844,-5.28352 z m -272.90635,4.43347 c -0.36253,-0.58659 -0.44468,-1.281 -0.18255,-1.54313 0.26212,-0.26213 0.74306,0.21781 1.06875,1.06653 0.67618,1.76211 0.0999,2.07206 -0.8862,0.4766 z M 580.4119,622 c 0.0696,-0.99948 1.26963,-1.54355 3.59629,-1.63052 3.37994,-0.12634 3.38968,-0.11645 0.30382,0.30873 -1.75339,0.24159 -3.37172,0.97533 -3.59629,1.63052 -0.22457,0.6552 -0.36129,0.51627 -0.30382,-0.30873 z M 226.25,620.31067 c 0.9625,-0.25152 2.5375,-0.25152 3.5,0 0.9625,0.25153 0.175,0.45733 -1.75,0.45733 -1.925,0 -2.7125,-0.2058 -1.75,-0.45733 z m 95,0 c 0.9625,-0.25152 2.5375,-0.25152 3.5,0 0.9625,0.25153 0.175,0.45733 -1.75,0.45733 -1.925,0 -2.7125,-0.2058 -1.75,-0.45733 z m -34.68571,-1.6038 c 0.37553,-0.98622 0.93469,-1.54122 1.24258,-1.23333 0.30789,0.30789 6.4e-4,1.11479 -0.68278,1.79313 -0.98762,0.98026 -1.10248,0.8654 -0.5598,-0.5598 z M 548.5,619 c 0.33992,-0.55 0.81648,-1 1.05902,-1 0.24254,0 0.44098,0.45 0.44098,1 0,0.55 -0.47656,1 -1.05902,1 -0.58246,0 -0.7809,-0.45 -0.44098,-1 z m 111.5,0 c 0,-0.55 0.47656,-1 1.05902,-1 0.58246,0 0.7809,0.45 0.44098,1 -0.33992,0.55 -0.81648,1 -1.05902,1 C 660.19844,620 660,619.55 660,619 Z m -177.84211,-4 c 0,-1.375 0.22698,-1.9375 0.50439,-1.25 0.27741,0.6875 0.27741,1.8125 0,2.5 -0.27741,0.6875 -0.50439,0.125 -0.50439,-1.25 z m 250,0 c 0,-1.375 0.22698,-1.9375 0.50439,-1.25 0.27741,0.6875 0.27741,1.8125 0,2.5 -0.27741,0.6875 -0.50439,0.125 -0.50439,-1.25 z m -152.07894,-0.58333 c 0.048,-1.16495 0.28494,-1.4019 0.60416,-0.60417 0.28887,0.72187 0.25335,1.58438 -0.0789,1.91667 -0.33229,0.33229 -0.56864,-0.25834 -0.52522,-1.3125 z M 232.15789,611 c 0,-1.375 0.22698,-1.9375 0.50439,-1.25 0.27741,0.6875 0.27741,1.8125 0,2.5 -0.27741,0.6875 -0.50439,0.125 -0.50439,-1.25 z m 173,0 c 0,-1.375 0.22698,-1.9375 0.50439,-1.25 0.27741,0.6875 0.27741,1.8125 0,2.5 -0.27741,0.6875 -0.50439,0.125 -0.50439,-1.25 z m 16,0 c 0,-1.375 0.22698,-1.9375 0.50439,-1.25 0.27741,0.6875 0.27741,1.8125 0,2.5 -0.27741,0.6875 -0.50439,0.125 -0.50439,-1.25 z m 186,0 c 0,-1.375 0.22698,-1.9375 0.50439,-1.25 0.27741,0.6875 0.27741,1.8125 0,2.5 -0.27741,0.6875 -0.50439,0.125 -0.50439,-1.25 z m 89.65461,1.31689 c 0.72187,-0.28887 1.58438,-0.25335 1.91667,0.0789 0.33229,0.33229 -0.25834,0.56864 -1.3125,0.52522 -1.16495,-0.048 -1.4019,-0.28494 -0.60417,-0.60416 z M 377.75,608.33772 c 0.6875,-0.27741 1.8125,-0.27741 2.5,0 0.6875,0.27741 0.125,0.50439 -1.25,0.50439 -1.375,0 -1.9375,-0.22698 -1.25,-0.50439 z m 319,0 c 0.6875,-0.27741 1.8125,-0.27741 2.5,0 0.6875,0.27741 0.125,0.50439 -1.25,0.50439 -1.375,0 -1.9375,-0.22698 -1.25,-0.50439 z m -363,-31.0877 c 91.4375,-0.14075 241.0625,-0.14075 332.5,0 91.4375,0.14075 16.625,0.2559 -166.25,0.2559 -182.875,0 -257.6875,-0.11515 -166.25,-0.2559 z m 297.01166,-40.95728 c 1.24391,-0.23919 3.04391,-0.23011 4,0.0202 0.95609,0.25029 -0.0617,0.446 -2.26166,0.4349 -2.2,-0.0111 -2.98225,-0.21589 -1.73834,-0.45508 z M 369.19097,508.25323 c 6.98004,-0.17166 18.68004,-0.17212 26,-10e-4 7.31997,0.17109 1.60903,0.31154 -12.69097,0.31211 -14.3,5.7e-4 -20.28906,-0.13941 -13.30903,-0.31107 z m 395.07806,-9.94622 c 0.97297,-0.25354 2.32297,-0.23687 3,0.0371 0.67703,0.27393 -0.11903,0.48137 -1.76903,0.46099 -1.65,-0.0204 -2.20394,-0.2445 -1.23097,-0.49804 z M 460.99765,488.25 c -0.001,-0.4125 3.71121,-0.62877 8.25,-0.4806 14.95659,0.48827 16.43601,0.87857 4.00235,1.05589 -6.7375,0.0961 -12.25106,-0.16279 -12.25235,-0.57529 z M 220.34281,476.5 c 0.004,-4.4 0.17944,-6.07561 0.39069,-3.72357 0.21124,2.35204 0.20827,5.95204 -0.007,8 -0.21487,2.04796 -0.38771,0.12357 -0.38408,-4.27643 z m 51.10183,-33 c -4.2e-4,-17.05 0.13593,-24.16558 0.30301,-15.81241 0.16707,8.35318 0.16742,22.30318 7.7e-4,31 -0.16665,8.69683 -0.30335,1.86241 -0.30378,-15.18759 z M 758.25,472.31067 c 0.9625,-0.25152 2.5375,-0.25152 3.5,0 0.9625,0.25153 0.175,0.45733 -1.75,0.45733 -1.925,0 -2.7125,-0.2058 -1.75,-0.45733 z M 809.30987,455.5 c 0.006,-3.3 0.1923,-4.52944 0.41486,-2.73209 0.22256,1.79735 0.21797,4.49735 -0.0102,6 -0.22818,1.50265 -0.41027,0.0321 -0.40466,-3.26791 z M 638.15789,448 c 0,-1.375 0.22698,-1.9375 0.50439,-1.25 0.27741,0.6875 0.27741,1.8125 0,2.5 -0.27741,0.6875 -0.50439,0.125 -0.50439,-1.25 z M 776.8125,414.31689 c 0.72187,-0.28887 1.58438,-0.25335 1.91667,0.0789 0.33229,0.33229 -0.25834,0.56864 -1.3125,0.52522 -1.16495,-0.048 -1.4019,-0.28494 -0.60417,-0.60416 z M 600.75,413.33772 c 0.6875,-0.27741 1.8125,-0.27741 2.5,0 0.6875,0.27741 0.125,0.50439 -1.25,0.50439 -1.375,0 -1.9375,-0.22698 -1.25,-0.50439 z m 169.0625,-0.0208 c 0.72187,-0.28887 1.58438,-0.25335 1.91667,0.0789 0.33229,0.33229 -0.25834,0.56864 -1.3125,0.52522 -1.16495,-0.048 -1.4019,-0.28494 -0.60417,-0.60416 z M 150.07895,388.41667 c 0.048,-1.16495 0.28494,-1.4019 0.60416,-0.60417 0.28887,0.72187 0.25335,1.58438 -0.0789,1.91667 -0.3323,0.33229 -0.56864,-0.25834 -0.52522,-1.3125 z m 699,0 c 0.048,-1.16495 0.28494,-1.4019 0.60416,-0.60417 0.28887,0.72187 0.25335,1.58438 -0.0789,1.91667 -0.33229,0.33229 -0.56864,-0.25834 -0.52522,-1.3125 z M 156,377.5 c 1.29175,-1.375 2.57363,-2.5 2.84863,-2.5 0.275,0 -0.55688,1.125 -1.84863,2.5 -1.29175,1.375 -2.57363,2.5 -2.84863,2.5 -0.275,0 0.55688,-1.125 1.84863,-2.5 z m 686.92431,-0.25 -2.42431,-2.75 2.75,2.42431 c 1.5125,1.33338 2.75,2.57088 2.75,2.75 0,0.78428 -0.8098,0.14598 -3.07569,-2.42431 z" class="color696969 svgShape"></path><path d="M 220,618.5 V 609 h 6 c 5.33333,0 6,0.22222 6,2 0,1.61905 -0.66667,2 -3.5,2 -2.44444,0 -3.5,0.45238 -3.5,1.5 0,1 1,1.5 3,1.5 2.33333,0 3,0.44444 3,2 0,1.55556 -0.66667,2 -3,2 -2.83333,0 -3,0.22222 -3,4 0,3.6 -0.25,4 -2.5,4 -2.49123,0 -2.5,-0.0333 -2.5,-9.5 z m 33,0 c 0,-9.46667 0.009,-9.5 2.5,-9.5 2.49123,0 2.5,0.0333 2.5,9.5 0,9.46667 -0.009,9.5 -2.5,9.5 -2.49123,0 -2.5,-0.0333 -2.5,-9.5 z m 31.04393,7.3212 C 281.26532,619.22694 278,610.54858 278,609.75804 c 0,-0.49343 1.0088,-0.75334 2.24177,-0.57759 1.69514,0.24163 2.70587,1.61312 4.14503,5.62452 1.04679,2.91774 2.21361,4.94274 2.59294,4.5 0.37933,-0.44273 1.47629,-2.94247 2.43768,-5.55497 1.25386,-3.40723 2.28999,-4.75 3.66529,-4.75 2.44472,0 2.45619,-0.0776 -1.47917,10 -3.48961,8.93612 -5.79277,11.01431 -7.55961,6.8212 z M 315,618.5 V 609 h 6.5 c 5.83333,0 6.5,0.20513 6.5,2 0,1.66667 -0.66667,2 -4,2 -2.88889,0 -4,0.41667 -4,1.5 0,1 1,1.5 3,1.5 2.33333,0 3,0.44444 3,2 0,1.55556 -0.66667,2 -3,2 -2.33333,0 -3,0.44444 -3,2 0,1.66667 0.66667,2 4,2 3.33333,0 4,0.33333 4,2 0,1.79487 -0.66667,2 -6.5,2 H 315 Z m 59.3891,8.52029 c -3.106,-1.25501 -3.72687,-3.77831 -1.1323,-4.60179 1.28627,-0.40825 2.30691,-0.22736 2.5323,0.4488 0.52097,1.5629 5.2109,1.43403 5.2109,-0.14318 0,-0.70173 -1.9125,-2.16423 -4.25,-3.25 -4.76021,-2.21111 -6.1276,-5.95367 -3.23286,-8.8484 3.15032,-3.15033 12.48286,-1.32185 12.48286,2.44571 0,1.3022 -4.36726,1.16131 -5.71287,-0.1843 C 379.1049,611.7049 377,612.46904 377,614.08046 c 0,0.52933 1.2375,1.48978 2.75,2.13434 4.22267,1.79951 6.25,3.87013 6.25,6.38348 0,4.26399 -6.17846,6.61705 -11.6109,4.42201 z M 411,620.5 c 0,-7.33333 -0.0556,-7.5 -2.5,-7.5 -1.83333,0 -2.5,-0.53333 -2.5,-2 0,-1.82222 0.66667,-2 7.5,-2 6.83333,0 7.5,0.17778 7.5,2 0,1.46667 -0.66667,2 -2.5,2 -2.44444,0 -2.5,0.16667 -2.5,7.5 0,7.33333 -0.0556,7.5 -2.5,7.5 -2.44444,0 -2.5,-0.16667 -2.5,-7.5 z m 29.42345,5.75 c 0.30702,-0.9625 1.85316,-5.125 3.43587,-9.25 4.618,-12.03588 5.73345,-11.2268 13.97401,10.13587 0.18334,0.47527 -0.61829,0.86413 -1.78138,0.86413 -1.1631,0 -2.37374,-0.675 -2.69032,-1.5 -0.37635,-0.98073 -1.93414,-1.5 -4.5,-1.5 -2.56586,0 -4.12366,0.51927 -4.5,1.5 -0.85166,2.21939 -4.64899,1.97833 -3.93818,-0.25 z m 10.28976,-6 c -0.22265,-0.4125 -0.72342,-1.63739 -1.11281,-2.72197 -0.59319,-1.65222 -0.85893,-1.7333 -1.63888,-0.5 -1.52522,2.41175 -1.09411,3.97197 1.0975,3.97197 1.13246,0 1.87684,-0.3375 1.65419,-0.75 z M 478,618.5 V 609 h 4.77749 c 7.72044,0 11.25309,3.84076 7.83375,8.51698 -1.50991,2.06493 -1.12015,4.34039 1.04587,6.10596 1.63699,1.33436 0.73481,4.37706 -1.29782,4.37706 -0.78471,0 -2.35601,-1.575 -3.49179,-3.5 -1.13578,-1.925 -2.6956,-3.5 -3.46628,-3.5 -0.93473,0 -1.40122,1.16521 -1.40122,3.5 0,2.83333 -0.38095,3.5 -2,3.5 -1.85965,0 -2,-0.66667 -2,-9.5 z m 9,-3.5 c 0,-1.46667 -0.66667,-2 -2.5,-2 -1.83333,0 -2.5,0.53333 -2.5,2 0,1.46667 0.66667,2 2.5,2 1.83333,0 2.5,-0.53333 2.5,-2 z m 50,3.5 c 0,-9.18671 0.0742,-9.49983 2.25,-9.49484 1.63243,0.004 3.21067,1.51196 5.75,5.49484 1.925,3.01932 3.76202,5.492 4.08227,5.49484 0.32025,0.003 0.37703,-2.46984 0.12617,-5.49484 -0.44657,-5.38511 -0.40129,-5.5 2.16773,-5.5 H 554 v 9.5 c 0,9.32846 -0.0428,9.5 -2.37067,9.5 -1.80186,0 -3.35927,-1.4996 -6.49094,-6.25 l -4.12027,-6.25 -0.009,6.25 c -0.008,5.58031 -0.22336,6.25 -2.00906,6.25 -1.85965,0 -2,-0.66667 -2,-9.5 z m 39,0 V 609 h 6 c 5.33333,0 6,0.22222 6,2 0,1.66667 -0.66667,2 -4,2 -5.0462,0 -5.69095,2.70983 -0.75819,3.18664 4.62286,0.44685 5.07255,3.56274 0.57664,3.99551 -2.19044,0.21085 -3.41367,0.90698 -3.63358,2.06785 -0.27175,1.43451 0.40283,1.75 3.74181,1.75 3.40665,0 4.07332,0.32733 4.07332,2 0,1.77778 -0.66667,2 -6,2 h -6 z m 37,2 c 0,-7.33333 -0.0556,-7.5 -2.5,-7.5 -1.83333,0 -2.5,-0.53333 -2.5,-2 0,-1.83333 0.66667,-2 8,-2 7.33333,0 8,0.16667 8,2 0,1.55556 -0.66667,2 -3,2 h -3 v 7.5 c 0,7.33333 -0.0556,7.5 -2.5,7.5 -2.44444,0 -2.5,-0.16667 -2.5,-7.5 z m 34.89742,4.82276 C 647.2878,623.77024 645.9827,620.25 644.9972,617.5 c -0.9855,-2.75 -2.11117,-5.7875 -2.5015,-6.75 -0.56083,-1.38296 -0.19696,-1.75 1.73489,-1.75 2.06955,0 2.73109,0.84293 4.31228,5.49471 1.02724,3.02209 2.16391,5.15959 2.52594,4.75 1.59236,-1.80157 2.66047,-6.97708 1.76875,-8.57049 C 652.07148,609.30531 652.35627,609 654.39921,609 c 2.15111,0 2.73917,0.7632 4.22849,5.48787 0.95144,3.01833 1.98694,5.2365 2.3011,4.92928 0.31416,-0.30722 1.28276,-2.66426 2.15246,-5.23787 1.19417,-3.53384 2.14659,-4.76202 3.89075,-5.01728 1.59052,-0.23277 2.16084,0.0785 1.83197,1 -0.26265,0.7359 -1.78077,5.0505 -3.37361,9.588 -3.31711,9.44944 -5.47648,10.74963 -7.47362,4.5 -1.80345,-5.64352 -2.59064,-5.84846 -4.17712,-1.0875 -1.74698,5.24265 -4.30323,6.18144 -5.88221,2.16026 z m 43.50832,0.34982 c -2.1688,-1.86553 -2.72563,-3.23867 -2.80577,-6.919 -0.13751,-6.31565 3.02195,-9.75358 8.96356,-9.75358 6.40432,0 8.93647,2.54965 8.93647,8.99823 0,4.43021 -0.40378,5.52225 -2.80576,7.58835 -3.66757,3.15471 -8.68013,3.18979 -12.2885,0.086 z M 700.8,622.8 c 2.75634,-2.75634 0.49019,-10.8 -3.04269,-10.8 -2.25804,0 -4.75731,3.39115 -4.75731,6.45499 0,3.65412 1.53453,5.54501 4.5,5.54501 1.155,0 2.64,-0.54 3.3,-1.2 z M 728,618.5 V 609 h 4.77749 c 2.70554,0 5.74138,0.67513 7,1.5567 2.54119,1.77992 2.9252,5.61523 0.74352,7.42586 -1.16664,0.96823 -1.24062,1.68044 -0.35029,3.37245 0.62078,1.17974 1.57689,2.43707 2.1247,2.79407 1.42597,0.92926 0.062,3.85092 -1.79776,3.85092 -0.86081,0 -2.49438,-1.575 -3.63016,-3.5 -1.13578,-1.925 -2.6956,-3.5 -3.46628,-3.5 -0.93473,0 -1.40122,1.16521 -1.40122,3.5 0,2.83333 -0.38095,3.5 -2,3.5 -1.85965,0 -2,-0.66667 -2,-9.5 z m 9.32411,-2.90223 C 738.03456,613.74637 737.17527,613 734.33333,613 732.66667,613 732,613.57143 732,615 c 0,1.44282 0.66667,2 2.39301,2 1.31616,0 2.63515,-0.63101 2.9311,-1.40223 z M 764,618.5 c 0,-8.83333 0.14035,-9.5 2,-9.5 1.61905,0 2,0.66667 2,3.5 0,4.40373 0.87629,4.40219 3.8789,-0.007 1.6208,-2.37998 3.15333,-3.49317 4.80902,-3.49317 2.66549,0 2.56684,0.4048 -1.40844,5.77897 l -2.42546,3.27898 3.57133,4.97102 3.57132,4.97103 h -2.86545 c -2.25223,0 -3.4824,-0.90951 -5.74833,-4.25 L 768.5,619.5 l -0.3075,4.25 c -0.24859,3.43587 -0.6796,4.25 -2.25,4.25 C 764.15548,628 764,627.2396 764,618.5 Z M 164,576.31218 c -3.9175,-1.39602 -9.36326,-6.08443 -11.32589,-9.75077 L 150.5,562.5 v -87 c 0,-47.85 0.344,-88.22925 0.76445,-89.73166 1.11314,-3.97765 6.61038,-9.80609 11.22697,-11.90336 3.85163,-1.74976 17.06628,-1.82106 337.50858,-1.82106 320.4423,0 333.65695,0.0713 337.50858,1.82106 4.61659,2.09727 10.11383,7.92571 11.22697,11.90336 C 849.156,387.27075 849.5,427.65 849.5,475.5 v 87 l -2.17411,4.06141 c -1.19576,2.23377 -4.08228,5.38377 -6.41447,7 L 836.67106,576.5 501.08553,576.67336 C 316.51349,576.76871 164.825,576.60618 164,576.31218 Z M 637.93151,536.1214 c 2.16689,-0.60531 2.67948,-1.81882 4.70992,-11.15032 3.05885,-14.05778 3.10382,-13.66938 -1.67613,-14.47694 -6.13921,-1.03722 -9.27931,-4.34781 -12.50019,-13.17888 -1.85785,-5.09392 -4.18784,-9.22889 -6.79269,-12.05481 -2.18066,-2.36575 -3.78655,-4.42123 -3.56863,-4.56774 0.21791,-0.14651 2.38564,-1.59981 4.81717,-3.22955 9.95369,-6.67149 15.43728,-17.42112 15.35557,-30.10191 -0.0902,-13.99072 -5.97387,-23.76567 -17.59555,-29.23249 C 611.44801,413.78559 604.24692,413 573.66809,413 H 546 v 61 61 h 15.5 15.5 v -21.6165 -21.61649 l 6.46769,0.41183 c 8.29868,0.52842 10.4987,2.51788 14.62945,13.22927 6.39776,16.58994 11.28651,23.63728 19.24661,27.74477 6.18057,3.18925 15.16184,4.48424 20.58776,2.96852 z M 577,452.38938 v -13.61063 l 10.75,0.40666 C 602.85429,439.75679 607,442.4403 607,451.64592 607,461.62974 600.66241,466 586.18428,466 H 577 Z M 220.85039,497.4998 c -0.19271,-20.62511 -0.28085,-37.50011 -0.19585,-37.5 0.085,1.1e-4 1.60442,2.5877 3.3765,5.7502 1.77207,3.1625 11.20042,17.45 20.95189,31.75 9.75147,14.3 19.48205,28.57034 21.62351,31.71187 l 3.89356,5.71188 15.25,0.0381 L 301,535 v -61 -61 h -15.13328 -15.13328 l 0.45764,37.5 c 0.2517,20.625 0.36296,37.5 0.24725,37.5 -0.11572,0 -2.02388,-3.0375 -4.24035,-6.75 -3.69345,-6.18637 -12.44639,-19.31912 -36.67282,-55.02319 L 221.55032,413 H 206.27516 191 v 61 61 h 15.10039 15.1004 z M 408,521.5 V 508 H 382.5 357 V 497.5 487 h 20 20 V 473.5 460 H 377 357 V 449.5 439 h 25 25 V 426 413 H 366.5 326 v 61 61 h 41 41 z m 40.47662,3 3.74095,-10.5 h 21.76554 21.76553 l 4.29834,10.5 4.29834,10.5 h 15.84076 15.84076 l -1.33143,-3.25 c -0.73229,-1.7875 -12.06097,-29.2375 -25.17486,-61 L 485.67713,413 h -12.61426 -12.61426 l -22.47431,60.12374 c -12.36086,33.06806 -22.6243,60.51806 -22.80763,61 C 414.98333,534.60568 421.56136,535 429.7845,535 h 14.95116 z M 462,487.49465 c 0,-0.27794 2.43655,-7.70824 5.41455,-16.51178 l 5.41455,-16.00644 2.23093,6.70395 c 1.22701,3.68717 3.96546,10.96689 6.08545,16.17716 C 483.26547,483.06781 485,487.48133 485,487.66538 485,487.84942 479.825,488 473.5,488 467.175,488 462,487.77259 462,487.49465 Z M 692,474 V 413 H 676.5 661 v 61 61 h 15.5 15.5 z m 56,43.1437 v -17.8563 l 12.75,-0.54759 C 793.80508,497.32018 809.52725,483.1844 809.39853,455 c -0.0779,-17.05761 -5.29114,-28.09162 -16.4332,-34.78147 -10.30972,-6.19011 -12.44692,-6.51624 -45.71533,-6.97607 L 717,412.82434 V 473.91217 535 h 15.5 15.5 z m 0.73672,-44.74032 C 748.33152,471.99819 748,464.2565 748,455.19964 v -16.46703 l 10.06169,0.4845 c 7.90908,0.38085 10.63683,0.90603 12.75,2.45478 3.98723,2.92226 6.18497,8.01764 6.18676,14.34371 0.002,6.84894 -2.47924,11.78053 -7.09008,14.09232 -3.58698,1.79845 -19.89999,3.56713 -21.17165,2.29546 z" class="color060606 svgShape color000" fill="#b2b6c1"></path></g></svg></svg></g></svg>