<svg id="SvgjsSvg1001" width="288" height="288" xmlns="http://www.w3.org/2000/svg" version="1.1" xmlns:xlink="http://www.w3.org/1999/xlink" xmlns:svgjs="http://svgjs.com/svgjs"><defs id="SvgjsDefs1002"></defs><g id="SvgjsG1008"><svg xmlns="http://www.w3.org/2000/svg" viewBox="0 0 226.772 255.658" width="288" height="288"><g transform="matrix(.2195 0 0 .2195 -18.437 -3.839)" fill="#b2b6c1" class="color000 svgShape"><path fill="#d3d5dc" d="m 777.02388,1181.7004 c 2.39647,-0.2968 5.99647,-0.2907 8,0.014 2.00353,0.3042 0.0428,0.547 -4.35721,0.5395 -4.4,-0.01 -6.03926,-0.2564 -3.64279,-0.5531 z m -514.69055,-1.2501 c 0.91667,-0.3699 2.41667,-0.3699 3.33334,0 0.91666,0.3699 0.16666,0.6725 -1.66667,0.6725 -1.83333,0 -2.58333,-0.3026 -1.66667,-0.6725 z m 20,0 c 0.91667,-0.3699 2.41667,-0.3699 3.33334,0 0.91666,0.3699 0.16666,0.6725 -1.66667,0.6725 -1.83333,0 -2.58333,-0.3026 -1.66667,-0.6725 z m 124.08334,-0.028 c 0.96249,-0.3852 2.1125,-0.3378 2.55556,0.1052 0.44305,0.443 -0.34446,0.7581 -1.75,0.7003 -1.55327,-0.064 -1.8692,-0.38 -0.80556,-0.8056 z m 17.25,0.028 c 0.91666,-0.3699 2.41666,-0.3699 3.33333,0 0.91667,0.3699 0.16667,0.6725 -1.66667,0.6725 -1.83333,0 -2.58333,-0.3026 -1.66666,-0.6725 z m 128.08333,-0.028 c 0.96249,-0.3852 2.11251,-0.3378 2.55556,0.1052 0.44305,0.443 -0.34445,0.7581 -1.75,0.7003 -1.55327,-0.064 -1.8692,-0.38 -0.80556,-0.8056 z m 17.25,0.028 c 0.91667,-0.3699 2.41667,-0.3699 3.33333,0 0.91667,0.3699 0.16667,0.6725 -1.66666,0.6725 -1.83334,0 -2.58334,-0.3026 -1.66667,-0.6725 z m 198.75,-0.028 c 0.96249,-0.3852 2.11251,-0.3378 2.55556,0.1052 0.44305,0.443 -0.34445,0.7581 -1.75,0.7003 -1.55327,-0.064 -1.8692,-0.38 -0.80556,-0.8056 z m 25.33333,0 c 0.9625,-0.3852 2.11251,-0.3378 2.55556,0.1052 0.44306,0.443 -0.34445,0.7581 -1.75,0.7003 -1.55326,-0.064 -1.8692,-0.38 -0.80556,-0.8056 z m 253.33337,0 c 0.9625,-0.3852 2.1125,-0.3378 2.5555,0.1052 0.4431,0.443 -0.3444,0.7581 -1.75,0.7003 -1.5532,-0.064 -1.8692,-0.38 -0.8055,-0.8056 z m 18.5833,0.028 c 0.9167,-0.3699 2.4167,-0.3699 3.3333,0 0.9167,0.3699 0.1667,0.6725 -1.6666,0.6725 -1.8334,0 -2.5834,-0.3026 -1.6667,-0.6725 z m -936,-1.3333 c 0.91667,-0.3699 2.41667,-0.3699 3.33333,0 0.91667,0.3698 0.16667,0.6725 -1.66666,0.6725 -1.83334,0 -2.58334,-0.3027 -1.66667,-0.6725 z m 32,0 c 0.91667,-0.3699 2.41667,-0.3699 3.33333,0 0.91667,0.3698 0.16667,0.6725 -1.66666,0.6725 -1.83334,0 -2.58334,-0.3027 -1.66667,-0.6725 z m 289.88005,-3.4811 -0.21338,-5.0307 -3.66667,2.189 -3.66667,2.1889 3.33334,-2.7529 c 4.06032,-3.3533 5.70864,-2.0506 4.97717,3.9336 l -0.55041,4.5029 z m 145.45619,-0.3026 c 0.0148,-2.9333 0.28785,-3.9763 0.60677,-2.3178 0.31892,1.6586 0.30682,4.0586 -0.0269,5.3334 -0.33372,1.2748 -0.59467,-0.082 -0.57987,-3.0156 z m 65.99709,3.7837 c 0.91667,-0.3699 2.41667,-0.3699 3.33334,0 0.91666,0.3698 0.16666,0.6725 -1.66667,0.6725 -1.83333,0 -2.58333,-0.3027 -1.66667,-0.6725 z m 9.3036,-0.079 c 2.36698,-0.2946 6.56698,-0.2994 9.33334,-0.011 2.76634,0.2886 0.82973,0.5296 -4.3036,0.5355 -5.13334,0.01 -7.39672,-0.2302 -5.02974,-0.5247 z m 16.6964,0.043 c 2.16343,-0.5654 2.33334,-3.8496 2.33334,-45.1 0,-24.4696 0.45,-44.7687 1,-45.1091 0.55,-0.3404 0.83474,20.0242 0.63277,45.2547 l -0.36723,45.8734 -2.9661,-0.1547 c -2.25683,-0.1177 -2.40815,-0.3004 -0.63278,-0.7644 z m 73.63364,-0.3608 c 0.47139,-0.7628 2.42167,-1.3869 4.33394,-1.3869 4.17944,0 3.69592,0.6387 -1.41263,1.8659 -2.47824,0.5954 -3.48347,0.4305 -2.92131,-0.4791 z M 864,1120.6667 v -59.3334 l 3.66667,0.1816 c 3.14378,0.1557 3.23886,0.264 0.66666,0.7594 l -3,0.5778 v 57.8408 57.8407 l 7.66667,0.4811 7.66667,0.4811 -8.33334,0.2521 L 864,1180 Z m 22.41667,58.4225 c 0.96249,-0.3852 2.1125,-0.3378 2.55556,0.1052 0.44305,0.443 -0.34446,0.7582 -1.75,0.7003 -1.55327,-0.064 -1.8692,-0.3799 -0.80556,-0.8056 z m 7.92492,-22.7542 c 0.63209,-43.7985 1.10324,-47.8909 1.38169,-12.0017 0.1522,19.6167 -0.17328,35.6674 -0.72328,35.6684 -0.55,9e-4 -0.84629,-10.6491 -0.65841,-23.6667 z m 50.01712,22.741 c 1.29729,-0.338 3.09729,-0.3158 4,0.05 0.9027,0.3652 -0.15871,0.6418 -2.35871,0.6146 -2.2,-0.027 -2.93859,-0.326 -1.64129,-0.664 z m 17.97462,-0.017 c 1.65,-0.3178 4.35,-0.3178 6,0 1.65,0.3178 0.3,0.5778 -3,0.5778 -3.3,0 -4.65,-0.26 -3,-0.5778 z m 10.99876,-40.791 0.66543,-41.6014 0.35449,40.5801 c 0.19498,22.319 -0.10453,41.0397 -0.66542,41.6014 -0.56096,0.5618 -0.72048,-17.6993 -0.3545,-40.5801 z M 246.66667,1176 c -1.1,-0.7109 -1.4,-1.2925 -0.66667,-1.2925 0.73333,0 2.23333,0.5816 3.33333,1.2925 1.1,0.7109 1.4,1.2925 0.66667,1.2925 -0.73333,0 -2.23333,-0.5816 -3.33333,-1.2925 z m 144,0 c -1.1,-0.7109 -1.4,-1.2925 -0.66667,-1.2925 0.73333,0 2.23333,0.5816 3.33333,1.2925 1.1,0.7109 1.4,1.2925 0.66667,1.2925 -0.73333,0 -2.23333,-0.5816 -3.33333,-1.2925 z m 416,0 c 1.1,-0.7109 2.6,-1.2925 3.33333,-1.2925 0.73333,0 0.43333,0.5816 -0.66667,1.2925 -1.1,0.7109 -2.6,1.2925 -3.33333,1.2925 -0.73333,0 -0.43333,-0.5816 0.66667,-1.2925 z M 768,1170 c 1.72233,-1.8333 3.43151,-3.3333 3.79817,-3.3333 0.36667,0 -0.7425,1.5 -2.46484,3.3333 -1.72233,1.8333 -3.4315,3.3333 -3.79817,3.3333 -0.36667,0 0.74251,-1.5 2.46484,-3.3333 z m -532.18563,-0.7458 -3.1477,-2.7458 3.66666,2.2325 c 2.01667,1.2278 3.66667,2.4635 3.66667,2.7458 0,1.0411 -1.11399,0.4469 -4.18563,-2.2325 z m 580.8523,1.889 c 0.73333,-0.6507 3.12904,-2.6742 5.3238,-4.4965 3.84989,-3.1966 3.89738,-3.2033 1.34824,-0.1899 -1.45322,1.718 -3.84892,3.7414 -5.32379,4.4966 -1.47488,0.7551 -2.08159,0.8406 -1.34825,0.1898 z m 276.66663,-0.9799 c 0,-0.2769 1.05,-1.3269 2.3334,-2.3334 2.1147,-1.6585 2.1619,-1.6113 0.5034,0.5034 -1.7418,2.221 -2.8368,2.9273 -2.8368,1.83 z m -718.73841,-5.83 -4.59489,-5 5,4.5949 c 2.75,2.5272 5,4.7772 5,5 0,1.0182 -1.12829,0.059 -5.40511,-4.5949 z m 637.40511,-1 c -3.2387,-3.3 -5.5886,-6 -5.2219,-6 0.3667,0 3.3165,2.7 6.5552,6 3.2387,3.3 5.5886,6 5.2219,6 -0.3666,0 -3.3165,-2.7 -6.5552,-6 z m -692.66667,-0.6666 c 2.86432,-2.9334 5.50787,-5.3334 5.87454,-5.3334 0.36666,0 -1.67688,2.4 -4.5412,5.3334 -2.86432,2.9333 -5.50787,5.3333 -5.87454,5.3333 -0.36666,0 1.67688,-2.4 4.5412,-5.3333 z m 199.91612,1 -3.91612,-4.3334 4.33334,3.9162 c 4.03928,3.6503 4.9462,4.7505 3.91612,4.7505 -0.22947,0 -2.17947,-1.95 -4.33334,-4.3333 z M 734.59489,1163 730,1158 l 5,4.5949 c 4.65389,4.2768 5.61305,5.4051 4.59489,5.4051 -0.22281,0 -2.47281,-2.25 -5,-5 z m -509.26156,-3 c -2.32324,-2.9333 -3.92408,-5.3333 -3.55741,-5.3333 0.36667,0 2.56751,2.4 4.89075,5.3333 2.32324,2.9333 3.92408,5.3333 3.55741,5.3333 -0.36667,0 -2.56751,-2.4 -4.89075,-5.3333 z m 575.33334,1.3333 c 1.32732,-1.4666 2.7133,-2.6666 3.07997,-2.6666 0.36667,0 -0.41932,1.2 -1.74664,2.6666 -1.32732,1.4667 -2.71331,2.6667 -3.07997,2.6667 -0.36667,0 0.41932,-1.2 1.74664,-2.6667 z m 28.66666,-2 c 1.72234,-1.8333 3.43151,-3.3333 3.79818,-3.3333 0.36666,0 -0.74251,1.5 -2.46484,3.3333 -1.72234,1.8334 -3.43151,3.3334 -3.79818,3.3334 -0.36666,0 0.74251,-1.5 2.46484,-3.3334 z m 273.33337,1.4966 c 0,-0.2768 1.05,-1.3268 2.3333,-2.3333 2.1147,-1.6585 2.1619,-1.6113 0.5034,0.5034 -1.7418,2.221 -2.8367,2.9273 -2.8367,1.8299 z m -734.83678,-4.4966 c -1.65849,-2.1147 -1.61133,-2.1619 0.50341,-0.5034 1.28334,1.0065 2.33334,2.0565 2.33334,2.3334 0,1.0973 -1.09492,0.391 -2.83675,-1.83 z m 145.33333,0 c -1.65849,-2.1147 -1.61133,-2.1619 0.50342,-0.5034 1.28333,1.0065 2.33333,2.0565 2.33333,2.3334 0,1.0973 -1.09492,0.391 -2.83675,-1.83 z m 261.76335,-1 c 0.0272,-2.2 0.326,-2.9386 0.66405,-1.6413 0.33806,1.2973 0.31583,3.0973 -0.0495,4 -0.36524,0.9027 -0.64183,-0.1587 -0.61466,-2.3587 z M 804,1156.8299 c 0,-0.2768 1.05,-1.3268 2.33333,-2.3333 2.11475,-1.6585 2.16191,-1.6113 0.50342,0.5034 -1.74183,2.221 -2.83675,2.9273 -2.83675,1.8299 z m 245.0833,-1.7407 c 0.9625,-0.3852 2.1125,-0.3378 2.5556,0.1052 0.443,0.443 -0.3445,0.7582 -1.75,0.7003 -1.5533,-0.064 -1.8692,-0.3799 -0.8056,-0.8056 z M 271,1152.4142 c 1.28333,-0.3353 3.38333,-0.3353 4.66667,0 1.28333,0.3354 0.23333,0.6098 -2.33334,0.6098 -2.56666,0 -3.61666,-0.2744 -2.33333,-0.6098 z m 142,0.036 c 0.91667,-0.3699 2.41667,-0.3699 3.33333,0 0.91667,0.3698 0.16667,0.6725 -1.66666,0.6725 -1.83334,0 -2.58334,-0.3027 -1.66667,-0.6725 z m 12.08333,-0.028 c 0.9625,-0.3851 2.11251,-0.3378 2.55556,0.1052 0.44306,0.4431 -0.34445,0.7582 -1.75,0.7003 -1.55326,-0.064 -1.8692,-0.3799 -0.80556,-0.8055 z M 563,1152.4146 c 1.28333,-0.3353 3.38333,-0.3353 4.66667,0 1.28333,0.3354 0.23333,0.6098 -2.33334,0.6098 -2.56666,0 -3.61666,-0.2744 -2.33333,-0.6098 z m 246.44039,-3.0813 c 1.94374,-4.0813 2.55961,-4.8378 2.55961,-3.1437 0,0.7154 -0.93309,2.4654 -2.07356,3.8889 -1.95516,2.4404 -1.98292,2.3979 -0.48605,-0.7452 z m 263.89291,2.2495 c 0,-0.2295 1.95,-2.1795 4.3334,-4.3333 l 4.3333,-3.9162 -3.9161,4.3334 c -3.6504,4.0392 -4.7506,4.9462 -4.7506,3.9161 z m -787.99997,-1.4401 c 0,-0.2883 0.93116,-0.8814 2.06926,-1.3181 1.18656,-0.4553 1.72176,-0.2318 1.25464,0.524 -0.78302,1.2669 -3.3239,1.8739 -3.3239,0.7941 z M 1034.5657,1147 l -3.2324,-3.6667 3.6667,3.2324 c 2.0167,1.7779 3.6667,3.4279 3.6667,3.6667 0,1.0457 -1.0798,0.1947 -4.101,-3.2324 z m -311.96015,-0.4475 c -0.81855,-1.5295 -1.23712,-3.032 -0.93016,-3.339 0.30696,-0.307 1.2427,0.9444 2.07944,2.7809 1.83742,4.0327 0.94278,4.4671 -1.14928,0.5581 z M 296,1143.3333 c 1.72233,-1.8333 3.43151,-3.3333 3.79817,-3.3333 0.36667,0 -0.7425,1.5 -2.46484,3.3333 -1.72233,1.8334 -3.4315,3.3334 -3.79817,3.3334 -0.36667,0 0.74251,-1.5 2.46484,-3.3334 z m 100.53999,0.3334 -2.53999,-3 3,2.54 c 2.81925,2.3869 3.60699,3.46 2.53999,3.46 -0.25302,0 -1.60302,-1.35 -3,-3 z m 46.12668,-0.3334 c 1.72233,-1.8333 3.4315,-3.3333 3.79817,-3.3333 0.36667,0 -0.74251,1.5 -2.46484,3.3333 -1.72233,1.8334 -3.43151,3.3334 -3.79817,3.3334 -0.36667,0 0.7425,-1.5 2.46484,-3.3334 z M 544,1144.9358 c -1.1,-0.9053 -3.18721,-3.1363 -4.63824,-4.9576 -1.56391,-1.963 -0.61373,-1.4404 2.33333,1.2834 4.46895,4.1303 5.64567,5.4908 4.63824,5.3627 C 546.15,1146.6009 545.1,1145.8411 544,1144.9358 Z M 756.58279,1142.3333 752.66667,1138 757,1141.9161 c 4.03928,3.6504 4.9462,4.7506 3.91612,4.7506 -0.22947,0 -2.17947,-1.95 -4.33333,-4.3334 z m -610.49707,-1.3908 c 0.50071,-1.315 1.24625,-2.055 1.65677,-1.6444 0.41052,0.4105 8.6e-4,1.4863 -0.91037,2.3908 -1.31683,1.307 -1.46997,1.1539 -0.7464,-0.7464 z m 66.01955,-5.7203 c 0.064,-1.5532 0.37992,-1.8692 0.80554,-0.8055 0.38516,0.9625 0.3378,2.1125 -0.1052,2.5555 -0.44306,0.4431 -0.75818,-0.3444 -0.70029,-1.75 z m 602.66666,0 c 0.064,-1.5532 0.37992,-1.8692 0.80555,-0.8055 0.38516,0.9625 0.3378,2.1125 -0.1052,2.5555 -0.44305,0.4431 -0.75819,-0.3444 -0.70029,-1.75 z m 181.33334,-1.3333 c 0.064,-1.5533 0.37992,-1.8692 0.80554,-0.8056 0.38516,0.9625 0.3378,2.1125 -0.1052,2.5556 -0.44305,0.443 -0.75818,-0.3445 -0.70029,-1.75 z m -660,-2.6667 c 0.064,-1.5532 0.37992,-1.8692 0.80554,-0.8055 0.38516,0.9625 0.3378,2.1125 -0.1052,2.5555 -0.44306,0.4431 -0.75818,-0.3444 -0.70029,-1.75 z m 21.33333,0 c 0.064,-1.5532 0.37992,-1.8692 0.80555,-0.8055 0.38516,0.9625 0.3378,2.1125 -0.1052,2.5555 -0.44306,0.4431 -0.75819,-0.3444 -0.7003,-1.75 z m 145.33333,0 c 0.064,-1.5532 0.37992,-1.8692 0.80555,-0.8055 0.38516,0.9625 0.3378,2.1125 -0.1052,2.5555 -0.44305,0.4431 -0.75819,-0.3444 -0.70029,-1.75 z m 340,0 c 0.064,-1.5532 0.37992,-1.8692 0.80555,-0.8055 0.38516,0.9625 0.3378,2.1125 -0.1052,2.5555 -0.44305,0.4431 -0.75819,-0.3444 -0.70029,-1.75 z m 183.99997,0 c 0.064,-1.5532 0.38,-1.8692 0.8056,-0.8055 0.3851,0.9625 0.3378,2.1125 -0.1052,2.5555 -0.4431,0.4431 -0.7582,-0.3444 -0.7003,-1.75 z M 210.87719,1128 c 0,-1.8333 0.30264,-2.5833 0.67252,-1.6667 0.36988,0.9167 0.36988,2.4167 0,3.3334 -0.36988,0.9166 -0.67252,0.1666 -0.67252,-1.6667 z m 506.56141,0.5556 c 0.064,-1.5533 0.37992,-1.8692 0.80555,-0.8056 0.38516,0.9625 0.3378,2.1125 -0.1052,2.5556 -0.44306,0.443 -0.75819,-0.3445 -0.7003,-1.75 z m 277.66559,-7.8889 c 0.005,-5.1334 0.2469,-7.07 0.53554,-4.3036 0.28863,2.7663 0.28379,6.9663 -0.0107,9.3333 -0.29455,2.367 -0.53071,0.1036 -0.52479,-5.0297 z m -689.51092,2.6666 c 0.0272,-2.2 0.326,-2.9386 0.66405,-1.6413 0.33805,1.2973 0.31583,3.0973 -0.0495,4 -0.36524,0.9027 -0.64182,-0.1587 -0.61465,-2.3587 z m -200.76188,-0.052 c -1.28664,-3.3529 -0.90709,-4.218 0.66471,-1.5151 0.77825,1.3383 1.13413,2.7142 0.79084,3.0575 -0.34329,0.3433 -0.99829,-0.3508 -1.45555,-1.5424 z m 347.50485,-2.615 c 0.0148,-2.9334 0.28785,-3.9764 0.60677,-2.3178 0.31892,1.6585 0.30682,4.0585 -0.0269,5.3333 -0.33372,1.2748 -0.59467,-0.082 -0.57987,-3.0155 z m 145.33333,0 c 0.0148,-2.9334 0.28786,-3.9764 0.60678,-2.3178 0.31892,1.6585 0.30681,4.0585 -0.0269,5.3333 -0.33372,1.2748 -0.59466,-0.082 -0.57986,-3.0155 z m 150.66667,0 c 0.0148,-2.9334 0.28785,-3.9764 0.60677,-2.3178 0.31892,1.6585 0.30682,4.0585 -0.0269,5.3333 -0.33372,1.2748 -0.59467,-0.082 -0.57987,-3.0155 z m -509.56431,1.2222 c 0.064,-1.5533 0.37992,-1.8692 0.80555,-0.8056 0.38516,0.9625 0.3378,2.1125 -0.1052,2.5556 -0.44307,0.443 -0.75819,-0.3445 -0.70029,-1.75 z m 605.488,-1.2222 c 0.0272,-2.2 0.326,-2.9386 0.66406,-1.6413 0.33805,1.2973 0.31582,3.0973 -0.0495,4 -0.36524,0.9027 -0.64183,-0.1587 -0.61465,-2.3587 z m -506.61726,-2 c 0,-2.5667 0.2744,-3.6167 0.60977,-2.3334 0.33536,1.2834 0.33536,3.3834 0,4.6667 -0.33537,1.2833 -0.60977,0.2333 -0.60977,-2.3333 z m -32.09882,-4 c 0,-1.8334 0.30264,-2.5834 0.67252,-1.6667 0.36988,0.9167 0.36988,2.4167 0,3.3333 -0.36988,0.9167 -0.67252,0.1667 -0.67252,-1.6666 z M 210.87719,1112 c 0,-1.8333 0.30264,-2.5833 0.67252,-1.6667 0.36988,0.9167 0.36988,2.4167 0,3.3334 -0.36988,0.9166 -0.67252,0.1666 -0.67252,-1.6667 z m 506.66666,0 c 0,-1.8333 0.30264,-2.5833 0.67252,-1.6667 0.36988,0.9167 0.36988,2.4167 0,3.3334 -0.36988,0.9166 -0.67252,0.1666 -0.67252,-1.6667 z m 398.66665,0 c 0,-1.8333 0.3027,-2.5833 0.6725,-1.6667 0.3699,0.9167 0.3699,2.4167 0,3.3334 -0.3698,0.9166 -0.6725,0.1666 -0.6725,-1.6667 z m -877.2839,-3.3333 c 0.0272,-2.2 0.326,-2.9386 0.66405,-1.6413 0.33806,1.2973 0.31583,3.0973 -0.0495,4 -0.36524,0.9027 -0.64183,-0.1587 -0.61466,-2.3587 z m 118.512,1.2222 c 0.064,-1.5533 0.37992,-1.8692 0.80555,-0.8056 0.38516,0.9625 0.3378,2.1125 -0.1052,2.5556 -0.44306,0.443 -0.75819,-0.3445 -0.7003,-1.75 z m 145.43859,-0.5556 c 0,-1.8333 0.30264,-2.5833 0.67252,-1.6666 0.36988,0.9166 0.36988,2.4166 0,3.3333 -0.36988,0.9167 -0.67252,0.1667 -0.67252,-1.6667 z m 339.89474,0.5556 c 0.064,-1.5533 0.37992,-1.8692 0.80555,-0.8056 0.38516,0.9625 0.3378,2.1125 -0.1052,2.5556 -0.44305,0.443 -0.75819,-0.3445 -0.70029,-1.75 z m -506.66666,-1.3333 c 0.064,-1.5533 0.37992,-1.8692 0.80554,-0.8056 0.38516,0.9625 0.3378,2.1125 -0.1052,2.5556 -0.44306,0.443 -0.75818,-0.3445 -0.70029,-1.75 z m 257.42041,-2.8889 c -1.45493,-3.4001 -1.42201,-3.4785 0.45265,-1.0785 1.11192,1.4235 2.02167,3.0735 2.02167,3.6666 0,2.0266 -0.90444,1.0805 -2.47432,-2.5881 z m 157.14099,2.8104 c 0,-0.7154 0.93309,-2.4654 2.07356,-3.8889 1.95516,-2.4404 1.98292,-2.3979 0.48605,0.7451 -1.94375,4.0814 -2.55961,4.8378 -2.55961,3.1438 z m 60.75238,-1.4196 c -0.72357,-1.9003 -0.57042,-2.0534 0.7464,-0.7464 0.91123,0.9045 1.3209,1.9803 0.91038,2.3908 -0.41052,0.4106 -1.15607,-0.3294 -1.65678,-1.6444 z m 225.91425,0.02 c 24.7047,-0.9542 47.6984,-0.9918 47.1304,-0.077 -0.3416,0.55 -13.3357,0.8793 -28.8757,0.7317 -15.5401,-0.1476 -23.7547,-0.4422 -18.2547,-0.6546 z m -735.24758,-2.6863 c -0.72357,-1.9002 -0.57043,-2.0534 0.7464,-0.7464 0.91123,0.9045 1.32089,1.9804 0.91037,2.3909 -0.41052,0.4105 -1.15606,-0.3295 -1.65677,-1.6445 z m 639.35288,-1.1686 c 0.064,-1.5532 0.37992,-1.8692 0.80555,-0.8055 0.38516,0.9625 0.3378,2.1125 -0.1052,2.5555 -0.44306,0.4431 -0.75819,-0.3444 -0.7003,-1.75 z M 296.58279,1097 l -3.91612,-4.3333 4.33333,3.9161 c 2.38333,2.1539 4.33333,4.1039 4.33333,4.3333 0,1.0301 -1.10017,0.1232 -4.75054,-3.9161 z m 145.98296,0.6667 L 439.33333,1094 443,1097.2324 c 3.42705,3.0212 4.27812,4.1009 3.23241,4.1009 -0.23882,0 -1.88882,-1.65 -3.66666,-3.6666 z m 145.33333,0 -3.23241,-3.6667 3.66666,3.2324 c 3.42706,3.0212 4.27812,4.1009 3.23242,4.1009 -0.23883,0 -1.88883,-1.65 -3.66667,-3.6666 z m 166.76759,3.2494 c 0,-0.2294 1.95,-2.1794 4.33333,-4.3333 l 4.33333,-3.9161 -3.91612,4.3333 c -3.65037,4.0393 -4.75054,4.9462 -4.75054,3.9161 z m -360,-1.4195 c 0,-0.2769 1.05,-1.3269 2.33333,-2.3333 2.11475,-1.6585 2.16191,-1.6114 0.50341,0.5034 -1.74182,2.221 -2.83674,2.9273 -2.83674,1.8299 z M 542,1097.3333 c 1.32732,-1.4666 2.71331,-2.6666 3.07997,-2.6666 0.36667,0 -0.41932,1.2 -1.74664,2.6666 -1.32732,1.4667 -2.7133,2.6667 -3.07997,2.6667 -0.36667,0 0.41932,-1.2 1.74664,-2.6667 z M 1034.6667,1094 c 2.4877,-2.5667 4.8231,-4.6667 5.1897,-4.6667 0.3667,0 -1.3687,2.1 -3.8564,4.6667 -2.4877,2.5667 -4.8231,4.6667 -5.1898,4.6667 -0.3666,0 1.3688,-2.1 3.8565,-4.6667 z m -527.95919,2.6667 c 0,-0.7334 0.58161,-2.2334 1.29249,-3.3334 0.71088,-1.1 1.29249,-1.4 1.29249,-0.6666 0,0.7333 -0.58161,2.2333 -1.29249,3.3333 -0.71088,1.1 -1.29249,1.4 -1.29249,0.6667 z m 429.19157,-3 -3.23241,-3.6667 3.66666,3.2324 c 3.42706,3.0212 4.27812,4.1009 3.23242,4.1009 -0.23883,0 -1.88883,-1.65 -3.66667,-3.6666 z M 1076.5828,1093 l -3.9161,-4.3333 4.3333,3.9161 c 4.0393,3.6504 4.9462,4.7505 3.9161,4.7505 -0.2294,0 -2.1794,-1.95 -4.3333,-4.3333 z m -982.418081,0.9485 c -1.286639,-3.353 -0.907082,-4.2181 0.664712,-1.5152 0.778253,1.3384 1.13413,2.7142 0.790838,3.0575 -0.34329,0.3433 -0.998289,-0.3507 -1.45555,-1.5423 z m 148.501951,0.7969 c 0,-0.6901 0.59313,-1.6213 1.31806,-2.0693 0.75582,-0.4671 0.97934,0.068 0.52402,1.2546 -0.88639,2.3099 -1.84208,2.7326 -1.84208,0.8147 z m 158.66666,-0.7327 c 0,-0.9124 8.16388,-4.9599 8.77383,-4.35 0.28931,0.2893 -1.56644,1.5239 -4.12391,2.7434 -2.55745,1.2196 -4.64992,1.9425 -4.64992,1.6066 z m 435.41906,-1.6219 c -0.72358,-1.9002 -0.57043,-2.0534 0.7464,-0.7464 0.91122,0.9045 1.32089,1.9804 0.91037,2.3909 -0.41052,0.4105 -1.15607,-0.3295 -1.65677,-1.6445 z m 65.91428,1.7725 c 0,-0.2769 1.05,-1.3269 2.33333,-2.3334 2.11475,-1.6585 2.16191,-1.6113 0.50341,0.5034 -1.74182,2.221 -2.83674,2.9273 -2.83674,1.83 z M 364,1090.6667 c 0.78493,-1.4667 1.72716,-2.6667 2.09383,-2.6667 0.36666,0 0.0244,1.2 -0.7605,2.6667 -0.78493,1.4666 -1.72716,2.6666 -2.09382,2.6666 -0.36667,0 -0.0244,-1.2 0.76049,-2.6666 z m 400.97777,1.1678 c 0.90446,-0.9112 1.98032,-1.3208 2.39084,-0.9103 0.41052,0.4105 -0.32948,1.156 -1.64444,1.6567 -1.90026,0.7236 -2.05341,0.5705 -0.7464,-0.7464 z m 29.6889,-0.5012 c -1.83334,-1.048 -2.69802,-1.9267 -1.92151,-1.9527 0.77651,-0.026 2.57651,0.8337 4,1.9103 3.29197,2.49 2.24051,2.5114 -2.07849,0.042 z m -69.33334,-2 c 0.78494,-1.4666 1.72716,-2.6666 2.09383,-2.6666 0.36667,0 0.0244,1.2 -0.76049,2.6666 -0.78494,1.4667 -1.72716,2.6667 -2.09383,2.6667 -0.36667,0 -0.0244,-1.2 0.76049,-2.6667 z m -308.30945,-0.9663 c 2.39647,-0.2967 5.99647,-0.2906 8,0.014 2.00353,0.3043 0.0428,0.5471 -4.35721,0.5396 -4.4,-0.01 -6.03926,-0.2564 -3.64279,-0.5532 z m 144.64279,0.011 c 2.01666,-0.3055 5.31666,-0.3055 7.33333,0 2.01667,0.3055 0.36667,0.5554 -3.66667,0.5554 -4.03333,0 -5.68333,-0.2499 -3.66666,-0.5554 z M 773,1088.4497 c 0.91667,-0.3699 2.41667,-0.3699 3.33333,0 0.91667,0.3699 0.16667,0.6725 -1.66666,0.6725 -1.83334,0 -2.58334,-0.3026 -1.66667,-0.6725 z m -494.22807,-2.5614 c 0.064,-1.5533 0.37992,-1.8692 0.80555,-0.8056 0.38516,0.9625 0.3378,2.1125 -0.1052,2.5556 -0.44307,0.443 -0.75819,-0.3445 -0.70029,-1.75 z M 646.88005,1075 c -0.11733,-7.5167 0.23662,-13.668 0.78662,-13.6697 0.55,0 0.83577,4.3484 0.63505,9.6667 -0.62676,16.6067 -1.19969,18.2199 -1.42167,4.003 z m 62.2085,-0.3362 c -0.23203,-7.335 0.0281,-13.335 0.57812,-13.3334 0.55,0 1,6.0029 1,13.3363 0,7.3333 -0.26015,13.3333 -0.57812,13.3333 -0.31796,0 -0.76796,-6.0013 -1,-13.3362 z m 209.93682,12.4122 c 1.2973,-0.338 3.0973,-0.3158 4,0.05 0.90271,0.3652 -0.1587,0.6418 -2.3587,0.6146 -2.2,-0.027 -2.93859,-0.326 -1.6413,-0.664 z M 1049,1085.7836 c 0.9167,-0.3699 2.4167,-0.3699 3.3333,0 0.9167,0.3699 0.1667,0.6725 -1.6666,0.6725 -1.8334,0 -2.5834,-0.3026 -1.6667,-0.6725 z m 12,0 c 0.9167,-0.3699 2.4167,-0.3699 3.3333,0 0.9167,0.3699 0.1667,0.6725 -1.6666,0.6725 -1.8334,0 -2.5834,-0.3026 -1.6667,-0.6725 z m -839.66667,-0.9537 c 0,-0.2768 1.05,-1.3268 2.33334,-2.3333 2.11474,-1.6585 2.1619,-1.6113 0.50341,0.5034 -1.74183,2.221 -2.83675,2.9273 -2.83675,1.8299 z m 608.53999,-2.4966 -2.53999,-3 3,2.54 c 2.81926,2.387 3.60699,3.46 2.53999,3.46 -0.25301,0 -1.60301,-1.35 -3,-3 z M 1103.8299,1083 c -1.6585,-2.1147 -1.6113,-2.1619 0.5034,-0.5034 1.2834,1.0065 2.3334,2.0565 2.3334,2.3333 0,1.0974 -1.095,0.3911 -2.8368,-1.8299 z m -369.21895,-4.6667 c 5.52528,-5.8869 6.72238,-6.9454 6.72238,-5.9442 0,0.2139 -2.85,3.0639 -6.33333,6.3333 l -6.33333,5.9443 z m 276.72235,0.3334 c 2.8644,-2.9334 5.5079,-5.3334 5.8746,-5.3334 0.3666,0 -1.6769,2.4 -4.5412,5.3334 -2.8644,2.9333 -5.5079,5.3333 -5.8746,5.3333 -0.3666,0 1.6769,-2.4 4.5412,-5.3333 z M 200.04084,1082 c 0,-0.7333 0.58161,-2.2333 1.29249,-3.3333 0.71088,-1.1 1.2925,-1.4 1.2925,-0.6667 0,0.7333 -0.58162,2.2333 -1.2925,3.3333 -0.71088,1.1 -1.29249,1.4 -1.29249,0.6667 z m 50.62583,0.2495 c 0,-0.2295 1.95,-2.1795 4.33333,-4.3334 l 4.33333,-3.9161 -3.91612,4.3333 c -3.65037,4.0393 -4.75054,4.9462 -4.75054,3.9162 z M 374,1077.3333 c 2.86432,-2.9333 5.50787,-5.3333 5.87453,-5.3333 0.36667,0 -1.67688,2.4 -4.5412,5.3333 -2.86432,2.9334 -5.50786,5.3334 -5.87453,5.3334 -0.36667,0 1.67688,-2.4 4.5412,-5.3334 z M 519.94428,1077 c 5.52528,-5.8869 6.72239,-6.9455 6.72239,-5.9443 0,0.214 -2.85,3.064 -6.33334,6.3334 L 514,1083.3333 Z m -201.34939,-0.6667 -4.59489,-5 5,4.5949 c 2.75,2.5272 5,4.7772 5,5 0,1.0182 -1.12829,0.059 -5.40511,-4.5949 z m 779.97081,0 -3.2324,-3.6666 3.6667,3.2324 c 2.0167,1.7778 3.6667,3.4278 3.6667,3.6666 0,1.0458 -1.0798,0.1947 -4.101,-3.2324 z M 286.66667,1070 c 2.4877,-2.5667 4.8231,-4.6667 5.18977,-4.6667 0.36667,0 -1.36873,2.1 -3.85644,4.6667 -2.48771,2.5667 -4.82311,4.6667 -5.18977,4.6667 -0.36667,0 1.36873,-2.1 3.85644,-4.6667 z m 533.16325,2.3333 c -1.65849,-2.1147 -1.61133,-2.1619 0.50341,-0.5034 2.221,1.7418 2.92731,2.8368 1.82992,2.8368 -0.27686,0 -1.32686,-1.05 -2.33333,-2.3334 z m -437.16325,-2.2395 c 0,-0.3666 1.2,-1.3089 2.66666,-2.0938 1.46667,-0.7849 2.66667,-1.1272 2.66667,-0.7605 0,0.3667 -1.2,1.3089 -2.66667,2.0938 -1.46666,0.785 -2.66666,1.1272 -2.66666,0.7605 z m 63.25484,-1.5007 c -2.48536,-1.9912 -2.46902,-2.0158 0.41182,-0.6197 1.65,0.7995 3,1.7326 3,2.0735 0,1.0203 -0.69148,0.7257 -3.41182,-1.4538 z m 5.01348,-26.1811 c -0.14758,-15.9067 0.18168,-29.2007 0.73168,-29.5422 0.55,-0.3415 0.84501,8.1731 0.65558,18.9213 -0.63569,36.0691 -1.11697,39.7538 -1.38726,10.6209 z M 596.33624,1066 c 0.0148,-2.9333 0.28785,-3.9763 0.60677,-2.3178 0.31892,1.6586 0.30682,4.0586 -0.0269,5.3333 -0.33372,1.2748 -0.59467,-0.082 -0.57987,-3.0155 z m 300.99709,4.1633 c 0,-0.2769 1.05,-1.3269 2.33334,-2.3334 2.11474,-1.6585 2.1619,-1.6113 0.50341,0.5034 -1.74183,2.221 -2.83675,2.9273 -2.83675,1.83 z m 61.16326,-1.83 c -1.6585,-2.1147 -1.61134,-2.1619 0.50341,-0.5034 1.28333,1.0065 2.33333,2.0565 2.33333,2.3334 0,1.0973 -1.09492,0.391 -2.83674,-1.83 z M 1024,1068.7605 c 0,-0.3667 1.2,-1.3089 2.6667,-2.0938 1.4666,-0.785 2.6666,-1.1272 2.6666,-0.7605 0,0.3666 -1.2,1.3089 -2.6666,2.0938 -1.4667,0.7849 -2.6667,1.1272 -2.6667,0.7605 z m -780.74516,-2.6869 c 1.42349,-1.1405 3.17349,-2.0736 3.88889,-2.0736 1.69406,0 0.93764,0.6159 -3.14373,2.5596 -3.14303,1.4969 -3.18557,1.4691 -0.74516,-0.486 z M 952,1064.6667 c -1.83333,-1.0481 -2.69801,-1.9268 -1.92151,-1.9528 0.77651,-0.026 2.57651,0.8337 4,1.9104 3.29198,2.4899 2.24051,2.5113 -2.07849,0.042 z m -745.22807,-1.4445 c 0.064,-1.5532 0.37992,-1.8692 0.80555,-0.8055 0.38516,0.9625 0.3378,2.1125 -0.1052,2.5555 -0.44307,0.4431 -0.75819,-0.3444 -0.70029,-1.75 z m 76.97807,-0.133 c 0.96249,-0.3852 2.11249,-0.3378 2.55556,0.1052 0.44305,0.443 -0.34445,0.7581 -1.75,0.7003 -1.55327,-0.064 -1.8692,-0.38 -0.80556,-0.8056 z m 6.25,-1.7559 c -1.04291,-1.6874 0.72217,-1.6874 3.33333,0 1.72359,1.1139 1.68839,1.2954 -0.25464,1.313 -1.24005,0.011 -2.62546,-0.5796 -3.07869,-1.313 z m 325.68221,0.3904 c 1.65855,-0.319 4.05855,-0.3069 5.33334,0.027 1.27478,0.3337 -0.0823,0.5947 -3.01555,0.5799 -2.93333,-0.015 -3.97633,-0.2879 -2.31779,-0.6068 z m 37.33334,0 c 1.65854,-0.319 4.05854,-0.3069 5.33333,0.027 1.27479,0.3337 -0.0823,0.5947 -3.01555,0.5799 -2.93333,-0.015 -3.97633,-0.2879 -2.31778,-0.6068 z m 38.19618,-0.8931 c -0.3875,-1.0099 -0.47682,-4.7599 -0.19848,-8.3333 l 0.50608,-6.4973 0.24034,7.5936 0.24033,7.5936 6.33333,0.4994 6.33334,0.4994 -6.37518,0.2403 c -4.36012,0.1644 -6.59788,-0.34 -7.07976,-1.5957 z m 190.48031,0.9121 c 1.29729,-0.3381 3.09729,-0.3158 4,0.049 0.90271,0.3653 -0.15871,0.6419 -2.35871,0.6147 -2.2,-0.027 -2.93858,-0.326 -1.64129,-0.6641 z m 8.64129,0.041 c 0.91667,-0.3699 2.41667,-0.3699 3.33334,0 0.91666,0.3699 0.16666,0.6725 -1.66667,0.6725 -1.83333,0 -2.58333,-0.3026 -1.66667,-0.6725 z m -633.25,-1.3611 c 0.9625,-0.3852 2.1125,-0.3378 2.55556,0.1052 0.44306,0.4431 -0.34445,0.7582 -1.75,0.7003 -1.55326,-0.064 -1.8692,-0.3799 -0.80556,-0.8055 z m 148,0 c 0.9625,-0.3852 2.11251,-0.3378 2.55556,0.1052 0.44306,0.4431 -0.34445,0.7582 -1.75,0.7003 -1.55326,-0.064 -1.8692,-0.3799 -0.80556,-0.8055 z M 425,1060.4502 c 0.91667,-0.3698 2.41667,-0.3698 3.33333,0 0.91667,0.3699 0.16667,0.6726 -1.66666,0.6726 -1.83334,0 -2.58334,-0.3027 -1.66667,-0.6726 z m 124.08333,-0.028 c 0.9625,-0.3852 2.11251,-0.3378 2.55556,0.1052 0.44306,0.4431 -0.34445,0.7582 -1.75,0.7003 -1.55326,-0.064 -1.8692,-0.3799 -0.80556,-0.8055 z m 245.33334,0 c 0.96249,-0.3852 2.1125,-0.3378 2.55556,0.1052 0.44305,0.4431 -0.34446,0.7582 -1.75,0.7003 -1.55327,-0.064 -1.8692,-0.3799 -0.80556,-0.8055 z m 249.33333,0 c 0.9625,-0.3852 2.1125,-0.3378 2.5556,0.1052 0.443,0.4431 -0.3445,0.7582 -1.75,0.7003 -1.5533,-0.064 -1.8692,-0.3799 -0.8056,-0.8055 z m 25.3333,0 c 0.9625,-0.3852 2.1125,-0.3378 2.5556,0.1052 0.443,0.4431 -0.3445,0.7582 -1.75,0.7003 -1.5533,-0.064 -1.8692,-0.3799 -0.8056,-0.8055 z m -805.3333,-1.333 c 0.96249,-0.3852 2.11249,-0.3378 2.55556,0.1052 0.44305,0.443 -0.34445,0.7582 -1.75,0.7003 -1.55327,-0.064 -1.8692,-0.38 -0.80556,-0.8056 z m 18.58333,0.028 c 0.91667,-0.3699 2.41667,-0.3699 3.33334,0 0.91666,0.3699 0.16666,0.6725 -1.66667,0.6725 -1.83333,0 -2.58333,-0.3026 -1.66667,-0.6725 z m 133.41667,-0.028 c 0.96249,-0.3852 2.11251,-0.3378 2.55556,0.1052 0.44305,0.443 -0.34445,0.7582 -1.75,0.7003 -1.55327,-0.064 -1.8692,-0.38 -0.80556,-0.8056 z m 143.25,-0.01 c 1.28333,-0.3354 3.38333,-0.3354 4.66667,0 1.28333,0.3353 0.23333,0.6097 -2.33334,0.6097 -2.56666,0 -3.61666,-0.2744 -2.33333,-0.6097 z m 216.63693,-0.043 c 2.36698,-0.2946 6.56698,-0.2994 9.33334,-0.011 2.76634,0.2886 0.82973,0.5296 -4.3036,0.5356 -5.13334,0.01 -7.39672,-0.2303 -5.02974,-0.5248 z m 149.36307,0 c 2.38333,-0.2958 6.28333,-0.2958 8.66667,0 2.38333,0.2958 0.43333,0.5378 -4.33334,0.5378 -4.76666,0 -6.71666,-0.242 -4.33333,-0.5378 z m 130.0183,0.01 c 2.0268,-0.3065 5.0268,-0.2983 6.6667,0.018 1.6399,0.3165 -0.018,0.5673 -3.685,0.5573 -3.6667,-0.011 -5.0084,-0.269 -2.9817,-0.5755 z m -361.68497,-18.2134 c 0,-0.2768 1.05,-1.3268 2.33334,-2.3333 2.11474,-1.6585 2.1619,-1.6113 0.50341,0.5034 -1.74183,2.221 -2.83675,2.9273 -2.83675,1.8299 z m -31.89473,-2.941 c 0.064,-1.5533 0.37992,-1.8692 0.80555,-0.8056 0.38516,0.9625 0.3378,2.1125 -0.1052,2.5556 -0.44306,0.443 -0.75819,-0.3445 -0.7003,-1.75 z m 40.91028,-1.4986 c 1.65855,-0.3189 4.05855,-0.3068 5.33333,0.027 1.27479,0.3337 -0.0823,0.5946 -3.01554,0.5798 -2.93334,-0.015 -3.97634,-0.2878 -2.31779,-0.6068 z M 664,1028.0787 c 0,-0.6901 0.59313,-1.6212 1.31807,-2.0693 0.75581,-0.4671 0.97933,0.068 0.52401,1.2547 -0.88639,2.3099 -1.84208,2.7325 -1.84208,0.8146 z m 7.33333,-9.412 c 1.32732,-1.4667 2.71331,-2.6667 3.07998,-2.6667 0.36666,0 -0.41932,1.2 -1.74664,2.6667 -1.32732,1.4666 -2.71331,2.6666 -3.07998,2.6666 -0.36666,0 0.41932,-1.2 1.74664,-2.6666 z M 689,1011.117 c 0.91667,-0.3699 2.41667,-0.3699 3.33333,0 0.91667,0.3698 0.16667,0.6725 -1.66666,0.6725 -1.83334,0 -2.58334,-0.3027 -1.66667,-0.6725 z m 11.35167,-1.4071 c 2.02674,-0.3065 5.02674,-0.2983 6.66666,0.018 1.63992,0.3165 -0.0183,0.5673 -3.685,0.5573 -3.66666,-0.011 -5.00841,-0.269 -2.98166,-0.5755 z M 579.04868,971.01323 c 4.24344,-0.2654 10.84344,-0.26294 14.66667,0.005 3.82322,0.26841 0.35132,0.48556 -7.71535,0.48255 -8.06667,-0.003 -11.19476,-0.22262 -6.95132,-0.48802 z M 609,971.01723 c 3.85,-0.26934 10.15,-0.26934 14,0 3.85,0.26933 0.7,0.4897 -7,0.4897 -7.7,0 -10.85,-0.22037 -7,-0.4897 z m -52.66667,-1.26946 c 1.28334,-0.33536 3.38334,-0.33536 4.66667,0 1.28333,0.33538 0.23333,0.60978 -2.33333,0.60978 -2.56667,0 -3.61667,-0.2744 -2.33334,-0.60978 z m 83.34888,-0.0239 c 1.65855,-0.31892 4.05855,-0.30682 5.33334,0.0269 1.27478,0.33372 -0.0823,0.59467 -3.01555,0.57987 -2.93333,-0.0148 -3.97633,-0.28786 -2.31779,-0.60678 z m -96.65684,-1.31431 c 1.2973,-0.33805 3.0973,-0.31583 4,0.0495 0.90271,0.36524 -0.1587,0.64182 -2.3587,0.61465 -2.2,-0.0272 -2.93859,-0.326 -1.6413,-0.66405 z m 110.66667,0 c 1.29729,-0.33805 3.09729,-0.31583 4,0.0495 0.90271,0.36524 -0.15871,0.64182 -2.35871,0.61465 -2.2,-0.0272 -2.93858,-0.326 -1.64129,-0.66405 z m -122.02537,-1.29264 c 0.91666,-0.36988 2.41666,-0.36988 3.33333,0 0.91667,0.36988 0.16667,0.67252 -1.66667,0.67252 -1.83333,0 -2.58333,-0.30264 -1.66666,-0.67252 z m 134.02537,-0.0409 c 1.29729,-0.33806 3.09729,-0.31583 4,0.0495 0.90271,0.36524 -0.15871,0.64183 -2.35871,0.61466 -2.2,-0.0272 -2.93858,-0.326 -1.64129,-0.66406 z m -143.35871,-1.2924 c 0.91667,-0.36988 2.41667,-0.36988 3.33334,0 0.91666,0.36988 0.16666,0.67252 -1.66667,0.67252 -1.83333,0 -2.58333,-0.30264 -1.66667,-0.67252 z m 153.33334,0 c 0.91666,-0.36988 2.41666,-0.36988 3.33333,0 0.91667,0.36988 0.16667,0.67252 -1.66667,0.67252 -1.83333,0 -2.58333,-0.30264 -1.66666,-0.67252 z m -161.25,-1.36111 c 0.96249,-0.38516 2.1125,-0.3378 2.55556,0.1052 0.44305,0.44305 -0.34446,0.75819 -1.75,0.70029 -1.55327,-0.064 -1.8692,-0.37992 -0.80556,-0.80554 z m 169.25,0.0277 c 0.91666,-0.36988 2.41666,-0.36988 3.33333,0 0.91667,0.36988 0.16667,0.67252 -1.66667,0.67252 -1.83333,0 -2.58333,-0.30264 -1.66666,-0.67252 z M 507.75,963.08915 c 0.96249,-0.38516 2.11251,-0.3378 2.55556,0.1052 0.44305,0.44305 -0.34445,0.75818 -1.75,0.70029 -1.55327,-0.064 -1.8692,-0.37992 -0.80556,-0.80555 z m 184,0 c 0.96249,-0.38516 2.11251,-0.3378 2.55556,0.1052 0.44305,0.44305 -0.34445,0.75818 -1.75,0.70029 -1.55327,-0.064 -1.8692,-0.37992 -0.80556,-0.80555 z m -190.66667,-1.33334 c 0.9625,-0.38516 2.11251,-0.3378 2.55556,0.1052 0.44306,0.44306 -0.34445,0.75819 -1.75,0.7003 -1.55326,-0.064 -1.8692,-0.37992 -0.80556,-0.80555 z m 197.33334,0 c 0.96249,-0.38516 2.1125,-0.3378 2.55556,0.1052 0.44305,0.44306 -0.34446,0.75819 -1.75,0.7003 -1.55327,-0.064 -1.8692,-0.37992 -0.80556,-0.80555 z m -204,-1.33333 c 0.96249,-0.38516 2.1125,-0.3378 2.55556,0.1052 0.44305,0.44305 -0.34446,0.75819 -1.75,0.70029 -1.55327,-0.064 -1.8692,-0.37992 -0.80556,-0.80554 z m 210.66666,0 c 0.9625,-0.38516 2.11251,-0.3378 2.55556,0.1052 0.44306,0.44305 -0.34445,0.75819 -1.75,0.70029 -1.55326,-0.064 -1.8692,-0.37992 -0.80556,-0.80554 z M 487.75,959.08915 c 0.96249,-0.38516 2.11251,-0.3378 2.55556,0.1052 0.44305,0.44305 -0.34445,0.75818 -1.75,0.70029 -1.55327,-0.064 -1.8692,-0.37992 -0.80556,-0.80555 z m 224,0 c 0.96249,-0.38516 2.11251,-0.3378 2.55556,0.1052 0.44305,0.44305 -0.34445,0.75818 -1.75,0.70029 -1.55327,-0.064 -1.8692,-0.37992 -0.80556,-0.80555 z m 5.33333,-1.33334 c 0.9625,-0.38516 2.11251,-0.3378 2.55556,0.1052 0.44306,0.44306 -0.34445,0.75819 -1.75,0.7003 -1.55326,-0.064 -1.8692,-0.37992 -0.80556,-0.80555 z M 727.75,955.08915 c 0.96249,-0.38516 2.11251,-0.3378 2.55556,0.1052 0.44305,0.44305 -0.34445,0.75818 -1.75,0.70029 -1.55327,-0.064 -1.8692,-0.37992 -0.80556,-0.80555 z M 396,929.33333 c -1.1,-0.71088 -1.4,-1.29249 -0.66667,-1.29249 0.73334,0 2.23334,0.58161 3.33334,1.29249 1.1,0.71088 1.4,1.2925 0.66666,1.2925 -0.73333,0 -2.23333,-0.58162 -3.33333,-1.2925 z m -14.66667,-6.66666 c -1.1,-0.71088 -1.4,-1.2925 -0.66666,-1.2925 0.73333,0 2.23333,0.58162 3.33333,1.2925 1.1,0.71088 1.4,1.29249 0.66667,1.29249 -0.73334,0 -2.23334,-0.58161 -3.33334,-1.29249 z m -19.41182,-10.07356 c -2.48536,-1.99119 -2.46902,-2.0158 0.41182,-0.61975 1.65,0.79959 3,1.73268 3,2.07355 0,1.02029 -0.69148,0.72565 -3.41182,-1.4538 z m 480.74516,-2.49928 c 0,-0.36667 1.2,-1.3089 2.66666,-2.09383 C 846.8,907.21507 848,906.87284 848,907.23951 c 0,0.36666 -1.2,1.30889 -2.66667,2.09382 -1.46666,0.78494 -2.66666,1.12716 -2.66666,0.7605 z m 7.64444,-4.92595 c 0.90445,-0.91123 1.98032,-1.32089 2.39084,-0.91037 0.41052,0.41052 -0.32948,1.15606 -1.64444,1.65677 -1.90027,0.72357 -2.05342,0.57043 -0.7464,-0.7464 z M 311.82992,881.66667 c -1.65849,-2.11475 -1.61133,-2.16191 0.50341,-0.50342 2.221,1.74183 2.92731,2.83675 1.82992,2.83675 -0.27686,0 -1.32686,-1.05 -2.33333,-2.33333 z M 892,879.49659 c 0,-0.27687 1.05,-1.32687 2.33333,-2.33334 2.11475,-1.65849 2.16191,-1.61133 0.50342,0.50342 -1.74183,2.221 -2.83675,2.9273 -2.83675,1.82992 z m -592,-6.326 c -4.64675,-4.07355 -4.64833,-4.07883 -0.37365,-1.23539 2.36116,1.5706 4.64656,3.42769 5.07869,4.12688 1.2862,2.08113 0.21951,1.42559 -4.70504,-2.89149 z m 597.33333,2.326 c 0,-0.27687 1.05,-1.32687 2.33334,-2.33334 2.11474,-1.65849 2.1619,-1.61133 0.50341,0.50342 -1.74183,2.221 -2.83675,2.9273 -2.83675,1.82992 z m 7.33334,-6.16326 c 1.32732,-1.46666 2.7133,-2.66666 3.07997,-2.66666 0.36667,0 -0.41932,1.2 -1.74664,2.66666 C 904.67268,870.8 903.28669,872 902.92003,872 c -0.36667,0 0.41932,-1.2 1.74664,-2.66667 z M 291.82992,867 c -1.65849,-2.11475 -1.61133,-2.16191 0.50341,-0.50341 1.28334,1.00646 2.33334,2.05646 2.33334,2.33333 0,1.09739 -1.09492,0.39108 -2.83675,-1.82992 z m -6.66667,-5.33333 c -1.65849,-2.11475 -1.61133,-2.16191 0.50342,-0.50342 2.221,1.74183 2.9273,2.83675 1.82992,2.83675 -0.27687,0 -1.32687,-1.05 -2.33334,-2.33333 z M 916.66667,860 c 1.32732,-1.46667 2.7133,-2.66667 3.07997,-2.66667 0.36667,0 -0.41932,1.2 -1.74664,2.66667 -1.32732,1.46667 -2.71331,2.66667 -3.07997,2.66667 -0.36667,0 0.41932,-1.2 1.74664,-2.66667 z m -638.79335,-4.33333 -2.53999,-3 3,2.53998 c 2.81926,2.38696 3.60699,3.46002 2.53999,3.46002 -0.25301,0 -1.60301,-1.35 -3,-3 z m 646.79335,-2.33334 c 1.32732,-1.46666 2.7133,-2.66666 3.07997,-2.66666 0.36667,0 -0.41932,1.2 -1.74664,2.66666 C 924.67268,854.8 923.28669,856 922.92003,856 c -0.36667,0 0.41932,-1.2 1.74664,-2.66667 z m -656.08388,-5.66666 -3.91612,-4.33334 4.33333,3.91612 c 2.38333,2.15387 4.33333,4.10387 4.33333,4.33334 0,1.03008 -1.10017,0.1232 -4.75054,-3.91612 z M 935.33333,844 c 2.86432,-2.93333 5.50787,-5.33333 5.87454,-5.33333 0.36666,0 -1.67688,2.4 -4.5412,5.33333 -2.86432,2.93333 -5.50787,5.33333 -5.87454,5.33333 -0.36666,0 1.67688,-2.4 4.5412,-5.33333 z m -689.35606,-17.66667 -14.64394,-15 15,14.64394 c 8.25,8.05416 15,14.80416 15,15 0,0.96152 -1.75421,-0.71135 -15.35606,-14.64394 z M 954.66667,826 c 3.98322,-4.03333 7.54224,-7.33333 7.9089,-7.33333 0.36667,0 -2.59234,3.3 -6.57557,7.33333 -3.98323,4.03333 -7.54224,7.33333 -7.90891,7.33333 -0.36666,0 2.59235,-3.3 6.57558,-7.33333 z M 972,807.33333 C 973.72233,805.5 975.43151,804 975.79817,804 c 0.36667,0 -0.7425,1.5 -2.46484,3.33333 -1.72233,1.83334 -3.4315,3.33334 -3.79817,3.33334 -0.36667,0 0.74251,-1.5 2.46484,-3.33334 z m -748.75055,-5 -3.91612,-4.33333 4.33334,3.91612 C 226.05,804.06999 228,806.01999 228,806.24945 c 0,1.03008 -1.10017,0.1232 -4.75055,-3.91612 z m 758.08388,-5.66666 c 1.72234,-1.83334 3.43151,-3.33334 3.79818,-3.33334 0.36666,0 -0.74251,1.5 -2.46484,3.33334 C 980.94433,798.5 979.23516,800 978.86849,800 c -0.36666,0 0.74251,-1.5 2.46484,-3.33333 z m -765.43425,-3 -3.23241,-3.66667 3.66666,3.23241 c 3.42706,3.02119 4.27812,4.10092 3.23242,4.10092 -0.23883,0 -1.88883,-1.65 -3.66667,-3.66666 z m 771.43425,-4.33334 c 1.32732,-1.46666 2.71331,-2.66666 3.07998,-2.66666 0.36666,0 -0.41932,1.2 -1.74664,2.66666 C 987.33935,790.8 985.95336,792 985.58669,792 c -0.36666,0 0.41932,-1.2 1.74664,-2.66667 z m -778.17008,-3.66666 c -1.65849,-2.11475 -1.61133,-2.16191 0.50342,-0.50342 1.28333,1.00647 2.33333,2.05647 2.33333,2.33334 0,1.09738 -1.09492,0.39108 -2.83675,-1.82992 z m 783.50342,-3 C 993.99399,781.2 995.37997,780 995.74664,780 c 0.36667,0 -0.41932,1.2 -1.74664,2.66667 -1.32732,1.46666 -2.71331,2.66666 -3.07997,2.66666 -0.36667,0 0.41932,-1.2 1.74664,-2.66666 z m -787.50342,-2.33334 c -1.65849,-2.11474 -1.61133,-2.1619 0.50342,-0.50341 1.28333,1.00647 2.33333,2.05647 2.33333,2.33333 0,1.09739 -1.09492,0.39108 -2.83675,-1.82992 z M 996,778.16325 c 0,-0.27686 1.05,-1.32686 2.33333,-2.33333 2.11477,-1.65849 2.16187,-1.61133 0.50342,0.50341 -1.74183,2.221 -2.83675,2.92731 -2.83675,1.82992 z m -795.46001,-3.82992 -2.53999,-3 3,2.53999 c 2.81925,2.38696 3.60699,3.46001 2.53999,3.46001 -0.25302,0 -1.60302,-1.35 -3,-3 z M 1000,772.82992 c 0,-0.27687 1.05,-1.32687 2.3333,-2.33333 2.1148,-1.6585 2.1619,-1.61134 0.5034,0.50341 -1.7418,2.221 -2.8367,2.92731 -2.8367,1.82992 z m 4,-5.33333 c 0,-0.27687 1.05,-1.32687 2.3333,-2.33334 2.1148,-1.65849 2.1619,-1.61133 0.5034,0.50342 -1.7418,2.221 -2.8367,2.9273 -2.8367,1.82992 z m -810.83675,-3.16326 c -1.65849,-2.11474 -1.61133,-2.1619 0.50342,-0.50341 1.28333,1.00647 2.33333,2.05647 2.33333,2.33333 0,1.09739 -1.09492,0.39108 -2.83675,-1.82992 z M 1020,744 c 0.7849,-1.46667 1.7272,-2.66667 2.0938,-2.66667 0.3667,0 0.024,1.2 -0.7605,2.66667 -0.7849,1.46667 -1.7271,2.66667 -2.0938,2.66667 -0.3667,0 -0.024,-1.2 0.7605,-2.66667 z m -426.33333,0.41423 c 1.28333,-0.33536 3.38333,-0.33536 4.66666,0 1.28334,0.33537 0.23334,0.60977 -2.33333,0.60977 -2.56667,0 -3.61667,-0.2744 -2.33333,-0.60977 z m -24,-1.33334 c 1.28333,-0.33536 3.38333,-0.33536 4.66666,0 1.28334,0.33538 0.23334,0.60978 -2.33333,0.60978 -2.56667,0 -3.61667,-0.2744 -2.33333,-0.60978 z m 46.69204,-0.005 c 1.29729,-0.33805 3.09729,-0.31583 4,0.0495 0.9027,0.36524 -0.15871,0.64182 -2.35871,0.61465 -2.2,-0.0272 -2.93859,-0.326 -1.64129,-0.66405 z m -56.69204,-1.29193 c 0.91666,-0.36988 2.41666,-0.36988 3.33333,0 0.91667,0.36988 0.16667,0.67252 -1.66667,0.67252 -1.83333,0 -2.58333,-0.30264 -1.66666,-0.67252 z m 69.33333,0 c 0.91667,-0.36988 2.41667,-0.36988 3.33333,0 0.91667,0.36988 0.16667,0.67252 -1.66666,0.67252 -1.83334,0 -2.58334,-0.30264 -1.66667,-0.67252 z M 176,738.66667 C 175.21507,737.2 174.87284,736 175.23951,736 c 0.36666,0 1.30889,1.2 2.09382,2.66667 0.78494,1.46666 1.12716,2.66666 0.7605,2.66666 -0.36667,0 -1.3089,-1.2 -2.09383,-2.66666 z m 375.75,1.75585 c 0.96249,-0.38516 2.11251,-0.3378 2.55556,0.1052 0.44305,0.44305 -0.34445,0.75819 -1.75,0.70029 -1.55327,-0.064 -1.8692,-0.37992 -0.80556,-0.80554 z m -6.66667,-1.33333 c 0.9625,-0.38516 2.11251,-0.3378 2.55556,0.1052 0.44306,0.44305 -0.34445,0.75818 -1.75,0.70029 -1.55326,-0.064 -1.8692,-0.37992 -0.80556,-0.80555 z m 100,0 c 0.9625,-0.38516 2.11251,-0.3378 2.55556,0.1052 0.44306,0.44305 -0.34445,0.75818 -1.75,0.70029 -1.55326,-0.064 -1.8692,-0.37992 -0.80556,-0.80555 z m -106.66666,-1.33334 c 0.96249,-0.38516 2.1125,-0.3378 2.55556,0.1052 0.44305,0.44306 -0.34446,0.75819 -1.75,0.7003 -1.55327,-0.064 -1.8692,-0.37992 -0.80556,-0.80555 z m -5.33334,-1.33333 c 0.9625,-0.38516 2.11251,-0.3378 2.55556,0.1052 0.44306,0.44305 -0.34445,0.75819 -1.75,0.70029 -1.55326,-0.064 -1.8692,-0.37992 -0.80556,-0.80554 z m 493.58337,-3.08919 c 0.7849,-1.46666 1.7271,-2.66666 2.0938,-2.66666 0.3667,0 0.024,1.2 -0.7605,2.66666 -0.7849,1.46667 -1.7272,2.66667 -2.0938,2.66667 -0.3667,0 -0.024,-1.2 0.7605,-2.66667 z m -525.33337,-6.66666 c -1.1,-0.71088 -1.4,-1.2925 -0.66666,-1.2925 0.73333,0 2.23333,0.58162 3.33333,1.2925 1.1,0.71088 1.4,1.29249 0.66667,1.29249 -0.73334,0 -2.23334,-0.58161 -3.33334,-1.29249 z M 1032,724 c 0.7849,-1.46667 1.7272,-2.66667 2.0938,-2.66667 0.3667,0 0.024,1.2 -0.7605,2.66667 -0.7849,1.46667 -1.7271,2.66667 -2.0938,2.66667 -0.3667,0 -0.024,-1.2 0.7605,-2.66667 z m -540,-1.33333 c -1.1,-0.71088 -1.4,-1.2925 -0.66667,-1.2925 0.73334,0 2.23334,0.58162 3.33334,1.2925 1.1,0.71088 1.4,1.29249 0.66666,1.29249 -0.73333,0 -2.23333,-0.58161 -3.33333,-1.29249 z m 547.3333,-12 c 1.1377,-2.2 2.3685,-4 2.7352,-4 0.3666,0 -0.2642,1.8 -1.4018,4 -1.1377,2.2 -2.3685,4 -2.7352,4 -0.3666,0 0.2642,-1.8 1.4018,-4 z m -321.99997,2.09382 c 0,-0.36666 1.2,-1.30889 2.66667,-2.09382 1.46667,-0.78494 2.66667,-1.12716 2.66667,-0.7605 0,0.36667 -1.2,1.3089 -2.66667,2.09383 -1.46667,0.78493 -2.66667,1.12716 -2.66667,0.76049 z m -250.07849,-2.83405 c -2.48536,-1.99119 -2.46901,-2.0158 0.41183,-0.61975 1.65,0.79959 3,1.73268 3,2.07355 0,1.02029 -0.69148,0.72565 -3.41183,-1.4538 z m -311.32295,-7.39469 c -2.25857,-4.47422 -3.88648,-8.35494 -3.61758,-8.62384 0.2689,-0.2689 2.40258,3.39181 4.74152,8.13492 2.33893,4.74312 3.96685,8.62384 3.61758,8.62384 -0.34926,0 -2.48294,-3.66072 -4.74152,-8.13492 z m 582.73478,-3.03516 c 0,-0.27687 1.05,-1.32687 2.33333,-2.33334 2.11475,-1.65849 2.16191,-1.61133 0.50341,0.50342 -1.74182,2.221 -2.83674,2.9273 -2.83674,1.82992 z m 306.66663,-0.35286 c 0,-0.7154 0.9331,-2.4654 2.0736,-3.88889 1.9552,-2.44041 1.9829,-2.39787 0.486,0.74516 -1.9437,4.08137 -2.5596,4.83779 -2.5596,3.14373 z m -602.83671,-5.47706 c -1.6585,-2.11475 -1.61134,-2.16191 0.50341,-0.50342 1.28333,1.00647 2.33333,2.05647 2.33333,2.33334 0,1.09738 -1.09492,0.39108 -2.83674,-1.82992 z M 436.53999,689 434,686 l 3,2.53999 c 2.81925,2.38696 3.60699,3.46001 2.53999,3.46001 -0.25302,0 -1.60302,-1.35 -3,-3 z m 312.79334,2.49659 c 0,-0.27687 1.05,-1.32687 2.33334,-2.33334 2.11474,-1.65849 2.1619,-1.61133 0.50341,0.50342 -1.74183,2.221 -2.83675,2.9273 -2.83675,1.82992 z m 5.33334,-3.9138 c 0,-0.22947 1.95,-2.17947 4.33333,-4.33334 l 4.33333,-3.91612 -3.91612,4.33334 c -3.65037,4.03928 -4.75054,4.9462 -4.75054,3.91612 z m -324.79335,-3.91612 -2.53999,-3 3,2.53998 c 1.65,1.39699 3,2.74699 3,3 0,1.067 -1.07305,0.27927 -3.46001,-2.53998 z M 411.97617,667 398,652.66667 l 14.33333,13.97617 c 7.88334,7.68691 14.33334,14.13691 14.33334,14.33333 0,0.96295 -1.70912,-0.66306 -14.6905,-13.97617 z m 361.35716,3 c 3.98323,-4.03333 7.54224,-7.33333 7.90891,-7.33333 0.36667,0 -2.59235,3.3 -6.57557,7.33333 -3.98323,4.03333 -7.54224,7.33333 -7.90891,7.33333 -0.36667,0 2.59235,-3.3 6.57557,-7.33333 z m 8,-9.08388 c 0,-0.22947 1.95,-2.17947 4.33334,-4.33333 L 790,652.66667 786.08388,657 c -3.65037,4.03928 -4.75055,4.9462 -4.75055,3.91612 z m 8,-9.41953 c 0,-0.27687 1.05,-1.32687 2.33334,-2.33334 2.11474,-1.65849 2.1619,-1.61133 0.50341,0.50342 -1.74183,2.221 -2.83675,2.9273 -2.83675,1.82992 z m -395.46001,-3.82992 -2.53999,-3 3,2.53998 c 1.65,1.39699 3,2.74699 3,3 0,1.067 -1.07305,0.27927 -3.46001,-2.53998 z m -6.0434,-7.33334 c -1.65849,-2.11474 -1.61133,-2.1619 0.50341,-0.50341 2.221,1.74183 2.92731,2.83675 1.82992,2.83675 -0.27686,0 -1.32686,-1.05 -2.33333,-2.33334 z m -4,-5.33333 c -1.65849,-2.11475 -1.61133,-2.16191 0.50341,-0.50341 2.221,1.74182 2.92731,2.83674 1.82992,2.83674 -0.27686,0 -1.32686,-1.05 -2.33333,-2.33333 z m 426.83675,-13.66667 c 0.78493,-1.46666 1.72716,-2.66666 2.09382,-2.66666 0.36667,0 0.0244,1.2 -0.76049,2.66666 C 811.21507,622.8 810.27284,624 809.90617,624 c -0.36666,0 -0.0244,-1.2 0.7605,-2.66667 z m 265.43863,-3.44444 c 0.064,-1.55326 0.3799,-1.8692 0.8055,-0.80556 0.3852,0.9625 0.3378,2.11251 -0.1052,2.55556 -0.443,0.44306 -0.7582,-0.34445 -0.7003,-1.75 z M 817.33333,609.33333 C 818.82981,606.4 820.3542,604 820.72087,604 c 0.36666,0 -0.55772,2.4 -2.0542,5.33333 -1.49648,2.93334 -3.02087,5.33334 -3.38754,5.33334 -0.36666,0 0.55772,-2.4 2.0542,-5.33334 z m -695.89473,0.55556 c 0.064,-1.55326 0.37992,-1.8692 0.80555,-0.80556 0.38516,0.9625 0.33779,2.11251 -0.10526,2.55556 -0.44306,0.44306 -0.75819,-0.34445 -0.7003,-1.75 z m -1.33334,-5.33333 c 0.064,-1.55327 0.37992,-1.8692 0.80556,-0.80556 0.38516,0.96249 0.33779,2.11251 -0.10527,2.55556 -0.44305,0.44305 -0.75819,-0.34445 -0.70029,-1.75 z m 243.16399,-2.0128 c -1.1729,-2.26815 -1.89584,-4.36061 -1.60653,-4.64992 0.28931,-0.28931 1.52384,1.56644 2.74341,4.12391 2.74211,5.75026 1.79202,6.18985 -1.13688,0.52601 z M 821.37417,602 c 0,-0.73333 0.58162,-2.23333 1.2925,-3.33333 0.71088,-1.1 1.29249,-1.4 1.29249,-0.66667 0,0.73333 -0.58161,2.23333 -1.29249,3.33333 -0.71088,1.1 -1.2925,1.4 -1.2925,0.66667 z m 260.06443,-5.44444 c 0.064,-1.55327 0.3799,-1.8692 0.8055,-0.80556 0.3852,0.96249 0.3378,2.11251 -0.1052,2.55556 -0.443,0.44305 -0.7581,-0.34445 -0.7002,-1.75 z m -723.88868,-5.27933 c -2.23399,-4.90306 -1.80777,-5.94906 0.60781,-1.49168 1.12803,2.08149 1.80147,4.03402 1.49654,4.33896 -0.30494,0.30493 -1.2519,-0.97634 -2.10435,-2.84728 z m 725.22198,-1.38734 c 0.064,-1.55326 0.38,-1.8692 0.8056,-0.80556 0.3851,0.9625 0.3378,2.11251 -0.1052,2.55556 -0.4431,0.44306 -0.7582,-0.34445 -0.7003,-1.75 z m -966.66664,-4 c 0.064,-1.55326 0.37992,-1.8692 0.80556,-0.80556 0.38516,0.9625 0.33779,2.11251 -0.10527,2.55556 -0.44305,0.44306 -0.75819,-0.34445 -0.70029,-1.75 z m 968.00004,-1.33333 c 0.064,-1.55327 0.3799,-1.8692 0.8055,-0.80556 0.3852,0.96249 0.3378,2.11251 -0.1052,2.55556 -0.443,0.44305 -0.7582,-0.34445 -0.7003,-1.75 z M 114.87719,580 c 0,-1.83333 0.30263,-2.58333 0.67252,-1.66667 0.36988,0.91667 0.36988,2.41667 0,3.33334 -0.36989,0.91666 -0.67252,0.16666 -0.67252,-1.66667 z m -1.33333,-8 c 0,-1.83333 0.30263,-2.58333 0.67251,-1.66667 0.36989,0.91667 0.36989,2.41667 0,3.33334 -0.36988,0.91666 -0.67251,0.16666 -0.67251,-1.66667 z m 973.33334,-2.66667 c 0,-1.83333 0.3026,-2.58333 0.6725,-1.66666 0.3699,0.91666 0.3699,2.41666 0,3.33333 -0.3699,0.91667 -0.6725,0.16667 -0.6725,-1.66667 z M 112.21053,564 c 0,-1.83333 0.30263,-2.58333 0.67251,-1.66667 0.36988,0.91667 0.36988,2.41667 0,3.33334 -0.36988,0.91666 -0.67251,0.16666 -0.67251,-1.66667 z m 975.99997,-4 c 0,-1.83333 0.3027,-2.58333 0.6725,-1.66667 0.3699,0.91667 0.3699,2.41667 0,3.33334 -0.3698,0.91666 -0.6725,0.16666 -0.6725,-1.66667 z m -977.2839,-6 c 0.0272,-2.2 0.326,-2.93859 0.66405,-1.64129 0.33806,1.29729 0.31583,3.09729 -0.0494,4 C 111.17602,557.26141 110.89943,556.2 110.9266,554 Z m 978.6667,-4 c 0.027,-2.2 0.326,-2.93859 0.664,-1.64129 0.3381,1.29729 0.3158,3.09729 -0.049,4 -0.3653,0.9027 -0.6419,-0.15871 -0.6147,-2.35871 z m -249.48803,-4.11111 c 0.064,-1.55326 0.37992,-1.8692 0.80554,-0.80556 0.38516,0.9625 0.3378,2.11251 -0.1052,2.55556 -0.44305,0.44306 -0.75818,-0.34445 -0.70029,-1.75 z m -730.512,-2.55556 c 0.0272,-2.2 0.32599,-2.93858 0.66405,-1.64129 0.33806,1.29729 0.31583,3.09729 -0.0494,4 -0.36523,0.90271 -0.64183,-0.15871 -0.61465,-2.35871 z m 731.84533,-4.1111 c 0.064,-1.55327 0.37992,-1.8692 0.80555,-0.80556 0.38516,0.96249 0.3378,2.1125 -0.1052,2.55556 -0.44306,0.44305 -0.75819,-0.34446 -0.7003,-1.75 z m 249.5374,-1.8889 c 0,-2.56666 0.2744,-3.61666 0.6098,-2.33333 0.3353,1.28333 0.3353,3.38333 0,4.66667 -0.3354,1.28333 -0.6098,0.23333 -0.6098,-2.33334 z m -982.59465,-10 c 0.01,-3.66666 0.26895,-5.00841 0.57542,-2.98166 0.30648,2.02674 0.29829,5.02674 -0.0182,6.66666 -0.31648,1.63992 -0.56723,-0.0184 -0.55722,-3.685 z m 734.39058,3.8889 c 0.064,-1.55327 0.37992,-1.8692 0.80555,-0.80556 0.38516,0.96249 0.3378,2.1125 -0.1052,2.55556 -0.44305,0.44305 -0.75819,-0.34446 -0.70029,-1.75 z m -508,-8 c 0.064,-1.55327 0.37992,-1.8692 0.80555,-0.80556 0.38516,0.96249 0.3378,2.1125 -0.1052,2.55556 -0.44307,0.44305 -0.75819,-0.34446 -0.70029,-1.75 z m 757.62757,-4.55556 c 0,-4.03334 0.25,-5.68334 0.5555,-3.66667 0.3055,2.01667 0.3055,5.31667 0,7.33333 -0.3055,2.01667 -0.5555,0.36667 -0.5555,-3.66666 z m -248.13957,2 c 0.0272,-2.2 0.326,-2.93859 0.66406,-1.6413 0.33805,1.2973 0.31582,3.0973 -0.0495,4 -0.36524,0.90271 -0.64183,-0.1587 -0.61465,-2.3587 z M 332.10527,508.55556 c 0.064,-1.55327 0.37992,-1.8692 0.80554,-0.80556 0.38516,0.96249 0.3378,2.11251 -0.1052,2.55556 -0.44306,0.44305 -0.75818,-0.34445 -0.70029,-1.75 z M 107.15364,496.66667 c 0.003,-7.33334 0.22738,-10.16323 0.49757,-6.28864 0.27018,3.87458 0.26734,9.87458 -0.006,13.33333 -0.27371,3.45875 -0.49477,0.28864 -0.4913,-7.04469 z M 845.84235,494 c 0.003,-8.8 0.21842,-12.22649 0.47953,-7.61441 0.26111,4.61206 0.25896,11.81206 -0.005,16 C 846.0528,506.57351 845.83917,502.8 845.8418,494 Z m -514.91575,5.33333 c 0.0272,-2.2 0.326,-2.93858 0.66405,-1.64129 0.33806,1.29729 0.31583,3.09729 -0.0495,4 -0.36524,0.90271 -0.64183,-0.15871 -0.61466,-2.35871 z m -1.23012,-14 c 0,-3.3 0.26003,-4.65 0.57783,-3 0.31781,1.65 0.31781,4.35 0,6 -0.3178,1.65 -0.57783,0.3 -0.57783,-3 z M 1092.4268,472 c 0,-4.76667 0.242,-6.71667 0.5377,-4.33333 0.2958,2.38333 0.2958,6.28333 0,8.66666 -0.2957,2.38334 -0.5377,0.43334 -0.5377,-4.33333 z m -248.16687,-6 c 0.0272,-2.2 0.326,-2.93859 0.66406,-1.64129 0.33805,1.29729 0.31582,3.09729 -0.0495,4 -0.36524,0.9027 -0.64183,-0.15871 -0.61465,-2.35871 z m -735.89678,-4.66667 c 0,-3.3 0.26002,-4.65 0.57783,-3 0.3178,1.65 0.3178,4.35 0,6 -0.31781,1.65 -0.57783,0.3 -0.57783,-3 z M 328.43752,458 c 0.005,-5.13333 0.24691,-7.06995 0.53555,-4.3036 0.28862,2.76636 0.28378,6.96636 -0.0107,9.33333 -0.29455,2.36699 -0.53071,0.1036 -0.52479,-5.02973 z m 514.43967,-3.33333 c 0,-1.83334 0.30264,-2.58334 0.67252,-1.66667 0.36988,0.91667 0.36988,2.41667 0,3.33333 -0.36988,0.91667 -0.67252,0.16667 -0.67252,-1.66666 z M 1090.976,452 c 0,-2.56667 0.2744,-3.61667 0.6098,-2.33333 0.3353,1.28333 0.3353,3.38333 0,4.66666 -0.3354,1.28334 -0.6098,0.23334 -0.6098,-2.33333 z m -981.38273,-4.66667 c 0.0272,-2.2 0.32599,-2.93858 0.66405,-1.64129 0.33806,1.29729 0.31583,3.09729 -0.0494,4 -0.36523,0.90271 -0.64183,-0.15871 -0.61465,-2.35871 z m 731.84533,-1.44444 c 0.064,-1.55326 0.37992,-1.8692 0.80555,-0.80556 0.38516,0.9625 0.3378,2.11251 -0.1052,2.55556 -0.44306,0.44306 -0.75819,-0.34445 -0.7003,-1.75 z M 1089.5439,440 c 0,-1.83333 0.3026,-2.58333 0.6725,-1.66667 0.3699,0.91667 0.3699,2.41667 0,3.33334 -0.3699,0.91666 -0.6725,0.16666 -0.6725,-1.66667 z m -249.43863,-0.77777 c 0.064,-1.55327 0.37992,-1.8692 0.80554,-0.80556 0.38516,0.96249 0.3378,2.1125 -0.1052,2.55556 -0.44305,0.44305 -0.75818,-0.34446 -0.70029,-1.75 z m -729.33334,-4 c 0.064,-1.55327 0.37992,-1.8692 0.80556,-0.80556 0.38516,0.96249 0.33779,2.1125 -0.10527,2.55556 -0.44306,0.44305 -0.75819,-0.34446 -0.70029,-1.75 z m 218.89764,-3.8889 c 0.0148,-2.93333 0.28786,-3.97633 0.60678,-2.31778 0.31892,1.65854 0.30681,4.05854 -0.0269,5.33333 -0.33372,1.27479 -0.59466,-0.0823 -0.57986,-3.01555 z m 509.10236,1.22223 c 0.064,-1.55327 0.37992,-1.8692 0.80555,-0.80556 0.38516,0.96249 0.3378,2.11251 -0.1052,2.55556 -0.44305,0.44305 -0.75819,-0.34445 -0.70029,-1.75 z m 249.43857,-3.22223 c 0,-1.83333 0.3027,-2.58333 0.6725,-1.66666 0.3699,0.91666 0.3699,2.41666 0,3.33333 -0.3698,0.91667 -0.6725,0.16667 -0.6725,-1.66667 z m -975.99997,-4 c 0,-1.83333 0.30263,-2.58333 0.67251,-1.66666 0.36988,0.91666 0.36988,2.41666 0,3.33333 -0.36988,0.91667 -0.67251,0.16667 -0.67251,-1.66667 z m 974.56137,-4.77777 c 0.064,-1.55327 0.38,-1.8692 0.8056,-0.80556 0.3851,0.96249 0.3378,2.11251 -0.1052,2.55556 -0.4431,0.44305 -0.7582,-0.34445 -0.7003,-1.75 z M 330.9266,418 c 0.0272,-2.2 0.326,-2.93859 0.66405,-1.64129 0.33806,1.29729 0.31583,3.09729 -0.0495,4 -0.36524,0.9027 -0.64183,-0.15871 -0.61466,-2.35871 z m -217.38274,-0.66667 c 0,-1.83333 0.30263,-2.58333 0.67251,-1.66666 0.36989,0.91666 0.36989,2.41666 0,3.33333 -0.36988,0.91667 -0.67251,0.16667 -0.67251,-1.66667 z m 971.89474,-4.77777 c 0.064,-1.55327 0.3799,-1.8692 0.8055,-0.80556 0.3852,0.96249 0.3378,2.11251 -0.1052,2.55556 -0.443,0.44305 -0.7581,-0.34445 -0.7002,-1.75 z m -970.66667,-2.66667 c 0.064,-1.55326 0.37992,-1.8692 0.80556,-0.80556 0.38516,0.9625 0.33779,2.11251 -0.10527,2.55556 -0.44306,0.44306 -0.75819,-0.34445 -0.70029,-1.75 z m 217.33334,-2.66666 c 0.064,-1.55327 0.37992,-1.8692 0.80554,-0.80556 0.38516,0.96249 0.3378,2.1125 -0.1052,2.55556 -0.44306,0.44305 -0.75818,-0.34446 -0.70029,-1.75 z m 752.00003,-1.33334 c 0.064,-1.55326 0.3799,-1.8692 0.8055,-0.80556 0.3852,0.9625 0.3378,2.11251 -0.1052,2.55556 -0.443,0.44306 -0.7582,-0.34445 -0.7003,-1.75 z m -968.00004,-2.66666 c 0.064,-1.55327 0.37992,-1.8692 0.80556,-0.80556 0.38516,0.96249 0.33779,2.1125 -0.10527,2.55556 -0.44305,0.44305 -0.75819,-0.34446 -0.70029,-1.75 z m 217.43859,-4.55556 c 0,-1.83334 0.30264,-2.58334 0.67252,-1.66667 0.36988,0.91667 0.36988,2.41667 0,3.33333 -0.36988,0.91667 -0.67252,0.16667 -0.67252,-1.66666 z m 749.22805,0.55556 c 0.064,-1.55327 0.38,-1.8692 0.8056,-0.80556 0.3851,0.96249 0.3378,2.1125 -0.1052,2.55556 -0.4431,0.44305 -0.7582,-0.34446 -0.7003,-1.75 z m -965.3333,-2.66667 c 0.064,-1.55327 0.37992,-1.8692 0.80555,-0.80556 0.38516,0.96249 0.33779,2.11251 -0.10526,2.55556 -0.44306,0.44305 -0.75819,-0.34445 -0.7003,-1.75 z m 962.6667,-9.33333 c 0.064,-1.55327 0.3799,-1.8692 0.8055,-0.80556 0.3852,0.96249 0.3378,2.1125 -0.1052,2.55556 -0.443,0.44305 -0.7582,-0.34446 -0.7003,-1.75 z m -1.3334,-5.33334 c 0.064,-1.55326 0.38,-1.8692 0.8056,-0.80556 0.3851,0.9625 0.3378,2.11251 -0.1052,2.55556 -0.4431,0.44306 -0.7582,-0.34445 -0.7003,-1.75 z m -741.3333,-4 c 0.064,-1.55326 0.37992,-1.8692 0.80555,-0.80556 0.38516,0.9625 0.3378,2.11251 -0.1052,2.55556 -0.44307,0.44306 -0.75819,-0.34445 -0.7003,-1.75 z m 481.42041,-1.55556 c -1.45493,-3.40005 -1.42201,-3.47848 0.45266,-1.07849 1.11192,1.42349 2.02166,3.07349 2.02166,3.66667 0,2.02654 -0.90444,1.08048 -2.47432,-2.58818 z m -19.02909,-30.66666 c -1.65849,-2.11475 -1.61133,-2.16191 0.50341,-0.50342 2.221,1.74183 2.92731,2.83675 1.82992,2.83675 -0.27686,0 -1.32686,-1.05 -2.33333,-2.33333 z m -4.62327,-6 -2.53998,-3 3,2.53998 c 1.65,1.39699 3,2.74699 3,3 0,1.067 -1.07306,0.27927 -3.46002,-2.53998 z m -7.9572,-9.33334 -3.91612,-4.33333 4.33334,3.91612 C 790.05,332.06999 792,334.01999 792,334.24945 c 0,1.03008 -1.10017,0.1232 -4.75055,-3.91612 z M 142.70751,316.66667 c 0,-0.73334 0.58161,-2.23334 1.29249,-3.33334 0.71088,-1.1 1.29249,-1.4 1.29249,-0.66666 0,0.73333 -0.58161,2.23333 -1.29249,3.33333 -0.71088,1.1 -1.29249,1.4 -1.29249,0.66667 z m 625.87528,-5 -3.91612,-4.33334 4.33333,3.91612 c 2.38333,2.15387 4.33333,4.10387 4.33333,4.33334 0,1.03008 -1.10017,0.1232 -4.75054,-3.91612 z m -408.54195,-3 c 0,-0.73334 0.58161,-2.23334 1.29249,-3.33334 0.71088,-1.1 1.2925,-1.4 1.2925,-0.66666 0,0.73333 -0.58162,2.23333 -1.2925,3.33333 -0.71088,1.1 -1.29249,1.4 -1.29249,0.66667 z M 146.70751,307.33333 C 146.70751,306.6 147.28912,305.1 148,304 c 0.71088,-1.1 1.29249,-1.4 1.29249,-0.66667 0,0.73334 -0.58161,2.23334 -1.29249,3.33334 -0.71088,1.1 -1.29249,1.4 -1.29249,0.66666 z m 613.12241,-3 c -1.65849,-2.11474 -1.61133,-2.1619 0.50341,-0.50341 2.221,1.74183 2.92731,2.83675 1.82992,2.83675 -0.27686,0 -1.32686,-1.05 -2.33333,-2.33334 z m -10.66667,-8 c -1.65849,-2.11474 -1.61133,-2.1619 0.50342,-0.50341 2.221,1.74183 2.9273,2.83675 1.82992,2.83675 -0.27687,0 -1.32687,-1.05 -2.33334,-2.33334 z m 297.00145,-3.71821 c -1.2866,-3.35292 -0.9071,-4.21807 0.6647,-1.51512 0.7783,1.33833 1.1342,2.71421 0.7909,3.05751 -0.3433,0.34329 -0.9983,-0.35079 -1.4556,-1.54239 z M 1042,284 c -1.1377,-2.2 -1.7685,-4 -1.4018,-4 0.3667,0 1.5975,1.8 2.7351,4 1.1377,2.2 1.7685,4 1.4018,4 -0.3666,0 -1.5974,-1.8 -2.7351,-4 z m -316.07849,-2.07356 c -2.48536,-1.99119 -2.46902,-2.0158 0.41182,-0.61975 1.65,0.79959 3,1.73268 3,2.07355 0,1.02029 -0.69148,0.72565 -3.41182,-1.4538 z m -23.25484,-11.25977 c -1.1,-0.71088 -1.4,-1.2925 -0.66667,-1.2925 0.73333,0 2.23333,0.58162 3.33333,1.2925 1.1,0.71088 1.4,1.29249 0.66667,1.29249 -0.73333,0 -2.23333,-0.58161 -3.33333,-1.29249 z M 1033.3333,268 c -0.7849,-1.46667 -1.1271,-2.66667 -0.7605,-2.66667 0.3667,0 1.3089,1.2 2.0939,2.66667 0.7849,1.46667 1.1271,2.66667 0.7605,2.66667 -0.3667,0 -1.3089,-1.2 -2.0939,-2.66667 z m -650.66663,-4 c 0.78493,-1.46667 1.72716,-2.66667 2.09382,-2.66667 0.36667,0 0.0244,1.2 -0.76049,2.66667 -0.78493,1.46667 -1.72716,2.66667 -2.09383,2.66667 -0.36666,0 -0.0244,-1.2 0.7605,-2.66667 z M 1028,258.66667 C 1027.2151,257.2 1026.8728,256 1027.2395,256 c 0.3667,0 1.3089,1.2 2.0938,2.66667 0.785,1.46666 1.1272,2.66666 0.7605,2.66666 -0.3666,0 -1.3089,-1.2 -2.0938,-2.66666 z M 1024,252 c -0.7849,-1.46667 -1.1272,-2.66667 -0.7605,-2.66667 0.3667,0 1.3089,1.2 2.0938,2.66667 0.785,1.46667 1.1272,2.66667 0.7605,2.66667 -0.3666,0 -1.3089,-1.2 -2.0938,-2.66667 z M 637.73288,240 c 0,-4.03333 0.24996,-5.68333 0.55545,-3.66667 0.30551,2.01667 0.30551,5.31667 0,7.33334 -0.30549,2.01666 -0.55545,0.36666 -0.55545,-3.66667 z m -456.39955,2.66667 C 182.11827,241.2 183.06049,240 183.42716,240 c 0.36667,0 0.0244,1.2 -0.76049,2.66667 -0.78494,1.46666 -1.72716,2.66666 -2.09383,2.66666 -0.36667,0 -0.0244,-1.2 0.76049,-2.66666 z m 221.33334,-9.83675 c 0,-0.27687 1.05,-1.32687 2.33333,-2.33333 2.11475,-1.6585 2.16191,-1.61134 0.50341,0.50341 -1.74182,2.221 -2.83674,2.92731 -2.83674,1.82992 z m -208.63928,-8.69085 c 2.68918,-3.74316 5.16197,-6.80574 5.49508,-6.80574 0.91637,0 -7.34808,11.73484 -8.97075,12.73771 -0.77757,0.48056 0.78648,-2.18883 3.47567,-5.93197 z m 444.94861,-1.4724 c 0,-2.56667 0.2744,-3.61667 0.60977,-2.33334 0.33536,1.28334 0.33536,3.38334 0,4.66667 -0.33537,1.28333 -0.60977,0.23333 -0.60977,-2.33333 z m 364.8539,-1 c -1.6585,-2.11475 -1.6113,-2.16191 0.5034,-0.50342 2.221,1.74183 2.9273,2.83675 1.83,2.83675 -0.2769,0 -1.3269,-1.05 -2.3334,-2.33333 z m -593.16323,0.49658 c 0,-0.27686 1.05,-1.32686 2.33333,-2.33333 2.11475,-1.65849 2.16191,-1.61133 0.50341,0.50341 -1.74182,2.221 -2.83674,2.92731 -2.83674,1.82992 z m 589.16325,-5.82992 c -1.65849,-2.11474 -1.61133,-2.1619 0.50338,-0.50341 2.221,1.74183 2.9273,2.83675 1.83,2.83675 -0.2769,0 -1.3269,-1.05 -2.33338,-2.33334 z M 200,215.49659 c 0,-0.27687 1.05,-1.32687 2.33333,-2.33334 2.11475,-1.65849 2.16191,-1.61133 0.50342,0.50342 -1.74183,2.221 -2.83675,2.9273 -2.83675,1.82992 z m 216,0 c 0,-0.27687 1.05,-1.32687 2.33333,-2.33334 2.11475,-1.65849 2.16191,-1.61133 0.50342,0.50342 -1.74183,2.221 -2.83675,2.9273 -2.83675,1.82992 z m 224.10527,-2.94103 c 0.064,-1.55327 0.37992,-1.8692 0.80554,-0.80556 0.38516,0.96249 0.3378,2.11249 -0.1052,2.55556 -0.44305,0.44305 -0.75818,-0.34445 -0.70029,-1.75 z M 995.82992,211 c -1.65849,-2.11475 -1.61133,-2.16191 0.50341,-0.50341 2.221,1.74182 2.92731,2.83674 1.82992,2.83674 -0.27686,0 -1.32686,-1.05 -2.33333,-2.33333 z M 424,206 c 1.72233,-1.83333 3.43151,-3.33333 3.79817,-3.33333 0.36667,0 -0.7425,1.5 -2.46484,3.33333 -1.72233,1.83333 -3.4315,3.33333 -3.79817,3.33333 -0.36667,0 0.74251,-1.5 2.46484,-3.33333 z m 567.20665,-1 -2.53998,-3 3,2.53999 c 2.81925,2.38696 3.60698,3.46001 2.53998,3.46001 -0.25301,0 -1.60301,-1.35 -3,-3 z M 641.4386,204.55556 c 0.064,-1.55327 0.37992,-1.8692 0.80555,-0.80556 0.38516,0.96249 0.3378,2.11249 -0.1052,2.55556 -0.44306,0.44305 -0.75819,-0.34445 -0.7003,-1.75 z m -430.10527,-3.22223 c 1.32732,-1.46666 2.71331,-2.66666 3.07998,-2.66666 0.36666,0 -0.41932,1.2 -1.74664,2.66666 C 211.33935,202.8 209.95336,204 209.58669,204 c -0.36666,0 0.41932,-1.2 1.74664,-2.66667 z m 431.4386,-2.1111 c 0.064,-1.55327 0.37992,-1.8692 0.80555,-0.80556 0.38516,0.96249 0.3378,2.11249 -0.1052,2.55556 -0.44305,0.44305 -0.75819,-0.34446 -0.70029,-1.75 z M 986.49659,199 c -1.6585,-2.11475 -1.61134,-2.16191 0.50341,-0.50341 2.221,1.74182 2.92731,2.83674 1.82992,2.83674 -0.27687,0 -1.32687,-1.05 -2.33333,-2.33333 z m -551.88564,-4.66667 c 5.52528,-5.88692 6.72238,-6.94545 6.72238,-5.94428 0,0.21399 -2.85,3.06399 -6.33333,6.33334 l -6.33333,5.94428 z M 217.33333,194 c 1.72234,-1.83333 3.43151,-3.33333 3.79818,-3.33333 0.36666,0 -0.74251,1.5 -2.46484,3.33333 -1.72234,1.83333 -3.43151,3.33333 -3.79818,3.33333 -0.36666,0 0.74251,-1.5 2.46484,-3.33333 z m 426.77194,-0.11107 c 0.064,-1.55326 0.37992,-1.8692 0.80554,-0.80556 0.38516,0.9625 0.3378,2.1125 -0.1052,2.55556 -0.44305,0.44306 -0.75818,-0.34445 -0.70029,-1.75 z m 335.14418,-3.5556 -3.91612,-4.33333 4.33334,3.91612 C 982.05,192.06999 984,194.01999 984,194.24945 c 0,1.03008 -1.10017,0.1232 -4.75055,-3.91612 z m -756.58278,-2.75054 c 0,-0.22947 1.95,-2.17947 4.33333,-4.33334 l 4.33333,-3.91612 -3.91612,4.33334 c -3.65037,4.03928 -4.75054,4.9462 -4.75054,3.91612 z m 745.26156,-9.91612 -4.5949,-5 5,4.59489 c 4.6539,4.27681 5.61306,5.40511 4.5949,5.40511 -0.22282,0 -2.47282,-2.25 -5,-5 z M 245.33333,163.33333 C 251.53428,157.1 256.90779,152 257.27445,152 c 0.36667,0 -4.40684,5.1 -10.60778,11.33333 -6.20095,6.23334 -11.57446,11.33334 -11.94112,11.33334 -0.36667,0 4.40684,-5.1 10.60778,-11.33334 z M 462,166.66667 c 2.86432,-2.93334 5.50787,-5.33334 5.87453,-5.33334 0.36667,0 -1.67688,2.4 -4.5412,5.33334 C 460.46901,169.6 457.82547,172 457.4588,172 c -0.36667,0 1.67688,-2.4 4.5412,-5.33333 z m 194,-4.49756 c 0,-1.43998 5.29628,-11.50244 6.0542,-11.50244 0.36667,0 -0.61928,2.55 -2.191,5.66666 -3.09088,6.12915 -3.8632,7.29582 -3.8632,5.83578 z M 474,156 c 1.32732,-1.46667 2.71331,-2.66667 3.07997,-2.66667 0.36667,0 -0.41932,1.2 -1.74664,2.66667 -1.32732,1.46667 -2.7133,2.66667 -3.07997,2.66667 -0.36667,0 0.41932,-1.2 1.74664,-2.66667 z m 466,-6 c -3.23871,-3.3 -5.58856,-6 -5.22189,-6 0.36666,0 3.31652,2.7 6.55522,6 3.23871,3.3 5.58856,6 5.2219,6 -0.36667,0 -3.31652,-2.7 -6.55523,-6 z m -458,-0.66667 c 1.32732,-1.46666 2.71331,-2.66666 3.07997,-2.66666 0.36667,0 -0.41932,1.2 -1.74664,2.66666 C 482.00601,150.8 480.62003,152 480.25336,152 c -0.36667,0 0.41932,-1.2 1.74664,-2.66667 z m -219.33333,-1.75054 c 0,-0.22947 1.95,-2.17947 4.33333,-4.33334 l 4.33333,-3.91612 -3.91612,4.33334 c -3.65037,4.03928 -4.75054,4.9462 -4.75054,3.91612 z m 224.47878,-1.94547 C 488.20041,143.93036 496,138.15808 496,139.08429 c 0,0.32956 -2.20269,2.27928 -4.89487,4.3327 -2.69217,2.05342 -4.47402,3.05257 -3.95968,2.22033 z M 926.56575,137.66667 923.33333,134 927,137.23241 c 2.01667,1.77784 3.66667,3.42784 3.66667,3.66667 0,1.04571 -1.07974,0.19464 -4.10092,-3.23241 z M 276,135.33333 C 277.72233,133.5 279.43151,132 279.79817,132 c 0.36667,0 -0.7425,1.5 -2.46484,3.33333 -1.72233,1.83334 -3.4315,3.33334 -3.79817,3.33334 -0.36667,0 0.74251,-1.5 2.46484,-3.33334 z m 221.33333,2.82992 c 0,-0.27686 1.05,-1.32686 2.33334,-2.33333 2.11474,-1.65849 2.1619,-1.61133 0.50341,0.50341 -1.74183,2.221 -2.83675,2.92731 -2.83675,1.82992 z M 918.49659,131 c -1.6585,-2.11474 -1.61134,-2.1619 0.50341,-0.50341 1.28333,1.00646 2.33333,2.05646 2.33333,2.33334 0,1.09738 -1.09492,0.39107 -2.83674,-1.82993 z m -411.82992,0.49659 c 0,-0.27687 1.05,-1.32687 2.33333,-2.33333 2.11475,-1.65849 2.16191,-1.61133 0.50341,0.50341 -1.74182,2.22099 -2.83674,2.9273 -2.83674,1.82992 z m 166.66666,0 c 0,-0.27687 1.05,-1.32687 2.33334,-2.33333 2.11474,-1.65849 2.1619,-1.61133 0.50341,0.50341 -1.74183,2.22099 -2.83675,2.9273 -2.83675,1.82992 z m -390.66666,-1.33333 c 0,-0.27687 1.05,-1.32687 2.33333,-2.33333 2.11475,-1.6585 2.16191,-1.61134 0.50341,0.5034 -1.74182,2.221 -2.83674,2.92731 -2.83674,1.82993 z m 629.16325,-4.49659 c -1.65849,-2.11474 -1.61133,-2.1619 0.50341,-0.50341 2.221,1.74183 2.92731,2.83674 1.82992,2.83674 -0.27686,0 -1.32686,-1.05 -2.33333,-2.33333 z m -234.49659,0.49659 c 0,-0.27687 1.05,-1.32687 2.33334,-2.33333 2.11474,-1.6585 2.1619,-1.61134 0.50341,0.5034 -1.74183,2.221 -2.83675,2.92731 -2.83675,1.82993 z m -388,-1.33333 c 0,-0.27688 1.05,-1.32688 2.33334,-2.33334 2.11474,-1.65849 2.1619,-1.61133 0.50341,0.50341 -1.74183,2.221 -2.83675,2.92731 -2.83675,1.82993 z m 615.82992,-4.4966 c -1.65849,-2.11474 -1.61133,-2.1619 0.50342,-0.5034 1.28333,1.00646 2.33333,2.05646 2.33333,2.33333 0,1.09738 -1.09492,0.39107 -2.83675,-1.82993 z m -610.49658,0.4966 c 0,-0.27688 1.05,-1.32688 2.33333,-2.33334 2.11475,-1.65849 2.16191,-1.61133 0.50341,0.50341 -1.74182,2.221 -2.83674,2.92731 -2.83674,1.82993 z m 388,-1.24714 c 0,-0.22947 1.95,-2.17947 4.33333,-4.33334 l 4.33333,-3.91612 -3.91612,4.33334 c -3.65037,4.03927 -4.75054,4.9462 -4.75054,3.91612 z m 217.16325,-3.24946 c -1.65849,-2.11474 -1.61133,-2.1619 0.50341,-0.5034 2.221,1.74182 2.92731,2.83674 1.82992,2.83674 -0.27686,0 -1.32686,-1.05 -2.33333,-2.33334 z M 300,116.82993 c 0,-0.27688 1.05,-1.32688 2.33333,-2.33334 2.11475,-1.65849 2.16191,-1.61133 0.50342,0.50341 C 301.09492,117.221 300,117.92731 300,116.82993 Z m 594.49659,-4.4966 c -1.6585,-2.11474 -1.61134,-2.1619 0.50341,-0.5034 2.221,1.74182 2.92731,2.83674 1.82992,2.83674 -0.27687,0 -1.32687,-1.05 -2.33333,-2.33334 z M 540,110.09382 c 0,-0.36666 1.2,-1.30888 2.66667,-2.09382 1.46666,-0.78494 2.66666,-1.12716 2.66666,-0.76049 0,0.36667 -1.2,1.30889 -2.66666,2.09382 C 541.2,110.11827 540,110.46049 540,110.09382 Z M 702.66667,99.333333 c 2.4877,-2.566666 4.8231,-4.666666 5.18977,-4.666666 0.36667,0 -1.36873,2.1 -3.85644,4.666666 C 701.51229,101.9 699.17689,104 698.81023,104 c -0.36667,0 1.36873,-2.1 3.85644,-4.666667 z m 171,-0.652053 c -2.38334,-1.453147 -4.33334,-2.930668 -4.33334,-3.283381 0,-0.352714 2.1,0.597732 4.66667,2.112102 2.56667,1.514371 4.66667,2.994139 4.66667,3.288369 0,0.85296 -0.42146,0.6745 -5,-2.11709 z M 711.33333,92 c 1.32732,-1.466667 2.71331,-2.666667 3.07998,-2.666667 0.36666,0 -0.41932,1.2 -1.74664,2.666667 -1.32732,1.466667 -2.71331,2.666667 -3.07998,2.666667 -0.36666,0 0.41932,-1.2 1.74664,-2.666667 z m -374,-0.572843 c 0,-0.366666 1.2,-1.308888 2.66667,-2.093824 1.46667,-0.784936 2.66667,-1.127157 2.66667,-0.76049 0,0.366666 -1.2,1.308888 -2.66667,2.093824 -1.46667,0.784936 -2.66667,1.127157 -2.66667,0.76049 z m 384,-6.666666 c 0,-0.366667 1.2,-1.308888 2.66667,-2.093824 1.46667,-0.784936 2.66667,-1.127158 2.66667,-0.760491 0,0.366667 -1.2,1.308888 -2.66667,2.093824 -1.46667,0.784936 -2.66667,1.127157 -2.66667,0.760491 z m 117.92151,-6.834046 c -2.48536,-1.991189 -2.46901,-2.015808 0.41183,-0.619754 1.65,0.799589 3,1.732689 3,2.073554 0,1.020294 -0.69148,0.725651 -3.41183,-1.4538 z M 362.66667,76.809319 c 0,-0.288208 0.93116,-0.881336 2.06925,-1.318062 1.18656,-0.455328 1.72176,-0.231798 1.25464,0.524015 -0.78301,1.266939 -3.32389,1.873931 -3.32389,0.794047 z m 379.64444,-4.97477 c 0.90445,-0.911224 1.98032,-1.320894 2.39084,-0.910378 0.41052,0.410516 -0.32948,1.156064 -1.64444,1.656772 -1.90027,0.72358 -2.05342,0.570428 -0.7464,-0.746394 z M 637.08333,68.422515 c 0.9625,-0.385162 2.11251,-0.337792 2.55556,0.105266 0.44306,0.443056 -0.34445,0.758188 -1.75,0.700294 -1.55326,-0.06397 -1.8692,-0.379922 -0.80556,-0.805556 z m 176.25,-3.089182 c -1.1,-0.710874 -1.4,-1.292498 -0.66666,-1.292498 0.73333,0 2.23333,0.581624 3.33333,1.292498 1.1,0.710875 1.4,1.292499 0.66667,1.292499 -0.73334,0 -2.23334,-0.581624 -3.33334,-1.292499 z M 390.66667,62.666667 c 1.1,-0.710875 2.6,-1.292499 3.33333,-1.292499 0.73333,0 0.43333,0.581624 -0.66667,1.292499 -1.1,0.710874 -2.6,1.292498 -3.33333,1.292498 -0.73333,0 -0.43333,-0.581624 0.66667,-1.292498 z m 271.75,-0.910819 c 0.96249,-0.385161 2.1125,-0.337792 2.55556,0.105267 0.44305,0.443056 -0.34446,0.758188 -1.75,0.700293 -1.55327,-0.06397 -1.8692,-0.379921 -0.80556,-0.805556 z m 136.25,-3.089181 c -1.1,-0.710875 -1.4,-1.292499 -0.66667,-1.292499 0.73333,0 2.23333,0.581624 3.33333,1.292499 1.1,0.710874 1.4,1.292498 0.66667,1.292498 -0.73333,0 -2.23333,-0.581624 -3.33333,-1.292498 z M 681,57.783625 c 0.91667,-0.369882 2.41667,-0.369882 3.33333,0 0.91667,0.369884 0.16667,0.672515 -1.66666,0.672515 -1.83334,0 -2.58334,-0.302631 -1.66667,-0.672515 z m 8.08333,-1.36111 c 0.9625,-0.385162 2.11251,-0.337792 2.55556,0.105266 0.44306,0.443056 -0.34445,0.758188 -1.75,0.700294 -1.55326,-0.06397 -1.8692,-0.379922 -0.80556,-0.805556 z m -279.75,-1.755848 c 1.1,-0.710875 2.6,-1.292499 3.33334,-1.292499 0.73333,0 0.43333,0.581624 -0.66667,1.292499 -1.1,0.710874 -2.6,1.292498 -3.33333,1.292498 -0.73334,0 -0.43334,-0.581624 0.66666,-1.292498 z m 287.75,0.422514 c 0.9625,-0.385161 2.11251,-0.337792 2.55556,0.105267 0.44306,0.443056 -0.34445,0.758188 -1.75,0.700293 -1.55326,-0.06397 -1.8692,-0.379921 -0.80556,-0.805556 z m 8.60871,-1.346502 c 1.29729,-0.338058 3.09729,-0.315826 4,0.0494 0.90271,0.36523 -0.15871,0.641824 -2.35871,0.61465 -2.2,-0.02717 -2.93858,-0.325997 -1.64129,-0.664056 z m 10.66667,-1.333334 c 1.29729,-0.338057 3.09729,-0.315825 4,0.0494 0.9027,0.365231 -0.15871,0.641824 -2.35871,0.614651 -2.2,-0.02717 -2.93859,-0.325997 -1.64129,-0.664056 z m 13.30796,-1.328446 c 1.28333,-0.33537 3.38333,-0.33537 4.66666,0 1.28334,0.33537 0.23334,0.609764 -2.33333,0.609764 -2.56667,0 -3.61667,-0.274394 -2.33333,-0.609764 z m 29.66666,-1.69151 c 8.8,-0.427613 16.9,-0.333404 18,0.209354 1.1,0.542758 -6.1,0.892625 -16,0.777481 l -18,-0.209353 z M 726.41667,33.755848 c 0.96249,-0.385161 2.1125,-0.337792 2.55556,0.105267 0.44305,0.443056 -0.34446,0.758188 -1.75,0.700293 -1.55327,-0.06397 -1.8692,-0.379921 -0.80556,-0.805556 z M 715.75,31.089181 c 0.96249,-0.385161 2.11251,-0.337792 2.55556,0.105267 0.44305,0.443056 -0.34445,0.758188 -1.75,0.700293 -1.55327,-0.06397 -1.8692,-0.379921 -0.80556,-0.805556 z M 489.08333,29.755848 c 0.9625,-0.385161 2.11251,-0.337792 2.55556,0.105267 0.44306,0.443056 -0.34445,0.758188 -1.75,0.700293 -1.55326,-0.06397 -1.8692,-0.379921 -0.80556,-0.805556 z M 495.75,28.422515 c 0.96249,-0.385162 2.11251,-0.337792 2.55556,0.105266 0.44305,0.443056 -0.34445,0.758188 -1.75,0.700294 -1.55327,-0.06397 -1.8692,-0.379922 -0.80556,-0.805556 z m 208,0 c 0.96249,-0.385162 2.11251,-0.337792 2.55556,0.105266 0.44305,0.443056 -0.34445,0.758188 -1.75,0.700294 -1.55327,-0.06397 -1.8692,-0.379922 -0.80556,-0.805556 z M 502.41667,27.089181 c 0.96249,-0.385161 2.1125,-0.337792 2.55556,0.105267 0.44305,0.443056 -0.34446,0.758188 -1.75,0.700293 -1.55327,-0.06397 -1.8692,-0.379921 -0.80556,-0.805556 z m 194.66666,0 c 0.9625,-0.385161 2.11251,-0.337792 2.55556,0.105267 0.44306,0.443056 -0.34445,0.758188 -1.75,0.700293 -1.55326,-0.06397 -1.8692,-0.379921 -0.80556,-0.805556 z m -188,-1.333333 c 0.9625,-0.385161 2.11251,-0.337792 2.55556,0.105267 0.44306,0.443056 -0.34445,0.758188 -1.75,0.700293 -1.55326,-0.06397 -1.8692,-0.379921 -0.80556,-0.805556 z M 689,25.783621 c 0.91667,-0.369882 2.41667,-0.369882 3.33333,0 0.91667,0.369884 0.16667,0.672515 -1.66666,0.672515 -1.83334,0 -2.58334,-0.302631 -1.66667,-0.672515 z M 517.08333,24.422515 c 0.9625,-0.385162 2.11251,-0.337792 2.55556,0.105266 0.44306,0.443056 -0.34445,0.758188 -1.75,0.700294 -1.55326,-0.06397 -1.8692,-0.379922 -0.80556,-0.805556 z M 681,24.450288 c 0.91667,-0.369883 2.41667,-0.369883 3.33333,0 0.91667,0.369884 0.16667,0.672515 -1.66666,0.672515 -1.83334,0 -2.58334,-0.302631 -1.66667,-0.672515 z M 525,23.116955 c 0.91667,-0.369883 2.41667,-0.369883 3.33333,0 0.91667,0.369884 0.16667,0.672514 -1.66666,0.672514 -1.83334,0 -2.58334,-0.30263 -1.66667,-0.672514 z m 148,0 c 0.91667,-0.369883 2.41667,-0.369883 3.33333,0 0.91667,0.369884 0.16667,0.672514 -1.66666,0.672514 -1.83334,0 -2.58334,-0.30263 -1.66667,-0.672514 z M 534.33333,21.783621 c 0.91667,-0.369882 2.41667,-0.369882 3.33334,0 0.91666,0.369884 0.16666,0.672515 -1.66667,0.672515 -1.83333,0 -2.58333,-0.302631 -1.66667,-0.672515 z m 128.69204,-0.04095 c 1.2973,-0.338058 3.0973,-0.315826 4,0.0494 0.90271,0.36523 -0.1587,0.641824 -2.3587,0.61465 -2.2,-0.02717 -2.93859,-0.325997 -1.6413,-0.664056 z m -116,-1.333334 c 1.2973,-0.338057 3.0973,-0.315825 4,0.0494 0.90271,0.365231 -0.1587,0.641824 -2.3587,0.614651 -2.2,-0.02717 -2.93859,-0.325997 -1.6413,-0.664056 z m 102.6413,0.0049 c 1.28333,-0.33537 3.38333,-0.33537 4.66666,0 1.28334,0.33537 0.23334,0.609764 -2.33333,0.609764 -2.56667,0 -3.61667,-0.274394 -2.33333,-0.609764 z m -88,-1.333334 c 1.28333,-0.335369 3.38333,-0.335369 4.66666,0 1.28334,0.335371 0.23334,0.609764 -2.33333,0.609764 -2.56667,0 -3.61667,-0.274393 -2.33333,-0.609764 z m 72.68221,-0.02392 c 1.65855,-0.318924 4.05855,-0.306816 5.33333,0.02691 1.27479,0.333723 -0.0823,0.594661 -3.01554,0.579863 -2.93334,-0.0148 -3.97634,-0.287847 -2.31779,-0.606771 z m -44.68221,-1.381432 c 5.68333,-0.249934 14.98333,-0.249934 20.66666,0 5.68334,0.249935 1.03334,0.454427 -10.33333,0.454427 -11.36667,0 -16.01667,-0.204492 -10.33333,-0.454427 z" class="coloraaa svgShape"></path><path fill="#b2b6c1" d="m 264,1180.4402 c -1.83333,-0.2914 -6.93333,-1.7934 -11.33333,-3.3377 -28.06924,-9.8515 -45.47518,-38.0802 -40.75906,-66.1025 5.31594,-31.5863 35.34639,-54.6508 67.39664,-51.7631 11.49574,1.0357 13.6838,2.7783 4.94434,3.9376 -15.50835,2.0573 -33.06603,15.313 -40.9138,30.8892 -3.60575,7.1567 -3.99834,9.1806 -3.99632,20.603 0.003,14.0956 2.10529,19.9053 10.09742,27.8974 20.0474,20.0474 53.96423,8.7005 56.82427,-19.0106 1.5608,-15.1228 -5.31279,-27.1703 -18.8444,-33.0291 -4.95856,-2.1469 -7.37769,-3.9686 -7.393,-5.5672 -0.0696,-7.2734 9.48292,-18.9313 16.68056,-20.3568 3.13852,-0.6217 5.62825,0.2971 11.96335,4.4145 26.98146,17.5364 35.96589,48.6484 22.38097,77.5027 -4.27075,9.0711 -16.99057,22.0525 -26.67379,27.2224 -10.97629,5.8602 -27.94484,8.6763 -40.37385,6.7002 z m 139.33333,-0.9166 c -11.18953,-2.9424 -19.64213,-7.7168 -27.51917,-15.5438 -23.89187,-23.7403 -24.56125,-60.3952 -1.55831,-85.3312 17.30514,-18.7595 44.98312,-23.696 67.56351,-12.0504 4.33869,2.2377 8.40427,4.0685 9.03459,4.0685 0.63033,0 1.14605,-12.9 1.14605,-28.6667 v -28.6667 h 14.67676 14.67676 l -0.34343,83 -0.34342,83 -14.33334,0.2447 L 452,1179.8228 v -4.3559 c 0,-6.054 -0.91596,-6.4464 -6.47844,-2.775 -10.94039,7.221 -29.36321,10.2043 -42.18823,6.8317 z m 31.49004,-29.9139 c 24.00912,-12.5425 24.00912,-45.3435 0,-57.886 C 413.3186,1080.4894 388,1095.9439 388,1120.3046 c 0,25.256 24.82856,40.7953 46.82337,29.3051 z m 114.94406,30.3309 c -21.19458,-4.1907 -40.90318,-24.2187 -45.60042,-46.3396 -6.69452,-31.5266 12.53807,-63.6392 42.96658,-71.7411 13.55369,-3.6088 31.58209,-1.0575 43.23197,6.1179 6.00497,3.6986 6.96777,3.4157 6.96777,-2.0479 v -4.7367 l 14.33334,0.5887 14.33333,0.5886 v 58.4814 58.4814 l -14.33333,0.3349 -14.33334,0.3349 v -4.6682 c 0,-2.5676 -0.37637,-4.6682 -0.83638,-4.6682 -0.46,0 -4.51,1.7968 -9,3.9929 -12.51524,6.1214 -24.7899,7.8395 -37.72952,5.281 z m 30.09266,-30.562 c 5.62887,-2.9022 12.32896,-9.697 15.20967,-15.4247 7.32933,-14.5728 1.46337,-32.8259 -13.34688,-41.5314 -5.48887,-3.2264 -7.81391,-3.7558 -16.49411,-3.7558 -8.92026,0 -10.86953,0.4729 -16.63141,4.0352 -9.20291,5.6897 -14.32763,14.3802 -15.03551,25.4971 -1.04469,16.4067 7.02244,28.1372 22.89115,33.2862 6.76988,2.1967 16.81407,1.2927 23.40709,-2.1066 z M 767.33333,1180 c -2.2,-0.5598 -3.0132,-1.0888 -1.80712,-1.1756 6.05444,-0.4355 20.44174,-6.1178 27.6098,-10.9044 14.2679,-9.5277 22.96512,-25.0419 23.14194,-41.2808 0.16458,-15.1162 -4.97794,-25.4628 -16.59606,-33.391 -5.3216,-3.6314 -7.85504,-4.412 -16.01949,-4.936 -11.88151,-0.7625 -19.91807,2.4472 -27.08144,10.816 -14.957,17.4739 -7.88328,45.4684 13.08571,51.7872 3.95044,1.1904 5,2.1711 5,4.6718 0,7.4025 -5.60758,15.2961 -13.92315,19.599 -3.72581,1.928 -4.31084,1.8235 -11.63093,-2.0781 -19.98439,-10.6516 -33.82594,-36.5196 -31.12182,-58.1627 1.9393,-15.5215 7.94647,-27.5389 18.84783,-37.7053 13.02499,-12.1468 26.00332,-17.2401 43.92963,-17.2401 33.39844,0 60.1416,23.8334 62.83509,55.9983 2.95707,35.3127 -26.40912,65.7169 -62.93665,65.1615 -5.13334,-0.078 -11.13334,-0.6 -13.33334,-1.1598 z m 274.84547,-0.7819 c -17.9794,-4.3519 -33.3311,-16.8362 -41.2435,-33.5401 -4.06781,-8.5874 -4.26863,-9.7671 -4.26863,-25.076 0,-15.8773 0.0584,-16.1827 5.00343,-26.1928 13.3657,-27.0558 44.6885,-40.595 73.3998,-31.7269 21.9615,6.7832 37.29,25.6331 41.2752,50.757 0.7653,4.8249 0.9893,10.3749 0.4978,12.3333 l -0.8937,3.5607 h -44.7472 -44.7472 l 0.8945,4.3334 c 1.3259,6.423 6.6241,13.8367 12.8175,17.9353 11.2221,7.4264 29.9141,5.3063 38.397,-4.3552 l 4.0214,-4.5801 h 15.3741 c 8.4557,0 15.3684,0.45 15.3615,1 -0.01,0.55 -1.8629,4.2268 -4.1244,8.1707 -8.3451,14.5527 -23.2888,24.918 -40.4413,28.0509 -10.1483,1.8536 -16.8473,1.6846 -26.5763,-0.6702 z m 42.2128,-72.0541 c 1.2125,-1.2126 -2.6941,-9.9263 -6.1219,-13.655 -9.8543,-10.7193 -31.663,-10.943 -42.7221,-0.4383 -4.1983,3.9879 -7.5476,9.696 -7.5476,12.8631 0,1.7999 3.5797,2.0662 27.7778,2.0662 15.2778,0 28.154,-0.3762 28.6138,-0.836 z m -960.95688,63.6413 c -1.82394,-4.8429 -8.79325,-23.8053 -15.48735,-42.1386 -6.69409,-18.3334 -14.820747,-40.4374 -18.059226,-49.1201 -3.23848,-8.6827 -5.888144,-16.3327 -5.888144,-17 0,-0.6673 7.403735,-1.2133 16.45274,-1.2133 h 16.45275 L 124.59187,1083 c 4.22751,11.9167 10.70341,30.257 14.39089,40.7564 3.68748,10.4993 7.15787,18.5993 7.71197,18 0.55411,-0.5994 7.16078,-18.9397 14.6815,-40.7564 l 13.67404,-39.6667 h 15.8082 c 12.6591,0 15.8082,0.3718 15.8082,1.8662 0,1.0264 -2.01862,7.1764 -4.48582,13.6667 -2.46721,6.4903 -11.86328,31.9005 -20.88016,56.4671 -9.01688,24.5667 -16.64837,44.9667 -16.95886,45.3334 -0.3105,0.3666 -8.89546,0.729 -19.0777,0.8052 l -18.51315,0.1386 z m 540.89861,8.102 -3,-0.4261 V 1133.2406 1088 h -6.71494 -6.71495 l 0.38161,-12.9011 0.38162,-12.9011 6,-0.099 6,-0.099 0.81513,-13.3334 c 1.65475,-27.067 10.12916,-35.7339 36.77907,-37.6147 l 11.07246,-0.7813 V 1023.1353 1036 h -3.9132 c -10.30689,0 -15.21804,6.4804 -14.48584,19.1144 L 691.33333,1062 H 700 h 8.66667 l 0.38086,12.938 0.38087,12.938 -9.04753,0.3953 -9.04754,0.3954 -0.35106,45 c -0.27012,34.623 -0.73132,45.0142 -2,45.0617 -11.95496,0.4476 -22.23139,0.5222 -24.64894,0.1789 z m 208.66667,0.048 -7.66667,-0.4213 v -57.9335 -57.9334 l 3,-0.1709 c 3.52044,-0.2006 20.65327,-0.1811 23.91951,0.027 1.56588,0.1 2.37904,1.5521 2.66667,4.7628 l 0.41382,4.6191 5.92266,-3.9896 c 8.987,-6.0539 18.4817,-8.324 31.9463,-7.6383 13.12467,0.6684 21.68576,4.211 29.81024,12.3355 9.24306,9.243 9.65414,11.8739 9.65414,61.7865 v 44.3991 l -9.33334,0.5418 c -5.13333,0.2981 -11.88333,0.2004 -15,-0.2171 l -5.66666,-0.759 v -37.9148 c 0,-41.0898 -0.23842,-42.63 -7.48076,-48.3268 -11.52267,-9.0637 -30.31484,-4.8769 -37.56714,8.3699 -1.95285,3.567 -2.38245,9.6038 -2.9521,41.4828 L 894,1179.2832 l -6.66667,0.046 c -3.66666,0.026 -10.11666,-0.1431 -14.33333,-0.3748 z M 577.33333,970.48336 C 491.25797,967.34788 404.38101,940.20017 330.5386,893.36383 218.22277,822.12476 139.18443,706.85691 115.95448,580.41888 108.88649,541.94863 106.24425,494.57725 109.20068,459.33333 120.65975,322.72832 188.58405,200.85547 299.54931,117.80122 409.56944,35.454376 550.37931,2.1959732 688,26.051609 c 21.63375,3.750066 52.76512,11.537531 72.75173,18.198735 L 774,48.665765 755.33333,49.504575 C 683.63899,52.726249 621.65144,68.450076 561.13857,98.764236 478.35216,140.2364 411.54868,206.18853 370.61589,286.85884 321.48264,383.69065 315.18599,493.37859 353.67327,582 c 40.16901,92.49376 128.41337,155.84285 225.5315,161.90513 114.03727,7.11839 218.29762,-62.67165 254.03758,-170.04828 10.93553,-32.85456 14.99228,-65.62556 12.31998,-99.52265 C 840.71184,412.80751 820.63032,364.62611 783.72756,325.97464 749.88976,290.53336 708.76452,267.51364 654,253.36004 l -14.66667,-3.79053 -0.42582,-7.78475 c -0.85735,-15.67375 3.59697,-41.61064 10.71822,-62.41067 4.38214,-12.79948 16.06718,-35.0618 24.91284,-47.46387 25.59156,-35.880705 63.88818,-62.597243 106.75896,-74.477344 l 9.16096,-2.538632 18.78814,8.446125 c 96.94501,43.581251 177.94452,118.811261 228.25097,211.992961 65.6276,121.56058 73.2429,268.50127 20.5167,395.87443 C 1021.4929,759.43393 957.19131,836.60649 876,889.65487 c -67.22105,43.92054 -144.72047,71.13557 -224.66667,78.89492 -26.43844,2.56602 -44.02381,3.02553 -74,1.93357 z" class="color6e6e6e svgShape"></path></g></svg></g></svg>