<?xml version="1.0" encoding="UTF-8" standalone="no"?>
<!-- Created with Inkscape (http://www.inkscape.org/) -->

<svg
   width="360.97104mm"
   height="120.70291mm"
   viewBox="0 0 360.97104 120.70291"
   version="1.1"
   id="svg394"
   inkscape:version="1.2.2 (732a01da63, 2022-12-09)"
   sodipodi:docname="logo-inverse-new.svg"
   xmlns:inkscape="http://www.inkscape.org/namespaces/inkscape"
   xmlns:sodipodi="http://sodipodi.sourceforge.net/DTD/sodipodi-0.dtd"
   xmlns="http://www.w3.org/2000/svg"
   xmlns:svg="http://www.w3.org/2000/svg">
  <sodipodi:namedview
     id="namedview396"
     pagecolor="#ffffff"
     bordercolor="#000000"
     borderopacity="0.25"
     inkscape:showpageshadow="2"
     inkscape:pageopacity="0.0"
     inkscape:pagecheckerboard="0"
     inkscape:deskcolor="#d1d1d1"
     inkscape:document-units="mm"
     showgrid="false"
     inkscape:zoom="0.71624579"
     inkscape:cx="615.01234"
     inkscape:cy="233.85827"
     inkscape:window-width="1920"
     inkscape:window-height="991"
     inkscape:window-x="-9"
     inkscape:window-y="-9"
     inkscape:window-maximized="1"
     inkscape:current-layer="layer1" />
  <defs
     id="defs391" />
  <g
     inkscape:label="Capa 1"
     inkscape:groupmode="layer"
     id="layer1"
     transform="translate(57.474324,-86.67093)">
    <g
       id="g281"
       transform="matrix(0.26458333,0,0,0.26458333,-92.346407,70.901764)">
		<path
   class="st0"
   d="m 1442,141.3 v 8.5 h -12.2 V 182 h -10.4 v -32.2 h -12.2 v -8.5 z m 43.9,40.7 -1.2,-20.6 c 0,-3.9 0,-8.5 -0.1,-13.9 h -0.6 c -1,4.6 -2.4,10 -3.4,14.2 l -5.7,19.5 h -10.1 l -5.2,-19.8 c -0.7,-3.6 -1.8,-9.2 -2.8,-13.9 h -0.6 c 0,4.8 -0.1,9.5 -0.3,13.9 l -1.2,20.6 h -9.8 l 2.7,-40.7 h 15.9 l 4.6,14.5 c 0.9,3 1.5,6.1 2.5,11.8 h 0.3 c 0.9,-4.3 1.8,-8.2 2.7,-11.8 l 4.9,-14.5 h 15.1 l 2.5,40.7 z"
   id="path279"
   style="fill:#ffffff" />

	</g>
    <g
       id="g295"
       transform="matrix(0.26458333,0,0,0.26458333,-92.346407,70.901764)">
		<path
   class="st0"
   d="m 131.8,98.7 c 0,-21.4 17.7,-39.1 39.1,-39.1 21.4,0 39.1,17.7 39.1,39.1 0,21.9 -17.7,39.1 -39.1,39.1 -21.4,0 -39.1,-17.3 -39.1,-39.1 z m 2.3,70.3 h 73.6 v 232.8 h -73.6 z"
   id="path283"
   style="fill:#ffffff" />

		<path
   class="st0"
   d="m 496.8,285.4 c 0,66.1 -53.5,120.1 -120.1,120.1 -18.6,0 -36.3,-4.2 -52.1,-12.1 V 515.8 H 251 V 169 h 73.6 v 8.4 c 15.8,-7.9 33.5,-12.1 52.1,-12.1 66.5,-0.1 120.1,53.9 120.1,120.1 z m -75.9,0 c 0,-30.7 -18.6,-51.2 -46.6,-51.2 -27.9,0 -46.6,20.5 -46.6,51.2 0,30.7 18.6,51.2 46.6,51.2 28,0 46.6,-20.5 46.6,-51.2 z"
   id="path285"
   style="fill:#ffffff" />

		<path
   class="st0"
   d="m 519.1,285.4 c 0,-66.1 53.5,-120.1 120.1,-120.1 45.2,0 84.7,25.1 105.2,62.9 l -66.1,32.1 c -10.2,-15.8 -25.6,-26.1 -39.1,-26.1 -27.9,0 -46.6,20.5 -46.6,51.2 0,30.7 18.6,51.2 46.6,51.2 13.5,0 28.9,-10.2 39.1,-26.1 l 66.1,32.1 c -20.5,37.7 -60.1,62.8 -105.2,62.8 -66.6,0.1 -120.1,-53.9 -120.1,-120 z"
   id="path287"
   style="fill:#ffffff" />

		<path
   class="st0"
   d="m 761.6,285.4 c 0,-66.1 54,-120.1 120.1,-120.1 66.6,0 120.1,54 120.1,120.1 0,66.1 -53.5,120.1 -120.1,120.1 -66.1,0 -120.1,-54 -120.1,-120.1 z m 169.5,0 c 0,-30.7 -18.6,-51.2 -46.6,-51.2 -27.9,0 -46.6,20.5 -46.6,51.2 0,30.7 18.6,51.2 46.6,51.2 27.9,0 46.6,-20.5 46.6,-51.2 z"
   id="path289"
   style="fill:#ffffff" />

		<path
   class="st0"
   d="m 1185.2,169 -19.6,77.7 c -9.8,-8.4 -19.6,-14 -24.7,-14 -23.3,0 -38.6,18.2 -38.6,45.2 v 123.8 h -73.6 V 169 h 73.6 v 19 c 15.8,-14.4 36.3,-22.8 56.8,-22.8 9.4,0 18.2,1.4 26.1,3.8 z"
   id="path291"
   style="fill:#ffffff" />

		<path
   class="st0"
   d="m 1340.4,321.7 c -9.7,9.8 -21.1,14.6 -34.9,14.6 -23.4,0 -41.8,-15.3 -46.7,-29.6 l 164.6,-0.2 0.5,-4.5 c 0.8,-6.9 1.3,-14.6 1.5,-23.6 0,-31.7 -12.3,-59.4 -36.4,-82.4 -23.6,-22.4 -51.8,-33.8 -83.8,-33.8 -32.9,0 -61.5,11.9 -84.8,35.3 -23.4,23.4 -35.2,52 -35.2,84.9 0,33.1 11.9,61.6 35.4,84.7 8.2,8 17.5,14.9 27.7,20.5 3.3,1.8 6.8,3.5 10.3,5 14.4,6.2 31.8,9.4 51.7,9.4 h 0.1 c 20.6,0 40.9,-6.5 60.5,-19.1 19.6,-12.7 34.4,-30.2 44.1,-52 l 3.4,-7.6 0.6,-1.3 h -78.6 z m -35.3,-98.5 c 33,0 45.1,23.1 46.7,31 l -93,0.1 c 3.9,-15 16.1,-31.1 46.3,-31.1 z"
   id="path293"
   style="fill:#ffffff" />

	</g>
  </g>
</svg>
