<?xml version="1.0" encoding="utf-8"?>
<!-- Generator: Adobe Illustrator 24.0.2, SVG Export Plug-In . SVG Version: 6.00 Build 0)  -->
<svg version="1.1" id="Capa_1" xmlns="http://www.w3.org/2000/svg" xmlns:xlink="http://www.w3.org/1999/xlink" x="0px" y="0px"
	 viewBox="0 0 1626.9 574.4" style="enable-background:new 0 0 1626.9 574.4;" xml:space="preserve">
<style type="text/css">
	.st0{fill:#1A1A1A;}
</style>
<g>
	<g>
		<path class="st0" d="M1442,141.3v8.5h-12.2V182h-10.4v-32.2h-12.2v-8.5H1442z M1485.9,182l-1.2-20.6c0-3.9,0-8.5-0.1-13.9h-0.6
			c-1,4.6-2.4,10-3.4,14.2l-5.7,19.5h-10.1l-5.2-19.8c-0.7-3.6-1.8-9.2-2.8-13.9h-0.6c0,4.8-0.1,9.5-0.3,13.9l-1.2,20.6h-9.8
			l2.7-40.7h15.9l4.6,14.5c0.9,3,1.5,6.1,2.5,11.8h0.3c0.9-4.3,1.8-8.2,2.7-11.8l4.9-14.5h15.1l2.5,40.7H1485.9z"/>
	</g>
	<g>
		<path class="st0" d="M131.8,98.7c0-21.4,17.7-39.1,39.1-39.1S210,77.3,210,98.7c0,21.9-17.7,39.1-39.1,39.1
			S131.8,120.5,131.8,98.7z M134.1,169h73.6v232.8h-73.6V169z"/>
		<path class="st0" d="M496.8,285.4c0,66.1-53.5,120.1-120.1,120.1c-18.6,0-36.3-4.2-52.1-12.1v122.4H251V169h73.6v8.4
			c15.8-7.9,33.5-12.1,52.1-12.1C443.2,165.2,496.8,219.2,496.8,285.4z M420.9,285.4c0-30.7-18.6-51.2-46.6-51.2
			c-27.9,0-46.6,20.5-46.6,51.2c0,30.7,18.6,51.2,46.6,51.2C402.3,336.6,420.9,316.1,420.9,285.4z"/>
		<path class="st0" d="M519.1,285.4c0-66.1,53.5-120.1,120.1-120.1c45.2,0,84.7,25.1,105.2,62.9l-66.1,32.1
			c-10.2-15.8-25.6-26.1-39.1-26.1c-27.9,0-46.6,20.5-46.6,51.2c0,30.7,18.6,51.2,46.6,51.2c13.5,0,28.9-10.2,39.1-26.1l66.1,32.1
			c-20.5,37.7-60.1,62.8-105.2,62.8C572.6,405.5,519.1,351.5,519.1,285.4z"/>
		<path class="st0" d="M761.6,285.4c0-66.1,54-120.1,120.1-120.1c66.6,0,120.1,54,120.1,120.1c0,66.1-53.5,120.1-120.1,120.1
			C815.6,405.5,761.6,351.5,761.6,285.4z M931.1,285.4c0-30.7-18.6-51.2-46.6-51.2c-27.9,0-46.6,20.5-46.6,51.2
			c0,30.7,18.6,51.2,46.6,51.2C912.4,336.6,931.1,316.1,931.1,285.4z"/>
		<path class="st0" d="M1185.2,169l-19.6,77.7c-9.8-8.4-19.6-14-24.7-14c-23.3,0-38.6,18.2-38.6,45.2v123.8h-73.6V169h73.6V188
			c15.8-14.4,36.3-22.8,56.8-22.8C1168.5,165.2,1177.3,166.6,1185.2,169z"/>
		<path class="st0" d="M1340.4,321.7c-9.7,9.8-21.1,14.6-34.9,14.6c-23.4,0-41.8-15.3-46.7-29.6l164.6-0.2l0.5-4.5
			c0.8-6.9,1.3-14.6,1.5-23.6c0-31.7-12.3-59.4-36.4-82.4c-23.6-22.4-51.8-33.8-83.8-33.8c-32.9,0-61.5,11.9-84.8,35.3
			c-23.4,23.4-35.2,52-35.2,84.9c0,33.1,11.9,61.6,35.4,84.7c8.2,8,17.5,14.9,27.7,20.5c3.3,1.8,6.8,3.5,10.3,5
			c14.4,6.2,31.8,9.4,51.7,9.4h0.1c20.6,0,40.9-6.5,60.5-19.1c19.6-12.7,34.4-30.2,44.1-52l3.4-7.6l0.6-1.3H1340.4z M1305.1,223.2
			c33,0,45.1,23.1,46.7,31l-93,0.1C1262.7,239.3,1274.9,223.2,1305.1,223.2z"/>
	</g>
</g>
</svg>
