<svg xmlns="http://www.w3.org/2000/svg" viewBox="0 0 436.51 331.99"><defs><style>.cls-1{fill:#ff1c0b;}</style></defs><title>Recurso 12</title><g id="Capa_2" data-name="Capa 2"><g id="Capa_1-2" data-name="Capa 1"><path class="cls-1" d="M0,161.7a8.83,8.83,0,0,0,.79-1.44c3.46-10.36,10.66-15.85,21.54-16,8.94-.17,201.54-.05,288.89,0,12,0,20.17,5.49,23.25,15.5a21.58,21.58,0,0,1-17.73,27.73c-2.52.32-195.42.23-289.3.5-13.56,0-23.11-4.3-27.44-17.68Z"/><path class="cls-1" d="M0,25.29C2.88,16.1,8.34,9.58,18.27,7.78a28.85,28.85,0,0,1,5.09-.35q144.45,0,288.9,0c16.21,0,26.91,14.07,22,28.68a21.52,21.52,0,0,1-19.85,14.81c-1.84.07-193-.11-286.77.22C14.1,51.19,4.61,47,0,33.81Z"/><path class="cls-1" d="M0,298.11c.56-1.26,1.12-2.52,1.69-3.77,3.78-8.2,10.09-12.77,19.17-13.34,1.13-.07,2.27,0,3.41,0q143.39,0,286.77,0c6,0,11.58,1,16.34,4.87a21.8,21.8,0,0,1-12.56,38.66c-1.84.11-193.88.07-288,.07C11.22,324.51,5.9,321,0,306.64Z"/><path class="cls-1" d="M436.51,303A29.4,29.4,0,0,1,407,332c-16.13-.24-29.25-13.62-29-29.56a29.26,29.26,0,1,1,58.51.56Z"/><path class="cls-1" d="M436.51,29.33A29.26,29.26,0,1,1,378,29.25a29.26,29.26,0,1,1,58.52.08Z"/><path class="cls-1" d="M407.28,195.16A29.15,29.15,0,1,1,436.51,166,29.19,29.19,0,0,1,407.28,195.16Z"/></g></g></svg>