<svg xmlns="http://www.w3.org/2000/svg" viewBox="0 0 35.97 35.98"><defs><style>.cls-1{fill:#fff;}</style></defs><title>Recurso 17</title><g id="Capa_2" data-name="Capa 2"><g id="Capa_1-2" data-name="Capa 1"><path class="cls-1" d="M19.11,36H16.86l-.3-.06c-.74-.1-1.49-.16-2.22-.31A18,18,0,0,1,.13,15.91a17.48,17.48,0,0,1,6.7-12,17.46,17.46,0,0,1,14-3.67,17.23,17.23,0,0,1,9.05,4.31A17.7,17.7,0,0,1,35.7,14.89c.11.66.18,1.32.27,2v2.25a1.28,1.28,0,0,0,0,.27,17.32,17.32,0,0,1-2.46,7.75,17.83,17.83,0,0,1-12.38,8.57C20.43,35.83,19.77,35.89,19.11,36ZM15.2,18.62V29h4.34V18.61h2.92l.38-3.67H19.55c0-.82,0-1.6,0-2.38,0-.51.36-.77.9-.79h2.29V8.21c-1.27,0-2.51-.07-3.74,0a3.76,3.76,0,0,0-3.73,3.48,26.21,26.21,0,0,0-.09,2.81V15h-2v3.67Z"/></g></g></svg>