<svg xmlns="http://www.w3.org/2000/svg" viewBox="0 0 35.94 35.98"><defs><style>.cls-1{fill:#fff;}</style></defs><title>Recurso 16</title><g id="Capa_2" data-name="Capa 2"><g id="Capa_1-2" data-name="Capa 1"><path class="cls-1" d="M19.12,36H16.87l-1.32-.16A17.62,17.62,0,0,1,6.66,32,17.7,17.7,0,0,1,.28,21.13c-.12-.67-.19-1.34-.28-2V16.87c.11-.79.2-1.58.35-2.36A18,18,0,0,1,16.22.09,17.09,17.09,0,0,1,27,2.45c6.44,4,9.43,9.8,8.87,17.35A16.77,16.77,0,0,1,32,29.32,17.66,17.66,0,0,1,21.13,35.7C20.46,35.83,19.79,35.89,19.12,36Zm9.42-8.79c0-.14,0-.24,0-.34,0-2.38,0-4.76,0-7.13,0-.5,0-1-.1-1.51a4.69,4.69,0,0,0-4.33-4.46,4.36,4.36,0,0,0-4.36,1.84c0,.06-.09.11-.21.25V14H15.21V27.18h4.36v-5.7c0-.7,0-1.39,0-2.08a2.28,2.28,0,0,1,1.07-1.84A2.11,2.11,0,0,1,24,18.71a5.63,5.63,0,0,1,.19,1.53c0,2.18,0,4.37,0,6.56v.39ZM8.4,14V27.18h4.37V14.94c0-.2,0-.4,0-.6s-.08-.34-.34-.33h-4Zm2-6.35A2.3,2.3,0,0,0,8.36,8.92,2.24,2.24,0,0,0,9.51,12a2.55,2.55,0,0,0,3.42-1.33C13.45,9.13,12.34,7.67,10.45,7.66Z"/></g></g></svg>