<svg xmlns="http://www.w3.org/2000/svg" viewBox="0 0 35.97 35.98"><defs><style>.cls-1{fill:#fff;}</style></defs><title>Recurso 15</title><g id="Capa_2" data-name="Capa 2"><g id="Capa_1-2" data-name="Capa 1"><path class="cls-1" d="M19.1,36H16.85l-.69-.08a17.5,17.5,0,0,1-10-4.34A17.59,17.59,0,0,1,.08,16.18,17.1,17.1,0,0,1,4.49,6.09,17.61,17.61,0,0,1,17.67,0,17,17,0,0,1,27.2,2.55a17.74,17.74,0,0,1,8.49,12.34c.12.65.18,1.32.28,2v2.24c0,.24-.07.47-.09.7a17.75,17.75,0,0,1-4,9.52,17.7,17.7,0,0,1-10.82,6.38C20.44,35.83,19.77,35.89,19.1,36ZM18,15A11.82,11.82,0,0,1,9.5,10.69a4.26,4.26,0,0,0,1.2,5.51l-.06.07-1.71-.49a4.1,4.1,0,0,0,.89,2.53,4.18,4.18,0,0,0,2.27,1.47v.1H10.37a4.27,4.27,0,0,0,3.84,2.89,8.49,8.49,0,0,1-6,1.7l.39.25a11.44,11.44,0,0,0,10.7.59c4.49-2,6.66-5.74,6.92-10.6a1.29,1.29,0,0,1,.52-1.11A6.21,6.21,0,0,0,28.18,12l-2.12.57,0-.1a4.12,4.12,0,0,0,1.62-2.07c-.76.27-1.52.53-2.27.81a.45.45,0,0,1-.52-.14,4.13,4.13,0,0,0-6.66,1.58A4.29,4.29,0,0,0,18,15Z"/></g></g></svg>