<?xml version="1.0" encoding="UTF-8" standalone="no"?>
<!-- Created with Inkscape (http://www.inkscape.org/) -->

<svg
   width="63.900051mm"
   height="21.367279mm"
   viewBox="0 0 63.900051 21.367279"
   version="1.1"
   id="svg221"
   inkscape:version="1.2.2 (732a01da63, 2022-12-09)"
   sodipodi:docname="ipcore_new.svg"
   xmlns:inkscape="http://www.inkscape.org/namespaces/inkscape"
   xmlns:sodipodi="http://sodipodi.sourceforge.net/DTD/sodipodi-0.dtd"
   xmlns="http://www.w3.org/2000/svg"
   xmlns:svg="http://www.w3.org/2000/svg">
  <sodipodi:namedview
     id="namedview223"
     pagecolor="#ffffff"
     bordercolor="#000000"
     borderopacity="0.25"
     inkscape:showpageshadow="2"
     inkscape:pageopacity="0.0"
     inkscape:pagecheckerboard="0"
     inkscape:deskcolor="#d1d1d1"
     inkscape:document-units="mm"
     showgrid="false"
     inkscape:zoom="0.71624579"
     inkscape:cx="84.46821"
     inkscape:cy="-49.563991"
     inkscape:window-width="1920"
     inkscape:window-height="991"
     inkscape:window-x="-9"
     inkscape:window-y="-9"
     inkscape:window-maximized="1"
     inkscape:current-layer="layer1" />
  <defs
     id="defs218" />
  <g
     inkscape:label="Capa 1"
     inkscape:groupmode="layer"
     id="layer1"
     transform="translate(-82.564698,-161.82755)">
    <path
       fill="#1a1a1a"
       d="m 143.93124,165.65417 v 0.39812 h -0.57142 v 1.50817 h -0.48711 v -1.50817 h -0.57141 v -0.39812 z m 2.05617,1.90629 -0.0562,-0.96485 c 0,-0.18267 0,-0.39812 -0.005,-0.65104 h -0.0281 c -0.0468,0.21545 -0.11241,0.46837 -0.15925,0.66509 l -0.26697,0.91333 h -0.47306 l -0.24356,-0.92738 c -0.0328,-0.16862 -0.0843,-0.43091 -0.13114,-0.65104 h -0.0281 c 0,0.22482 -0.005,0.44495 -0.0141,0.65104 l -0.0562,0.96485 h -0.45901 l 0.12646,-1.90629 h 0.74472 l 0.21545,0.67915 c 0.0422,0.14051 0.0703,0.28571 0.1171,0.55268 h 0.014 c 0.0421,-0.2014 0.0843,-0.38407 0.12646,-0.55268 l 0.2295,-0.67915 h 0.70725 l 0.11709,1.90629 z M 82.564698,163.6589 c 0,-1.00233 0.829024,-1.83135 1.831348,-1.83135 1.002323,0 1.831347,0.82902 1.831347,1.83135 0,1.02574 -0.829024,1.83134 -1.831347,1.83134 -1.002324,0 -1.831348,-0.81029 -1.831348,-1.83134 z m 0.107726,3.29267 h 3.447243 v 10.90378 h -3.447243 z m 16.987976,5.45189 c 0,3.09597 -2.505809,5.62519 -5.625189,5.62519 -0.871178,0 -1.700202,-0.19672 -2.440236,-0.56673 v 5.73291 h -3.447242 v -16.24326 h 3.447242 v 0.39344 c 0.740034,-0.37002 1.569058,-0.56673 2.440236,-0.56673 3.114697,-0.005 5.625189,2.52454 5.625189,5.62518 z m -3.554969,0 c 0,-1.43791 -0.871179,-2.39808 -2.18263,-2.39808 -1.306767,0 -2.182629,0.96017 -2.182629,2.39808 0,1.43792 0.871178,2.39809 2.182629,2.39809 1.311451,0 2.18263,-0.96017 2.18263,-2.39809 z m 4.599449,0 c 0,-3.09596 2.50581,-5.62518 5.62519,-5.62518 2.11705,0 3.96714,1.17562 4.9273,2.94608 l -3.09596,1.50348 c -0.47774,-0.74003 -1.19904,-1.22246 -1.83134,-1.22246 -1.30677,0 -2.18263,0.96017 -2.18263,2.39808 0,1.43792 0.87117,2.39809 2.18263,2.39809 0.6323,0 1.3536,-0.47775 1.83134,-1.22246 l 3.09596,1.50348 c -0.96016,1.76578 -2.81493,2.9414 -4.9273,2.9414 -3.11938,0.005 -5.62519,-2.52454 -5.62519,-5.62051 z m 11.3581,0 c 0,-3.09596 2.52923,-5.62518 5.62519,-5.62518 3.11938,0 5.62519,2.52922 5.62519,5.62518 0,3.09597 -2.50581,5.62519 -5.62519,5.62519 -3.09596,0 -5.62519,-2.52922 -5.62519,-5.62519 z m 7.93896,0 c 0,-1.43791 -0.87117,-2.39808 -2.18263,-2.39808 -1.30676,0 -2.18263,0.96017 -2.18263,2.39808 0,1.43792 0.87118,2.39809 2.18263,2.39809 1.30677,0 2.18263,-0.96017 2.18263,-2.39809 z m 11.90142,-5.45189 -0.91801,3.63928 c -0.45901,-0.39343 -0.91802,-0.65572 -1.15689,-0.65572 -1.09132,0 -1.80793,0.85244 -1.80793,2.11705 v 5.79849 h -3.44724 v -10.8991 h 3.44724 v 0.88992 c 0.74003,-0.67446 1.7002,-1.0679 2.66037,-1.0679 0.44028,0 0.85245,0.0656 1.22246,0.17798 z m 7.26919,7.1521 c -0.45433,0.459 -0.98827,0.68382 -1.63463,0.68382 -1.096,0 -1.95781,-0.71661 -2.18731,-1.38639 l 7.70945,-0.009 0.0234,-0.21077 c 0.0375,-0.32318 0.0609,-0.68383 0.0703,-1.10537 0,-1.48475 -0.5761,-2.78215 -1.70489,-3.85941 -1.10536,-1.04916 -2.42618,-1.58311 -3.92498,-1.58311 -1.54096,0 -2.88051,0.55737 -3.97183,1.65336 -1.09599,1.096 -1.64868,2.43556 -1.64868,3.97651 0,1.55032 0.55737,2.88519 1.65805,3.96714 0.38407,0.3747 0.81966,0.69788 1.2974,0.96017 0.15457,0.0843 0.3185,0.16393 0.48243,0.23419 0.67446,0.29039 1.48943,0.44027 2.4215,0.44027 h 0.005 c 0.96486,0 1.91566,-0.30444 2.83367,-0.8946 0.91802,-0.59483 1.61121,-1.41449 2.06554,-2.43555 l 0.15925,-0.35596 0.0281,-0.0609 h -3.68143 z m -1.65337,-4.6135 c 1.54564,0 2.11238,1.08195 2.18732,1.45196 l -4.35589,0.005 c 0.18266,-0.70257 0.75408,-1.45665 2.16857,-1.45665 z"
       class="color1a1a1a svgShape"
       id="path201"
       style="stroke-width:0.0468375" />
  </g>
</svg>
